<?xml version="1.0" encoding="utf-8"?>
<!-- Generator: Adobe Illustrator 24.0.1, SVG Export Plug-In . SVG Version: 6.00 Build 0)  -->
<svg version="1.1" id="Ebene_1" xmlns="http://www.w3.org/2000/svg" xmlns:xlink="http://www.w3.org/1999/xlink" x="0px" y="0px"
	 width="93px" height="13.3px" viewBox="0 0 93 13.3" style="enable-background:new 0 0 93 13.3;" xml:space="preserve">
<style type="text/css">
	.st0{fill:#C81919;}
	.st1{fill:#1A1A18;}
</style>
<path class="st0" d="M9.3,7.2l3.1,3.7H1.3l4.3-3.7l1.2,1.4l0.4,0.5C7.1,9.1,9.3,7.2,9.3,7.2z M9.9,6.8l4.2-3.7l-1.2,7.3
	C12.9,10.4,9.9,6.8,9.9,6.8z M2.1,3.1l3.1,3.7l-4.3,3.7C0.9,10.5,2.1,3.1,2.1,3.1z M2.6,2.6h11.1L7.3,8.2C7.3,8.2,2.6,2.6,2.6,2.6z
	 M1.5,1.9L0,11.6h13.5L15,1.9L1.5,1.9L1.5,1.9z"/>
<path class="st1" d="M26.7,12.9c-1,0.2-2,0.3-2.9,0.3s-1.6-0.1-2.2-0.3c-0.6-0.2-1.1-0.6-1.6-1.1c-0.7-0.7-1-1.8-1-3.4
	c0-0.6,0-1.2,0.1-1.9c0.2-1.2,0.5-2.3,1-3.2c0.5-0.9,1-1.6,1.7-2.1C23.1,0.5,24.5,0,26,0c1,0,1.9,0.1,2.8,0.4l-0.8,2
	c-0.7-0.1-1.4-0.2-2-0.2c-1,0-1.9,0.3-2.6,1c-0.7,0.6-1.2,1.8-1.4,3.4c-0.1,0.6-0.1,1-0.1,1.5c0,0.9,0.2,1.5,0.5,2
	c0.5,0.7,1.3,1,2.4,1c0.8,0,1.5-0.1,2.1-0.2L26.7,12.9z M33.3,0.2l-2,12.8h-2.8l2-12.8L33.3,0.2z M37.7,2.4h-3.3l0.3-2.2h9.5
	l-0.3,2.2h-3.4L38.8,13H36L37.7,2.4z M47.1,0.2l1.8,5.5l3.5-5.5h2.8L49.9,8L49.1,13h-2.8L47.1,8l-2.8-7.8L47.1,0.2z"/>
<path class="st0" d="M61.5,11.4h-2l-1.5-7.6L56.3,13h-2.5l2.8-12.8h3L61,8.5l4.1-8.3h3L66.8,13h-2.6l1.1-9.2L61.5,11.4z M75.2,7.9
	l-0.5-5.1l-2,5.1H75.2z M78.7,13h-2.7l-0.4-3h-3.7l-1.4,3h-2.8l6.1-12.8h2.9C76.7,0.2,78.7,13,78.7,13z M84.6,0.2l-2,12.8h-2.8
	l2-12.8L84.6,0.2z M87,0.2L85,13h7.7l0.3-2.2h-4.9l1.7-10.6L87,0.2z"/>
</svg>
