<?xml version="1.0" encoding="utf-8"?>
<svg version="1.1" id="Ebene_1" xmlns="http://www.w3.org/2000/svg" xmlns:xlink="http://www.w3.org/1999/xlink" x="0px" y="0px"
	 viewBox="0 0 257.6 175.8" style="enable-background:new 0 0 257.6 175.8;" xml:space="preserve">
<style type="text/css">
	.st0{fill:#0072CE;}
	.st1{fill:#343434;}
</style>
<g>
	<path class="st0" d="M159.1,10.6H75.6c-12.2,0-22.1,9.9-22.1,22.1v51.2c0,12.2,9.9,22.1,22.1,22.1h47.5
		c7.7,14.2,20.4,18.8,35.4,18.7c-5.9-7-11.2-13.3-12.3-18.7h12.9c12.2,0,22.1-9.9,22.1-22.1V32.7C181.2,20.5,171.3,10.6,159.1,10.6z
		 M172.9,83.9c0,7.6-6.2,13.8-13.8,13.8H75.6c-7.6,0-13.8-6.2-13.8-13.8V32.7c0-7.6,6.2-13.8,13.8-13.8h83.5
		c7.6,0,13.8,6.2,13.8,13.8V83.9z"/>
	<rect x="69.6" y="40.3" class="st1" width="60.2" height="5.2"/>
	<rect x="69.6" y="56.7" class="st1" width="30.1" height="5.2"/>
	<rect x="69.6" y="73" class="st1" width="60.2" height="5.2"/>
	<g>
		<path class="st1" d="M157.8,67.4l-0.3,8c-1.3,0.7-2.6,1.2-3.9,1.6c-1.4,0.4-2.7,0.6-4.1,0.6c-4.2,0-7.7-1.2-10.5-3.5
			c-2.8-2.3-4.6-5.6-5.3-9.7h-4l0.6-2.8l3,0c0-0.2,0-0.4,0-0.6c0-0.2,0-0.5,0-0.9c0-0.2,0-0.5,0-1c0-0.2,0-0.4,0-0.6h-3.7l0.6-2.9
			h3.4c0.8-4,2.7-7.2,5.5-9.4c2.8-2.3,6.3-3.4,10.4-3.4c1.4,0,2.8,0.2,4.2,0.6c1.4,0.4,2.6,1,3.8,1.8v7.9c-1.1-1.1-2.3-1.9-3.5-2.5
			c-1.2-0.6-2.5-0.8-3.9-0.8c-1.9,0-3.5,0.5-4.8,1.5s-2.3,2.4-2.9,4.3H154l-1,2.9h-10.9c0,0.4-0.1,0.7-0.1,1c0,0.3,0,0.6,0,0.8
			c0,0.2,0,0.4,0,0.6s0,0.4,0,0.6l10.1,0l-1,2.8h-8.6c0.4,1.9,1.4,3.4,2.8,4.5s3.1,1.6,5.1,1.6c1.2,0,2.4-0.2,3.6-0.7
			C155.1,69.3,156.4,68.5,157.8,67.4z"/>
	</g>
	<polygon class="st1" points="220.6,10.9 209.7,0 163.5,46.1 163.5,46.1 159.5,61.1 174.5,57.1 174.5,57.1 	"/>
	<g>
		<path class="st1" d="M17,174L0,133.6h11.7l8.1,22.6c0.1,0.2,0.2,0.8,0.5,1.7c0.2,0.9,0.5,2.1,0.9,3.7c0.3-1.2,0.6-2.4,0.8-3.3
			c0.3-1,0.5-1.7,0.6-2.1l8-22.6h11.7l-17,40.4H17z"/>
		<path class="st1" d="M70.4,160.1c0,2-0.4,3.9-1.2,5.7c-0.8,1.8-1.9,3.4-3.4,4.9c-1.5,1.4-3.2,2.5-5.1,3.3c-1.9,0.7-3.9,1.1-6,1.1
			c-2.1,0-4.1-0.4-6-1.1c-1.9-0.7-3.5-1.8-5-3.3c-1.5-1.4-2.6-3-3.4-4.8c-0.8-1.8-1.2-3.7-1.2-5.8c0-2,0.4-4,1.1-5.8
			c0.8-1.8,1.9-3.4,3.4-4.9c1.5-1.4,3.1-2.5,5-3.2c1.9-0.7,3.9-1.1,6-1.1c2.2,0,4.2,0.4,6,1.1c1.9,0.7,3.5,1.8,5,3.2
			c1.5,1.5,2.7,3.1,3.4,4.9C70,156.2,70.4,158.1,70.4,160.1z M60.6,160.1c0-2.1-0.5-3.7-1.6-4.9c-1.1-1.2-2.5-1.8-4.3-1.8
			c-1.8,0-3.2,0.6-4.3,1.8s-1.6,2.8-1.6,4.9c0,2.1,0.5,3.7,1.5,4.9c1,1.2,2.5,1.8,4.3,1.8c1.8,0,3.2-0.6,4.3-1.8
			C60.1,163.9,60.6,162.2,60.6,160.1z"/>
		<path class="st1" d="M76.1,174v-27.9h9.3v6.6c1-2.4,2.3-4.2,3.9-5.4c1.7-1.2,3.7-1.8,6-1.8c0.4,0,0.8,0,1.2,0
			c0.4,0,0.8,0.1,1.2,0.1l-0.9,8.9c-0.6-0.2-1.2-0.3-1.7-0.4c-0.6-0.1-1.1-0.1-1.7-0.1c-2.4,0-4.2,0.7-5.5,2.2
			c-1.3,1.5-1.9,3.5-1.9,6.2V174H76.1z"/>
		<path class="st0" d="M101.4,174v-42.8h9.7v27.1l10.1-12.2h12.2l-12.5,13.4l13.7,14.5h-13l-10.5-12.4V174H101.4z"/>
		<path class="st0" d="M166.5,146.1V174h-9v-4.5c-1.3,1.9-2.7,3.4-4.4,4.3c-1.6,0.9-3.5,1.4-5.7,1.4c-3.7,0-6.7-1.4-8.9-4.1
			c-2.2-2.7-3.3-6.4-3.3-10.9c0-4.5,1.2-8.2,3.5-10.8c2.3-2.7,5.5-4,9.4-4c2.1,0,3.9,0.4,5.4,1.3c1.5,0.9,2.8,2.3,3.9,4.1v-4.6
			H166.5z M157.9,160c0-2.2-0.6-3.9-1.7-5.2c-1.2-1.3-2.7-1.9-4.8-1.9c-2,0-3.6,0.6-4.7,1.9c-1.2,1.3-1.7,3-1.7,5.2
			c0,2.2,0.6,3.9,1.7,5.1c1.2,1.3,2.7,1.9,4.7,1.9c2,0,3.6-0.6,4.8-1.9C157.3,163.9,157.9,162.2,157.9,160z"/>
		<path class="st0" d="M171.4,171.7l2-7.5c1.4,1.3,3,2.2,4.7,2.9c1.7,0.7,3.5,1,5.2,1c1.2,0,2.2-0.2,2.8-0.6c0.6-0.4,1-1,1-1.7
			c0-1.2-1.3-2.2-3.9-2.8c-0.8-0.2-1.5-0.4-2-0.5c-2.9-0.8-5.1-1.9-6.4-3.2c-1.3-1.3-2-3-2-5.1c0-2.7,1-4.9,3.1-6.5
			c2-1.6,4.8-2.4,8.3-2.4c1.8,0,3.6,0.2,5.5,0.6c1.9,0.4,3.7,1.1,5.7,1.9l-2,6.8c-1.3-0.9-2.6-1.6-4-2c-1.3-0.5-2.7-0.7-4-0.7
			c-1.1,0-2,0.2-2.5,0.5c-0.6,0.4-0.9,0.9-0.9,1.5c0,1,1.3,1.8,3.9,2.5c0.6,0.2,1,0.3,1.3,0.4c3.4,1,5.8,2.1,7.1,3.4
			c1.3,1.3,2,3.1,2,5.3c0,2.9-1.1,5.2-3.3,6.9c-2.2,1.8-5.1,2.6-8.7,2.6c-2.4,0-4.7-0.3-6.8-0.8S173.2,172.8,171.4,171.7z"/>
		<path class="st0" d="M198.7,171.7l2-7.5c1.4,1.3,3,2.2,4.7,2.9c1.7,0.7,3.5,1,5.2,1c1.2,0,2.2-0.2,2.8-0.6c0.6-0.4,1-1,1-1.7
			c0-1.2-1.3-2.2-3.9-2.8c-0.8-0.2-1.5-0.4-2-0.5c-2.9-0.8-5.1-1.9-6.4-3.2c-1.3-1.3-2-3-2-5.1c0-2.7,1-4.9,3.1-6.5
			c2-1.6,4.8-2.4,8.3-2.4c1.8,0,3.6,0.2,5.5,0.6c1.9,0.4,3.7,1.1,5.7,1.9l-2,6.8c-1.3-0.9-2.6-1.6-4-2c-1.3-0.5-2.7-0.7-4-0.7
			c-1.1,0-2,0.2-2.5,0.5c-0.6,0.4-0.9,0.9-0.9,1.5c0,1,1.3,1.8,3.9,2.5c0.6,0.2,1,0.3,1.3,0.4c3.4,1,5.8,2.1,7.1,3.4
			c1.3,1.3,2,3.1,2,5.3c0,2.9-1.1,5.2-3.3,6.9c-2.2,1.8-5.1,2.6-8.7,2.6c-2.4,0-4.7-0.3-6.8-0.8S200.6,172.8,198.7,171.7z"/>
		<path class="st0" d="M257.6,162h-21.2c0,2.2,0.6,3.8,1.7,5c1.1,1.2,2.6,1.8,4.6,1.8c1.5,0,2.7-0.3,3.8-0.8c1-0.6,1.8-1.4,2.3-2.5
			l7.4,3c-0.9,2.1-2.4,3.8-4.7,4.9c-2.2,1.2-5,1.7-8.3,1.7c-4.9,0-8.8-1.4-11.7-4c-2.9-2.7-4.4-6.3-4.4-10.7c0-4.3,1.5-8,4.4-10.8
			c2.9-2.9,6.7-4.3,11.1-4.3c4.6,0,8.3,1.5,10.9,4.4c2.7,2.9,4,6.9,4,12V162z M247.9,156.5c-0.2-1.6-0.8-2.9-1.8-3.8
			c-1-1-2.3-1.4-3.8-1.4c-1.6,0-2.9,0.4-3.8,1.3c-0.9,0.9-1.6,2.2-1.9,3.9H247.9z"/>
	</g>
</g>
</svg>
