<?xml version="1.0" encoding="UTF-8"?><svg id="Ebene_1" xmlns="http://www.w3.org/2000/svg" viewBox="0 0 18.486 16"><defs><style>.cls-1{fill:none;}.cls-2{fill:#ceb67e;}</style></defs><path class="cls-1" d="m9.6,9.904c0-.265.034-.52.078-.772-.077-.006-.151-.024-.23-.024h-4.773c-1.833,0-3.323,1.521-3.323,3.391v2.145h11.42v-.5c-1.827-.549-3.171-2.232-3.171-4.24Z"/><path class="cls-1" d="m7.061,6.741c1.348,0,2.445-1.174,2.445-2.618s-1.097-2.617-2.445-2.617-2.445,1.174-2.445,2.617,1.097,2.618,2.445,2.618Z"/><g><path class="cls-1" d="m14.033,6.331c-1.285,0-2.403.693-3.03,1.719-.232.38-.395.803-.472,1.258-.033.195-.06.392-.06.595,0,1.523.959,2.816,2.3,3.329.394.151.816.243,1.262.243.022,0,.042-.006.064-.007,1.934-.035,3.497-1.617,3.497-3.565,0-1.97-1.598-3.573-3.562-3.573Z"/><path class="cls-1" d="m7.061,6.741c1.348,0,2.445-1.174,2.445-2.618s-1.097-2.617-2.445-2.617-2.445,1.174-2.445,2.617,1.097,2.618,2.445,2.618Z"/><path class="cls-1" d="m9.6,9.904c0-.265.034-.52.078-.772-.077-.006-.151-.024-.23-.024h-4.773c-1.833,0-3.323,1.521-3.323,3.391v2.145h11.42v-.5c-1.827-.549-3.171-2.232-3.171-4.24Z"/><path class="cls-2" d="m14.033,5.457c-1.693,0-3.149.967-3.896,2.37-.208-.032-.415-.07-.63-.073l-.582-.008.459-.358c1.007-.786,1.584-1.975,1.584-3.264C10.968,1.871,9.215.039,7.061.039s-3.907,1.832-3.907,4.084c0,1.288.577,2.478,1.584,3.264l.459.358-.582.008C2.084,7.786.024,9.915.024,12.499v3.506h14.073v-1.661c2.414-.036,4.369-2.011,4.369-4.44,0-2.452-1.989-4.447-4.433-4.447Zm-9.417-1.334c0-1.443,1.097-2.617,2.445-2.617s2.445,1.174,2.445,2.617-1.097,2.618-2.445,2.618-2.445-1.174-2.445-2.618Zm8.155,10.521H1.351v-2.145c0-1.87,1.491-3.391,3.323-3.391h4.773c.079,0,.153.018.23.024-.044.252-.078.508-.078.772,0,2.009,1.344,3.691,3.171,4.24v.5Zm1.326-1.175c-.022,0-.042.007-.064.007-.446,0-.868-.092-1.262-.243-1.341-.513-2.3-1.806-2.3-3.329,0-.204.027-.401.06-.595.077-.455.24-.878.472-1.258.626-1.026,1.745-1.719,3.03-1.719,1.964,0,3.562,1.603,3.562,3.573,0,1.948-1.564,3.529-3.497,3.565Z"/></g><path class="cls-2" d="m14.445,11.122c-.005-.19.036-.351.122-.483l.647-.958c.148-.215.225-.483.229-.805-.005-.452-.15-.812-.436-1.078-.276-.254-.606-.383-.99-.388-.377.005-.701.144-.972.418-.276.271-.417.618-.421,1.041v.153h.752c0-.307.07-.524.209-.651.123-.122.28-.183.472-.183.156,0,.3.058.432.176.13.122.197.291.202.505,0,.157-.059.326-.177.506l-.637.951c-.073.111-.122.223-.148.334.091.218.152.45.21.683h.506v-.219Z"/><path class="cls-2" d="m14.445,11.623h-.434c.047.253.071.512.077.777h.357v-.777Z"/><path class="cls-2" d="m13.692,11.623v.777h.395c-.006-.264-.03-.524-.077-.777h-.318Z"/><path class="cls-2" d="m13.727,10.662c-.023.117-.035.25-.035.397v.283h.247c-.058-.233-.12-.465-.21-.683,0,.001-.001.002-.001.003Z"/></svg>