<?xml version="1.0" encoding="UTF-8"?>
<svg id="Ebene_1" xmlns="http://www.w3.org/2000/svg" viewBox="0 0 16 16">
    <defs>
        <style>.cls-1{fill:#fff;}</style>
    </defs>
    <path class="cls-1"
          d="m14.54,1.909h-1.319v1.131c0,.744-.606,1.35-1.35,1.35s-1.35-.606-1.35-1.35v-1.131h-4.932v1.131c0,.744-.606,1.35-1.35,1.35s-1.35-.606-1.35-1.35v-1.131h-1.429C.654,1.909,0,2.563,0,3.369v11.171C0,15.346.654,16,1.46,16h13.08c.806,0,1.46-.654,1.46-1.46V3.369c0-.806-.654-1.46-1.46-1.46Zm-.24,12.391H1.7V5.67h12.6v8.63Z"/>
    <path class="cls-1"
          d="m4.239,3.791c.414,0,.75-.336.75-.75V.778c0-.414-.336-.75-.75-.75s-.75.336-.75.75v2.263c0,.414.336.75.75.75Z"/>
    <path class="cls-1"
          d="m11.871,3.791c.414,0,.75-.336.75-.75V.778c0-.414-.336-.75-.75-.75s-.75.336-.75.75v2.263c0,.414.336.75.75.75Z"/>
</svg>
