<?xml version="1.0" encoding="UTF-8"?><svg id="Ebene_1" xmlns="http://www.w3.org/2000/svg" viewBox="0 0 14.161 16"><defs><style>.cls-1{fill:#ceb67e;}</style></defs><path class="cls-1" d="m9.525,7.728l-.585-.008.461-.359c1.011-.787,1.591-1.978,1.591-3.267C10.992,1.839,9.232.005,7.069.005s-3.923,1.834-3.923,4.088c0,1.29.58,2.48,1.591,3.267l.461.359-.585.008C2.072,7.761.004,9.892.004,12.478v3.51h14.13v-3.51c0-2.586-2.068-4.718-4.609-4.751Zm-4.911-3.634c0-1.444,1.101-2.62,2.455-2.62s2.455,1.176,2.455,2.62-1.101,2.62-2.455,2.62-2.455-1.176-2.455-2.62Zm8.188,10.532H1.336v-2.147c0-1.872,1.497-3.395,3.337-3.395h4.793c1.84,0,3.337,1.523,3.337,3.395v2.147Z"/></svg>