<?xml version="1.0" encoding="UTF-8"?>
<svg id="Ebene_1" xmlns="http://www.w3.org/2000/svg" viewBox="0 0 243.846 110">
    <defs>
        <style>.cls-1{fill:#c1a65f;}</style>
    </defs>
    <polygon class="cls-1" points="242.848 0 236.834 4.527 239.277 3.439 243.846 0 242.848 0"/>
    <polygon class="cls-1" points="237.443 0 223.6 10.421 226.044 9.332 238.441 0 237.443 0"/>
    <polygon class="cls-1" points="232.04 0 210.37 16.313 212.815 15.224 233.039 0 232.04 0"/>
    <polygon class="cls-1" points="226.637 0 197.14 22.204 199.583 21.117 227.635 0 226.637 0"/>
    <polygon class="cls-1" points="221.233 0 183.908 28.097 186.352 27.009 222.231 0 221.233 0"/>
    <polygon class="cls-1" points="215.83 0 170.678 33.989 173.124 32.9 216.829 0 215.83 0"/>
    <polygon class="cls-1" points="210.426 0 157.446 39.882 159.89 38.794 211.425 0 210.426 0"/>
    <polygon class="cls-1" points="205.024 0 144.218 45.773 146.661 44.686 206.022 0 205.024 0"/>
    <polygon class="cls-1" points="199.619 0 130.984 51.667 133.428 50.579 200.617 0 199.619 0"/>
    <polygon class="cls-1" points="194.216 0 117.755 57.559 120.198 56.471 195.214 0 194.216 0"/>
    <polygon class="cls-1" points="188.813 0 104.525 63.451 106.967 62.363 189.811 0 188.813 0"/>
    <polygon class="cls-1" points="183.409 0 91.292 69.344 93.737 68.255 184.407 0 183.409 0"/>
    <polygon class="cls-1" points="178.006 0 78.063 75.235 80.507 74.147 179.005 0 178.006 0"/>
    <polygon class="cls-1" points="172.602 0 64.832 81.127 67.274 80.04 173.6 0 172.602 0"/>
    <polygon class="cls-1" points="167.198 0 51.6 87.02 54.041 85.933 168.195 0 167.198 0"/>
    <polygon class="cls-1" points="161.795 0 38.368 92.913 40.812 91.824 162.793 0 161.795 0"/>
    <polygon class="cls-1" points="156.391 0 25.136 98.806 27.58 97.717 157.39 0 156.391 0"/>
    <polygon class="cls-1" points="150.988 0 11.908 104.697 14.35 103.609 151.985 0 150.988 0"/>
    <polygon class="cls-1" points="145.584 0 0 109.592 0 110 1.118 109.502 146.582 0 145.584 0"/>
    <polygon class="cls-1" points="140.18 0 0 105.525 0 106.276 141.178 0 140.18 0"/>
    <polygon class="cls-1" points="134.778 0 0 101.458 0 102.209 135.775 0 134.778 0"/>
    <polygon class="cls-1" points="129.373 0 0 97.389 0 98.14 130.371 0 129.373 0"/>
    <polygon class="cls-1" points="123.97 0 0 93.322 0 94.073 124.969 0 123.97 0"/>
    <polygon class="cls-1" points="118.568 0 0 89.255 0 90.006 119.566 0 118.568 0"/>
    <polygon class="cls-1" points="113.163 0 0 85.187 0 85.937 114.16 0 113.163 0"/>
    <polygon class="cls-1" points="107.759 0 0 81.119 0 81.87 108.757 0 107.759 0"/>
    <polygon class="cls-1" points="102.356 0 0 77.051 0 77.802 103.354 0 102.356 0"/>
    <polygon class="cls-1" points="96.953 0 0 72.984 0 73.735 97.95 0 96.953 0"/>
    <polygon class="cls-1" points="91.549 0 0 68.916 0 69.667 92.547 0 91.549 0"/>
    <polygon class="cls-1" points="86.145 0 0 64.848 0 65.599 87.143 0 86.145 0"/>
    <polygon class="cls-1" points="80.741 0 0 60.78 0 61.532 81.739 0 80.741 0"/>
    <polygon class="cls-1" points="75.338 0 0 56.713 0 57.464 76.336 0 75.338 0"/>
    <polygon class="cls-1" points="69.934 0 0 52.645 0 53.396 70.932 0 69.934 0"/>
    <polygon class="cls-1" points="64.531 0 0 48.578 0 49.329 65.528 0 64.531 0"/>
    <polygon class="cls-1" points="59.128 0 0 44.51 0 45.261 60.126 0 59.128 0"/>
    <polygon class="cls-1" points="53.724 0 0 40.442 0 41.193 54.721 0 53.724 0"/>
    <polygon class="cls-1" points="48.319 0 0 36.374 0 37.126 49.318 0 48.319 0"/>
    <polygon class="cls-1" points="42.917 0 0 32.306 0 33.058 43.916 0 42.917 0"/>
    <polygon class="cls-1" points="37.514 0 0 28.239 0 28.99 38.512 0 37.514 0"/>
    <polygon class="cls-1" points="32.111 0 0 24.172 0 24.923 33.108 0 32.111 0"/>
    <polygon class="cls-1" points="26.706 0 0 20.103 0 20.855 27.705 0 26.706 0"/>
    <polygon class="cls-1" points="21.304 0 0 16.037 0 16.787 22.301 0 21.304 0"/>
    <polygon class="cls-1" points="15.9 0 0 11.969 0 12.719 16.897 0 15.9 0"/>
    <polygon class="cls-1" points="10.496 0 0 7.901 0 8.652 11.495 0 10.496 0"/>
    <polygon class="cls-1" points="5.093 0 0 3.833 0 4.585 6.091 0 5.093 0"/>
    <polygon class="cls-1" points="0 0 0 .517 .686 0 0 0"/>
</svg>
