<?xml version="1.0" encoding="UTF-8"?>
<svg id="Ebene_1" xmlns="http://www.w3.org/2000/svg" viewBox="0 0 19.984 16">
    <defs>
        <style>.cls-1{fill:none;}.cls-2{fill:#fff;}</style>
    </defs>
    <polygon class="cls-1" points="1.412 11.527 7.463 14.163 7.463 7.871 1.412 5.236 1.412 11.527"/>
    <polygon class="cls-1" points="10.674 2.492 8.14 1.517 1.867 3.896 4.586 5.081 10.674 2.492"/>
    <polygon class="cls-1" points="11.945 2.982 5.783 5.602 8.241 6.673 14.658 4.026 11.945 2.982"/>
    <path class="cls-1"
          d="m15.119,7.115v-1.754l-6.247,2.577v6.217l2.443-1.084c-.176-.479-.287-.99-.287-1.529,0-2.334,1.807-4.234,4.092-4.426Z"/>
    <path class="cls-2"
          d="m16.529,7.211v-3.957h-.003s.007-.017.007-.017L8.145.008.02,3.088l.002.004-.019-.008v9.366l8.167,3.558,3.843-1.705c.818,1.028,2.066,1.702,3.479,1.702,2.461,0,4.464-2.003,4.464-4.464,0-2.103-1.466-3.86-3.426-4.33Zm-1.037,7.916c-1.054,0-1.993-.465-2.65-1.191-.318-.352-.563-.765-.723-1.222-.129-.369-.213-.76-.213-1.173,0-1.85,1.413-3.36,3.214-3.549.124-.013.245-.038.372-.038.363,0,.707.07,1.037.171,1.47.448,2.549,1.801,2.549,3.415,0,1.978-1.609,3.586-3.586,3.586ZM8.14,1.517l2.533.975-6.088,2.589-2.719-1.185,6.274-2.379Zm-.678,12.646l-6.05-2.636v-6.291l6.05,2.635v6.292Zm-1.68-8.561l6.163-2.62,2.713,1.044-6.417,2.647-2.458-1.071Zm3.089,8.552v-6.217l6.247-2.577v1.754c-2.285.193-4.092,2.092-4.092,4.426,0,.539.111,1.05.287,1.529l-2.443,1.084Z"/>
    <path class="cls-2"
          d="m13.6,11.338c-.163-.178-.44-.192-.618-.031-.178.162-.192.438-.031.617l.271.3.841-.373-.464-.513Z"/>
    <path class="cls-2"
          d="m17.27,10.081c.128-.204.065-.474-.14-.602-.201-.125-.472-.065-.602.139v1.652c.314-.503.741-1.19.741-1.19Z"/>
    <path class="cls-2" d="m14.829,13.998s.452-.725.813-1.304l-1.422.631.609.673Z"/>
    <path class="cls-2"
          d="m15.642,12.694c.394-.632.512-.821.887-1.423v-1.652s0,0,0,0l-1.829,2.935-.635-.703-.841.373.996,1.101,1.422-.631Z"/>
</svg>
