<?xml version="1.0" encoding="utf-8"?>
<!-- Generator: Adobe Illustrator 23.0.6, SVG Export Plug-In . SVG Version: 6.00 Build 0)  -->
<svg version="1.1" id="Schrift" xmlns="http://www.w3.org/2000/svg" xmlns:xlink="http://www.w3.org/1999/xlink" x="0px" y="0px"
	 viewBox="0 0 340.2 340.2" style="enable-background:new 0 0 340.2 340.2;" xml:space="preserve">
<style type="text/css">
	.st0{fill:#3C0020;}
	.st1{fill:#C1A660;}
	.st2{fill:#FFFFFF;}
</style>
<path id="Fläche_WEINROT_1_" class="st0" d="M28.3,0C28.3,0,0,0,0,28.3v283.5c0,0,0,28.3,28.3,28.3h283.5c0,0,28.3,0,28.3-28.3
	V28.3c0,0,0-28.3-28.3-28.3H28.3z"/>
<g id="Rehorik_GOLD_1_">
	<path class="st1" d="M43,264.6c1.1-4.4,11.2-22.3,14.2-23.7c1.5-0.7,38.1-1.5,34.9,4.8c-2,3.7-6.2,5.4-9.9,7.1
		C71.1,258.1,57.8,262.9,43,264.6L43,264.6z M0,252.4c4.2-0.6,8.2-1.9,9.9-2.3c9.7-2.3,20.2-6.3,30.5-6.4
		c-9.2,21.7-19.2,43.3-30.5,66.6c-0.3,0.5-0.6,1.3,0,1c7.6-3.8,14.6-8.4,18.3-16.3c3.6-7.6,7-15.6,10.7-23.1
		c20.6,17.7,34.4,43.5,70.7,44.5c-11.5-5.3-21.5-13.1-30.8-21.4c-9.2-8.3-18.2-17.1-25.7-27c16-4.8,31.2-8.9,45.3-16.3
		c3.6-1.9,11.1-4.9,10.9-9.4c-0.1-3.1-5.2-5.7-8.7-6.9c-11.2-3.9-27.9-3.9-41.5-2c-17.2,2.3-33.4,6.8-48.4,11.9
		c-0.4,0.1-0.7,0.2-1,0.3c-1.4,0.5-5.9,2.1-9.9,3.7V252.4z"/>
	<path class="st1" d="M165.9,264.6c-6.6-4.7-16.7,1.5-21.4,4.1c5.1-11.9,12-22.1,18.1-33.1c0-0.2,0-0.3-0.3-0.3
		c-6.3,0.8-15.2,2.1-18.6,7.6c-1.2,1.9-1.8,4.9-2.8,7.4c-6.8,17.5-14.4,35.6-21.6,50.9c11-1.4,13.3-10.8,18.8-18.3
		c5-6.8,10.4-15.1,20.6-13.2c0.8,6.6-3,11.7-5.6,16.5c-2.7,5-6,9.6-8.6,14.5c8.8-0.8,13.1-5.8,17-12.2
		C164.4,283.9,173.5,270,165.9,264.6"/>
	<path class="st1" d="M285,243.2c-4.8,0.9-9.8,4-15.5,4.8c-1.8,4-2.9,7.3-5.3,10.7C273.8,256.3,281,251.4,285,243.2"/>
	<path class="st1" d="M104.3,276.3c-3.4,1.4-6,1.9-9.7,2.3c0.9-5.5,6.4-12.6,13.2-10.9C114.3,269.2,107.3,275.1,104.3,276.3
		 M120.4,268.7c-0.8-3.8-7-5.3-11.7-5.3c-13.3,0-25.3,7.8-25.7,19.1c-0.7,18.2,24.7,26.3,33.6,10.9c-9.8,3.5-22.1,0.4-22.6-10.4
		c3.4-1.4,7.9-1.9,12.2-3.1c4.2-1.1,8.4-2.6,11.2-4.8C118.8,273.8,120.9,271.5,120.4,268.7"/>
	<path class="st1" d="M209.4,264.6c-2.9-0.4-7.1,4.5-9.4,4.6c2.3,2.8,1.6,8.3,0,11.4c-1.9,3.6-9.8,14-14.5,13.7
		c-2.4-0.1-4.3-3.2-4.6-5.9c-0.6-6,2.9-11.2,6.6-15.3c4-4.4,8.5-7.6,14.3-8.9c-6.7-1.6-13.4-1.1-19.1,2.3
		c-5.3,3.1-10.4,10.9-11.2,16.5c-1,6.9,2.3,11.8,5.1,14.2c2.2,1.9,6.3,4,10.7,4.1c8.2,0,14.4-6.3,18.6-11.7
		c4.1-5.2,6.8-10.1,7.1-16.8C213.1,269.6,211.3,264.9,209.4,264.6"/>
	<path class="st1" d="M258.5,267.6c-4.3,11.8-10.4,21.8-14.7,33.6c9.9-1.2,13.8-10,18.1-17c4-6.6,7.4-13.6,9.9-20.1
		C266.1,264.1,262.4,265.9,258.5,267.6"/>
	<path class="st1" d="M235.9,268.2c0.1-1.5,1.1-2.1,1.3-3.6c-5-0.7-9.1,1.6-12.5,3.3c-4.7,11.2-10.1,21.8-15,32.8
		c8.5,0.6,12.2-7.1,16-12.7c7.4-10.7,16.6-17.9,28.8-23.7C246.9,264.1,241.2,267.1,235.9,268.2"/>
	<path class="st1" d="M340.2,306.6c-3.1,0.4-6.8,0.5-8.4,0.5c-19.2-0.4-31.4-10.6-41-21.1c-1.3-1.4-2.6-3.6-4.6-4.1
		c-4.5,7.6-7.2,18.4-18.1,18.8c7.2-15.4,15.6-34.5,21.6-50.9c1-2.7,1.8-5.8,3.1-7.6c3.7-5.5,11.5-6.3,18.6-7.1
		c-7.2,12.8-15.1,24.9-20.9,39.2c11-6.5,22.5-15.2,40.2-13.7c-12.7,3.8-23.5,9.5-32.8,16.8c8.9,10.2,20.5,17.9,33.8,23.7
		c2.5,1.1,4.7,2.1,8.4,3.1V306.6z"/>
</g>
<g>
	<path class="st2" d="M21.4,47.8v20.3h-2.8V47.8h-3.8v-2.5h10.4v2.5H21.4z"/>
	<path class="st2" d="M36.7,68.1l-3.1-9.8H31v9.8h-2.8V45.3h5.2c3.5,0,5.4,1.5,5.4,6.5c0,3.2-0.8,5-2.8,6l3.5,10.3H36.7z M33.5,47.8
		H31v8.1h2.4c2.1,0,2.6-1.6,2.6-4.1C36.1,49.4,35.6,47.8,33.5,47.8z"/>
	<path class="st2" d="M51.6,68.1l-1.1-5.4h-5.3l-1.1,5.4h-2.9l5.3-22.8h2.7l5.3,22.8H51.6z M47.9,49.8l-2.1,10.5H50L47.9,49.8z"/>
	<path class="st2" d="M66.2,66.5c-0.9,0.9-2.1,1.6-3.9,1.6h-5.3V45.3h5.3c1.8,0,3,0.7,3.9,1.6c1.6,1.7,1.6,4.2,1.6,9.8
		S67.8,64.8,66.2,66.5z M64.2,48.7c-0.4-0.5-1-0.9-1.9-0.9h-2.4v17.9h2.4c0.9,0,1.5-0.4,1.9-0.9c0.8-1.1,0.9-2.8,0.9-8.1
		C65.1,51.5,65,49.8,64.2,48.7z"/>
	<path class="st2" d="M71.7,68.1V45.3h2.8v22.8H71.7z"/>
	<path class="st2" d="M84.1,47.8v20.3h-2.8V47.8h-3.8v-2.5h10.4v2.5H84.1z"/>
	<path class="st2" d="M91,68.1V45.3h2.8v22.8H91z"/>
	<path class="st2" d="M107.1,66.7c-0.9,1-2.1,1.6-3.9,1.6c-1.8,0-3-0.7-3.9-1.6c-1.6-1.7-1.7-4.3-1.7-10c0-5.7,0.1-8.3,1.7-10
		c0.9-1,2.1-1.6,3.9-1.6c1.8,0,3.1,0.7,3.9,1.6c1.6,1.7,1.6,4.3,1.6,10C108.8,62.4,108.7,65,107.1,66.7z M105.1,48.4
		c-0.4-0.5-1-0.9-1.9-0.9s-1.5,0.4-1.9,0.9c-0.8,1.1-1,2.9-1,8.3s0.2,7.2,1,8.3c0.4,0.5,1,0.9,1.9,0.9s1.5-0.4,1.9-0.9
		c0.8-1.1,1-2.9,1-8.3S105.9,49.5,105.1,48.4z"/>
	<path class="st2" d="M121.3,68.1l-5.9-15.6v15.6h-2.8V45.3h2.6l5.9,15.6l0-15.6h2.8v22.8H121.3z"/>
</g>
<g>
	<path class="st2" d="M24.8,105c-0.9,0.8-2.2,1.4-4,1.4c-1.8,0-3.1-0.5-4-1.4c-1.1-1.1-1.4-2.4-1.4-4.8h2.8c0,1.5,0.2,2.3,0.8,3
		c0.4,0.4,1,0.7,1.9,0.7c0.9,0,1.5-0.3,2-0.7c0.6-0.7,0.7-1.5,0.7-3c0-2.6-0.4-3.4-2.2-4.2l-2.6-1.1c-2.3-1-3.1-2.2-3.1-5.7
		c0-2,0.6-3.6,1.7-4.7c0.9-0.8,2.1-1.3,3.6-1.3c1.7,0,2.9,0.5,3.8,1.3c1.2,1.1,1.5,2.6,1.5,4.7h-2.8c0-1.2-0.1-2-0.7-2.8
		c-0.4-0.5-1-0.8-1.9-0.8c-0.8,0-1.4,0.3-1.8,0.7c-0.5,0.6-0.8,1.5-0.8,2.7c0,2.2,0.4,2.9,2.2,3.7l2.6,1.1c2.6,1.1,3.2,2.7,3.2,6.2
		C26.2,102.4,25.9,103.9,24.8,105z"/>
	<path class="st2" d="M30.2,106.1V83.3H39v2.5h-6v7.6h5.2v2.5h-5.2v7.7h6v2.5H30.2z"/>
	<path class="st2" d="M42.8,106.1V83.3h2.8v22.8H42.8z"/>
	<path class="st2" d="M55.5,85.8v20.3h-2.8V85.8h-3.8v-2.5h10.4v2.5H55.5z"/>
	<path class="st2" d="M72.4,106.1V86.4l-3.3,2.7v-3l3.3-2.8H75v22.8H72.4z"/>
	<path class="st2" d="M89.5,95.9l-3.8,10.2H83l3.7-9.5c-0.4,0.4-1,0.5-1.6,0.5c-1.2,0-2.1-0.5-2.8-1.3c-0.8-1-1.2-2-1.2-5.7
		c0-3.2,0.3-4.4,1.2-5.5c0.8-1.1,2.1-1.5,3.5-1.5c1.5,0,2.8,0.6,3.5,1.5c0.9,1.2,1.2,2.5,1.2,5.5C90.4,92.4,90.1,94.3,89.5,95.9z
		 M87.2,86c-0.4-0.4-0.9-0.6-1.4-0.6s-1.1,0.2-1.4,0.6c-0.6,0.7-0.6,2.2-0.6,4.2s0,3.4,0.6,4.2c0.4,0.4,0.9,0.6,1.4,0.6
		s1.1-0.2,1.4-0.6c0.6-0.7,0.6-2.2,0.6-4.2S87.8,86.7,87.2,86z"/>
	<path class="st2" d="M93.9,106.1v-2.2l5.6-11.8c0.5-1.1,1-2.6,1-4.4c0-1.5-0.9-2.3-2-2.3s-2,0.8-2,2.3v1.5H94v-1.5
		c0-1.7,0.5-2.7,1.3-3.5c0.8-0.8,2-1.2,3.3-1.2s2.4,0.4,3.2,1.2c0.8,0.8,1.3,1.9,1.3,3.6s-0.6,3.6-1.3,5.2l-5.1,10.8h6.4v2.3H93.9z"
		/>
	<path class="st2" d="M114.4,105.1c-0.8,0.8-2,1.2-3.3,1.2s-2.5-0.4-3.3-1.2c-1.2-1.2-1.4-2.5-1.4-5.3c0-2.5,0.2-3.5,0.7-4.4
		c0.3-0.5,0.8-0.9,1.3-1.3c-0.5-0.4-1-0.8-1.2-1.3c-0.5-0.9-0.6-1.8-0.6-3.7c0-2.5,0.3-3.8,1.3-4.8c0.8-0.8,1.9-1.2,3.1-1.2
		s2.4,0.4,3.2,1.2c1,1,1.3,2.3,1.3,4.8c0,1.9-0.2,2.8-0.6,3.7c-0.3,0.5-0.7,1-1.2,1.3c0.5,0.4,1,0.8,1.3,1.3c0.6,1,0.8,1.9,0.8,4.4
		C115.8,102.6,115.6,103.9,114.4,105.1z M112.5,95.8c-0.4-0.4-0.9-0.6-1.4-0.6s-1,0.2-1.4,0.6c-0.6,0.7-0.7,1.7-0.7,3.9
		c0,2,0.1,3.1,0.7,3.8c0.3,0.4,0.8,0.6,1.4,0.6s1.1-0.2,1.4-0.6c0.5-0.7,0.7-1.9,0.7-3.8C113.2,97.5,113.1,96.5,112.5,95.8z
		 M112.4,85.9c-0.3-0.4-0.8-0.5-1.3-0.5s-1,0.2-1.3,0.5c-0.5,0.6-0.6,1.6-0.6,3.2c0,1.6,0.1,2.8,0.7,3.4c0.3,0.3,0.7,0.4,1.2,0.4
		s0.9-0.2,1.2-0.5c0.6-0.6,0.7-1.7,0.7-3.3C113.1,87.5,112.9,86.5,112.4,85.9z"/>
</g>
</svg>
