<?xml version="1.0" encoding="utf-8"?>
<!-- Generator: Adobe Illustrator 25.2.0, SVG Export Plug-In . SVG Version: 6.00 Build 0)  -->
<svg version="1.1" id="Ebene_1" xmlns="http://www.w3.org/2000/svg" xmlns:xlink="http://www.w3.org/1999/xlink" x="0px" y="0px"
	 viewBox="0 0 135 135" style="enable-background:new 0 0 135 135;" xml:space="preserve">
<style type="text/css">
	.st0{fill:#CEB67E;}
	.st1{fill:none;}
	.st2{fill:none;stroke:#CEB67E;stroke-width:1.5165;stroke-linecap:round;stroke-miterlimit:10;}
	.st3{fill:none;stroke:#CEB67E;stroke-width:2;stroke-linecap:round;stroke-miterlimit:10;}
	.st4{opacity:0.8;fill:#CEB67E;}
	.st5{fill:#5D0D30;}
	.st6{fill:#CEB67F;}
	.st7{fill:#5C0D2F;}
	.st8{fill:#FFFFFF;}
</style>
<g>
	<path id="Fläche_WEINROT_4_" class="st6" d="M11.3,0C11.3,0,0,0,0,11.2v112.5c0,0,0,11.3,11.2,11.3h112.5c0,0,11.2,0,11.2-11.3
		V11.2c0,0,0-11.2-11.2-11.2H11.3z"/>
	<g id="Rehorik_GOLD_4_">
		<path class="st7" d="M17.1,105c0.4-1.7,4.5-8.9,5.7-9.4c0.6-0.3,15.1-0.6,13.8,1.9c-0.8,1.5-2.5,2.1-3.9,2.8
			C28.2,102.4,22.9,104.3,17.1,105L17.1,105z M0,100.2c1.7-0.2,3.3-0.8,3.9-0.9c3.9-0.9,8-2.5,12.1-2.5c-3.7,8.6-7.6,17.2-12.1,26.5
			c-0.1,0.2-0.2,0.5,0,0.4c3-1.5,5.8-3.3,7.3-6.5c1.4-3,2.8-6.2,4.2-9.2c8.2,7,13.6,17.3,28.1,17.7c-4.5-2.1-8.5-5.2-12.2-8.5
			c-3.7-3.3-7.2-6.8-10.2-10.7c6.4-1.9,12.4-3.5,18-6.5c1.4-0.8,4.4-1.9,4.3-3.7C43.4,95,41.3,94,40,93.5
			c-4.5-1.6-11.1-1.5-16.5-0.8c-6.8,0.9-13.3,2.7-19.2,4.7c-0.1,0-0.3,0.1-0.4,0.1C3.4,97.7,1.6,98.4,0,99V100.2z"/>
		<path class="st7" d="M65.8,105c-2.6-1.9-6.6,0.6-8.5,1.6c2-4.7,4.7-8.8,7.2-13.1c0-0.1,0-0.1-0.1-0.1c-2.5,0.3-6,0.8-7.4,3
			c-0.5,0.8-0.7,1.9-1.1,2.9c-2.7,6.9-5.7,14.1-8.6,20.2c4.4-0.6,5.3-4.3,7.5-7.3c2-2.7,4.1-6,8.2-5.3c0.3,2.6-1.2,4.7-2.2,6.6
			c-1.1,2-2.4,3.8-3.4,5.8c3.5-0.3,5.2-2.3,6.8-4.8C65.3,112.7,68.8,107.2,65.8,105"/>
		<path class="st7" d="M113.1,96.5c-1.9,0.4-3.9,1.6-6.2,1.9c-0.7,1.6-1.1,2.9-2.1,4.2C108.6,101.7,111.5,99.8,113.1,96.5"/>
		<path class="st7" d="M41.4,109.7c-1.3,0.6-2.4,0.8-3.8,0.9c0.4-2.2,2.5-5,5.3-4.3C45.4,106.8,42.6,109.2,41.4,109.7 M47.8,106.6
			c-0.3-1.5-2.8-2.1-4.6-2.1c-5.3,0-10,3.1-10.2,7.6c-0.3,7.2,9.8,10.4,13.3,4.3c-3.9,1.4-8.8,0.2-9-4.1c1.3-0.5,3.1-0.8,4.8-1.2
			c1.7-0.4,3.3-1,4.4-1.9C47.2,108.7,48,107.7,47.8,106.6"/>
		<path class="st7" d="M83.1,105c-1.2-0.2-2.8,1.8-3.7,1.8c0.9,1.1,0.6,3.3,0,4.5c-0.7,1.4-3.9,5.6-5.8,5.5
			c-0.9-0.1-1.7-1.3-1.8-2.3c-0.2-2.4,1.2-4.4,2.6-6.1c1.6-1.8,3.4-3,5.7-3.5c-2.7-0.6-5.3-0.4-7.6,0.9c-2.1,1.2-4.1,4.3-4.4,6.6
			c-0.4,2.7,0.9,4.7,2,5.7c0.9,0.8,2.5,1.6,4.2,1.6c3.3,0,5.7-2.5,7.4-4.6c1.6-2,2.7-4,2.8-6.7C84.6,107,83.9,105.1,83.1,105"/>
		<path class="st7" d="M102.6,106.2c-1.7,4.7-4.1,8.6-5.9,13.3c3.9-0.5,5.5-4,7.2-6.8c1.6-2.6,2.9-5.4,3.9-8
			C105.6,104.8,104.1,105.5,102.6,106.2"/>
		<path class="st7" d="M93.6,106.4c0-0.6,0.4-0.8,0.5-1.4c-2-0.3-3.6,0.6-4.9,1.3c-1.9,4.4-4,8.6-6,13c3.4,0.2,4.8-2.8,6.4-5
			c2.9-4.3,6.6-7.1,11.4-9.4C98,104.8,95.7,106,93.6,106.4"/>
		<path class="st7" d="M135,121.7c-1.2,0.2-2.7,0.2-3.3,0.2c-7.6-0.2-12.4-4.2-16.3-8.4c-0.5-0.6-1-1.4-1.8-1.6
			c-1.8,3-2.9,7.3-7.2,7.5c2.9-6.1,6.2-13.7,8.6-20.2c0.4-1.1,0.7-2.3,1.2-3c1.5-2.2,4.6-2.5,7.4-2.8c-2.9,5.1-6,9.9-8.3,15.5
			c4.4-2.6,8.9-6,16-5.5c-5,1.5-9.3,3.8-13,6.7c3.5,4.1,8.1,7.1,13.4,9.4c1,0.4,1.9,0.8,3.3,1.2V121.7z"/>
	</g>
	<g>
		<path class="st8" d="M8.5,19V27H7.4V19H5.9v-1H10v1H8.5z"/>
		<path class="st8" d="M14.6,27l-1.2-3.9h-1V27h-1.1v-9h2c1.4,0,2.1,0.6,2.1,2.6c0,1.3-0.3,2-1.1,2.4l1.4,4.1H14.6z M13.3,19h-1v3.2
			h1c0.8,0,1-0.6,1-1.6C14.3,19.6,14.1,19,13.3,19z"/>
		<path class="st8" d="M20.5,27l-0.4-2.1H18L17.5,27h-1.1l2.1-9h1.1l2.1,9H20.5z M19,19.8l-0.9,4.2h1.7L19,19.8z"/>
		<path class="st8" d="M26.3,26.4c-0.3,0.4-0.8,0.6-1.5,0.6h-2.1v-9h2.1c0.7,0,1.2,0.3,1.5,0.6c0.6,0.7,0.6,1.7,0.6,3.9
			S26.9,25.7,26.3,26.4z M25.5,19.3c-0.2-0.2-0.4-0.3-0.8-0.3h-1v7.1h1c0.4,0,0.6-0.1,0.8-0.3c0.3-0.4,0.4-1.1,0.4-3.2
			C25.8,20.4,25.8,19.7,25.5,19.3z"/>
		<path class="st8" d="M28.5,27v-9h1.1v9H28.5z"/>
		<path class="st8" d="M33.4,19V27h-1.1V19h-1.5v-1h4.1v1H33.4z"/>
		<path class="st8" d="M36.1,27v-9h1.1v9H36.1z"/>
		<path class="st8" d="M42.5,26.5c-0.3,0.4-0.8,0.6-1.6,0.6c-0.7,0-1.2-0.3-1.5-0.6c-0.6-0.7-0.7-1.7-0.7-4c0-2.3,0-3.3,0.7-4
			c0.3-0.4,0.8-0.6,1.5-0.6c0.7,0,1.2,0.3,1.6,0.6c0.6,0.7,0.6,1.7,0.6,4C43.2,24.8,43.1,25.8,42.5,26.5z M41.7,19.2
			c-0.2-0.2-0.4-0.3-0.7-0.3c-0.4,0-0.6,0.1-0.7,0.3c-0.3,0.4-0.4,1.2-0.4,3.3s0.1,2.9,0.4,3.3c0.2,0.2,0.4,0.3,0.7,0.3
			c0.4,0,0.6-0.1,0.7-0.3c0.3-0.4,0.4-1.2,0.4-3.3S42,19.6,41.7,19.2z"/>
		<path class="st8" d="M48.1,27l-2.3-6.2V27h-1.1v-9h1l2.3,6.2l0-6.2h1.1v9H48.1z"/>
	</g>
	<g>
		<path class="st8" d="M9.9,41.7C9.5,42,9,42.2,8.3,42.2c-0.7,0-1.2-0.2-1.6-0.5c-0.4-0.4-0.6-0.9-0.6-1.9h1.1
			c0,0.6,0.1,0.9,0.3,1.2c0.2,0.2,0.4,0.3,0.7,0.3c0.4,0,0.6-0.1,0.8-0.3c0.2-0.3,0.3-0.6,0.3-1.2c0-1-0.2-1.4-0.9-1.7l-1-0.4
			c-0.9-0.4-1.2-0.9-1.2-2.3c0-0.8,0.2-1.4,0.7-1.9C7.2,33.2,7.7,33,8.3,33c0.7,0,1.2,0.2,1.5,0.5c0.5,0.4,0.6,1,0.6,1.9H9.3
			c0-0.5-0.1-0.8-0.3-1.1C8.9,34.1,8.6,34,8.3,34c-0.3,0-0.5,0.1-0.7,0.3c-0.2,0.2-0.3,0.6-0.3,1.1c0,0.9,0.1,1.2,0.9,1.5l1,0.4
			c1,0.4,1.3,1.1,1.3,2.5C10.4,40.6,10.3,41.2,9.9,41.7z"/>
		<path class="st8" d="M12,42.1v-9h3.5v1h-2.4v3h2.1v1h-2.1v3.1h2.4v1H12z"/>
		<path class="st8" d="M17,42.1v-9h1.1v9H17z"/>
		<path class="st8" d="M22,34v8.1h-1.1V34h-1.5v-1h4.1v1H22z"/>
		<path class="st8" d="M28.7,42.1v-7.8l-1.3,1.1v-1.2l1.3-1.1h1v9H28.7z"/>
		<path class="st8" d="M35.5,38L34,42.1h-1.1l1.5-3.8c-0.2,0.1-0.4,0.2-0.6,0.2c-0.5,0-0.8-0.2-1.1-0.5c-0.3-0.4-0.5-0.8-0.5-2.3
			c0-1.3,0.1-1.8,0.5-2.2C33,33.2,33.5,33,34,33c0.6,0,1.1,0.2,1.4,0.6c0.4,0.5,0.5,1,0.5,2.2C35.9,36.7,35.7,37.4,35.5,38z
			 M34.6,34.1c-0.1-0.2-0.3-0.2-0.6-0.2c-0.2,0-0.4,0.1-0.6,0.2c-0.2,0.3-0.3,0.9-0.3,1.7c0,0.8,0,1.4,0.3,1.7
			c0.1,0.2,0.3,0.3,0.6,0.3c0.2,0,0.4-0.1,0.6-0.3c0.2-0.3,0.3-0.9,0.3-1.7C34.8,35,34.8,34.4,34.6,34.1z"/>
		<path class="st8" d="M37.3,42.1v-0.9l2.2-4.7c0.2-0.4,0.4-1,0.4-1.8c0-0.6-0.3-0.9-0.8-0.9c-0.4,0-0.8,0.3-0.8,0.9v0.6h-1v-0.6
			c0-0.7,0.2-1.1,0.5-1.4c0.3-0.3,0.8-0.5,1.3-0.5s1,0.2,1.3,0.5c0.3,0.3,0.5,0.7,0.5,1.4c0,0.7-0.2,1.4-0.5,2l-2,4.3h2.5v0.9H37.3z
			"/>
		<path class="st8" d="M45.4,41.7c-0.3,0.3-0.8,0.5-1.3,0.5s-1-0.2-1.3-0.5c-0.5-0.5-0.5-1-0.5-2.1c0-1,0.1-1.4,0.3-1.8
			c0.1-0.2,0.3-0.4,0.5-0.5c-0.2-0.1-0.4-0.3-0.5-0.5c-0.2-0.4-0.3-0.7-0.3-1.5c0-1,0.1-1.5,0.5-1.9c0.3-0.3,0.7-0.5,1.2-0.5
			s1,0.2,1.3,0.5c0.4,0.4,0.5,0.9,0.5,1.9c0,0.7-0.1,1.1-0.3,1.5c-0.1,0.2-0.3,0.4-0.5,0.5c0.2,0.1,0.4,0.3,0.5,0.5
			c0.2,0.4,0.3,0.7,0.3,1.8C46,40.7,45.9,41.2,45.4,41.7z M44.7,38c-0.1-0.2-0.3-0.2-0.6-0.2s-0.4,0.1-0.5,0.2
			c-0.2,0.3-0.3,0.7-0.3,1.5c0,0.8,0.1,1.2,0.3,1.5c0.1,0.2,0.3,0.2,0.5,0.2s0.4-0.1,0.6-0.2c0.2-0.3,0.3-0.7,0.3-1.5
			C44.9,38.7,44.9,38.3,44.7,38z M44.6,34.1c-0.1-0.1-0.3-0.2-0.5-0.2s-0.4,0.1-0.5,0.2c-0.2,0.2-0.2,0.6-0.2,1.3
			c0,0.6,0,1.1,0.3,1.3c0.1,0.1,0.3,0.2,0.5,0.2s0.4-0.1,0.5-0.2c0.2-0.2,0.3-0.7,0.3-1.3C44.9,34.7,44.8,34.3,44.6,34.1z"/>
	</g>
</g>
</svg>
