<?xml version="1.0" encoding="UTF-8"?><svg id="a" xmlns="http://www.w3.org/2000/svg" viewBox="0 0 153.071 102.047"><defs><style>.b{fill:#fff;}.c{fill:#617e30;}</style></defs><rect class="c" x="0" y="0" width="153.07" height="102.047"/><g><path class="b" d="M30.713,79.945l-.811-4.463,.106-.043-2.902-15.564c3.209-3.48,7.505-9.571,7.639-17.368,.117-6.818-3.064-11.837-5.87-16.265-3.269-5.158-7.55-9.651-12.724-13.354l-1.308-.936-.843,1.37c-3.333,5.418-5.537,11.219-6.551,17.243-.869,5.17-1.855,11.029,.896,17.269,2.948,6.685,8.682,10.571,12.937,12.65l3.697,17.009,.042-.017,2.57,11.728h6.245l8.452-38.331h-6.622l-4.953,29.072ZM11.09,46.623c-2.389-5.417-1.522-10.573-.683-15.56,.862-5.123,2.647-10.081,5.313-14.759,4.272,3.28,7.84,7.157,10.621,11.544,2.707,4.271,5.506,8.688,5.404,14.607-.098,5.695-2.784,10.41-5.345,13.634l-3.296-17.675-6.42,.918,2.509,11.541h0l.004,.02,1.246,5.734c-3.412-2.019-7.235-5.201-9.353-10.004Z"/><polygon class="b" points="46.811 89.204 62.907 89.204 62.907 83.767 52.84 83.767 52.84 72.623 61.508 72.623 61.508 67.186 52.84 67.186 52.84 56.311 62.907 56.311 62.907 50.873 46.811 50.873 46.811 89.204"/><path class="b" d="M78.412,55.881c3.284,0,3.715,3.068,3.768,5.168h6.029c-.107-3.284-1.076-6.084-2.961-8.021-1.615-1.616-3.876-2.584-6.837-2.584-3.553,0-5.868,1.4-7.429,3.284-2.531,3.014-2.8,7.213-2.8,16.311s.269,13.297,2.8,16.312c1.561,1.885,3.876,3.284,7.429,3.284,5.76,0,9.798-3.662,9.798-10.66v-10.605h-9.798v4.953h3.768v5.976c0,2.637-1.13,4.899-3.768,4.899-1.453,0-2.315-.592-2.853-1.453-1.185-1.831-1.346-5.707-1.346-12.706s.161-10.875,1.346-12.705c.538-.862,1.4-1.453,2.853-1.453Z"/><path class="b" d="M100.701,50.873l-9.421,38.331h6.353l1.507-7.591h8.883l1.561,7.591h6.298l-9.313-38.331h-5.869Zm-.376,25.303l3.283-16.042,3.284,16.042h-6.567Z"/><polygon class="b" points="134.887 50.873 134.887 73.645 125.895 50.873 120.512 50.873 120.512 89.204 126.541 89.204 126.541 66.432 135.586 89.204 140.915 89.204 140.915 50.873 134.887 50.873"/></g></svg>