<?xml version="1.0" encoding="UTF-8"?><svg id="a" xmlns="http://www.w3.org/2000/svg" viewBox="0 0 153.071 102.047"><defs><style>.b{fill:#fff;}.c{fill:#445625;}</style></defs><rect class="c" y="0" width="153.07" height="102.047"/><g><path class="b" d="M106.86,25.655c2.244-3.249,2.599-6.652,.825-8.43-1.777-1.773-5.18-1.419-8.429,.826-.708-3.886-2.863-6.544-5.377-6.544s-4.672,2.658-5.377,6.543c-3.247-2.245-6.652-2.601-8.429-.825-1.775,1.778-1.418,5.181,.827,8.429-3.887,.707-6.546,2.862-6.546,5.377s2.659,4.672,6.545,5.377c-2.246,3.248-2.602,6.651-.826,8.429,.739,.739,1.786,1.13,3.026,1.13,1.649,0,3.589-.707,5.403-1.956,.532,2.921,1.881,5.147,3.585,6.074v38.602h3.584V50.086c1.706-.926,3.055-3.153,3.586-6.074,2.479,1.708,5.219,2.356,7.064,1.683,.522-.188,.981-.475,1.365-.857,1.775-1.777,1.419-5.18-.825-8.429,3.885-.707,6.543-2.862,6.543-5.376s-2.658-4.672-6.543-5.377Zm-16.606-5.683v-.018c.003-.072,.01-.144,.021-.256,.274-3.488,1.857-6.22,3.604-6.22s3.327,2.732,3.608,6.258c.007,.073,.014,.146,.017,.243,.019,.249,.025,.517,.025,.819,0,.184-.003,.361-.011,.616-.005,.137-.013,.274-.024,.392l-.024,.268c-.016,.172-.033,.342-.063,.537-.015,.159-.043,.315-.076,.508-.031,.185-.067,.367-.108,.55-.037,.17-.079,.34-.12,.497-.053,.181-.106,.363-.181,.596-.617-.297-1.282-.507-1.948-.612-.351-.058-.726-.087-1.098-.087s-.741,.029-1.082,.087c-.682,.106-1.338,.312-1.957,.612l-.018-.049c-.057-.178-.11-.362-.161-.535-.043-.166-.086-.338-.123-.512-.04-.179-.076-.36-.113-.581-.027-.156-.056-.313-.073-.498-.027-.17-.044-.339-.061-.524l-.022-.241c-.011-.131-.02-.268-.024-.479-.008-.18-.011-.358-.011-.542,0-.302,.006-.571,.025-.825Zm-8.79-1.355c1.214-1.212,4.176-.45,6.802,1.727-.004,.146-.007,.297-.007,.453,0,.407,.017,.81,.047,1.209l.032,.364c.044,.449,.112,.888,.203,1.371,.033,.159,.066,.319,.106,.482,.012,.057,.025,.116,.057,.244,.034,.137,.068,.273,.107,.403,.048,.167,.103,.331,.151,.46,.03,.11,.068,.221,.13,.379,.021,.065,.043,.129,.067,.19-.143,.131-.28,.267-.412,.411-.053-.02-.098-.035-.129-.042l-.117-.049c-.105-.039-.214-.077-.291-.096-.159-.057-.323-.112-.488-.16-.125-.037-.253-.069-.381-.101l-.1-.025c-.055-.015-.112-.027-.17-.038-.174-.045-.352-.082-.539-.118-.427-.08-.867-.148-1.315-.192-.122-.012-.243-.024-.364-.033-.4-.029-.804-.047-1.21-.047-.157,0-.309,.001-.455,.005-2.176-2.624-2.936-5.586-1.725-6.8Zm-5.139,12.415c0-1.788,2.913-3.414,6.501-3.625,.252-.019,.52-.024,.819-.024,.183,0,.361,.003,.615,.011,.138,.005,.275,.013,.451,.026l.221,.021c.165,.016,.334,.032,.523,.063,.17,.016,.339,.046,.54,.079,.136,.024,.27,.053,.402,.081l.118,.025c.169,.036,.339,.078,.496,.119,.184,.054,.367,.107,.538,.162l.057,.019c-.297,.616-.507,1.28-.612,1.945-.058,.352-.089,.72-.089,1.098s.03,.746,.088,1.091c.106,.669,.315,1.334,.612,1.95l-.05,.018c-.178,.057-.362,.11-.537,.162-.165,.044-.336,.086-.504,.122l-.118,.025c-.132,.029-.267,.057-.333,.075l-.103,.009c-.17,.03-.341,.057-.537,.08-.156,.026-.32,.042-.487,.059l-.272,.023c-.131,.011-.269,.019-.481,.025-.474,.02-.941,.017-1.383-.014-3.571-.216-6.477-1.842-6.477-3.624Zm12.647,5.671c-.055,.154-.106,.308-.151,.463-.144,.49-.261,1.007-.345,1.526l-.056,.334c-.049,.338-.085,.682-.114,1.028-.015,.188-.026,.38-.036,.654-.006,.188-.011,.371-.011,.559,0,.156,.003,.308,.007,.453-2.624,2.178-5.586,2.937-6.802,1.724-1.212-1.212-.45-4.174,1.726-6.798,.523,.012,1.109,0,1.663-.041,.122-.009,.243-.02,.364-.033,.449-.044,.889-.112,1.35-.198,.167-.034,.336-.068,.505-.111,.057-.011,.114-.024,.164-.037l.11-.028c.126-.032,.253-.063,.372-.099,.167-.048,.331-.103,.457-.149,.111-.03,.221-.068,.38-.131,.067-.02,.131-.043,.192-.066,.131,.144,.268,.28,.412,.411-.071,.181-.136,.365-.188,.539Zm8.533,5.389v.018c-.003,.072-.01,.144-.021,.256-.274,3.488-1.857,6.22-3.604,6.22s-3.327-2.732-3.608-6.257c-.007-.073-.014-.146-.017-.243-.019-.249-.025-.517-.025-.819,0-.365,.014-.732,.046-1.108l.01-.148,.008-.063c.011-.11,.022-.217,.039-.356,.002-.026,.006-.051,.013-.112l.01-.064c.019-.156,.041-.31,.072-.469,.031-.185,.067-.367,.108-.55,.037-.169,.079-.342,.122-.503,.055-.2,.115-.397,.18-.589,.617,.297,1.283,.507,1.947,.612,.7,.116,1.496,.116,2.18,0,.682-.107,1.338-.312,1.957-.612l.018,.049c.055,.173,.107,.352,.161,.535,.043,.166,.086,.338,.123,.512,.04,.179,.076,.36,.113,.579,.027,.157,.056,.315,.073,.5,.027,.169,.044,.339,.061,.523l.022,.241c.011,.131,.02,.268,.024,.479,.008,.18,.011,.358,.011,.542,0,.302-.006,.571-.025,.825Zm-3.625-6.443c-2.546,0-4.617-2.071-4.617-4.617s2.071-4.617,4.617-4.617,4.617,2.071,4.617,4.617-2.071,4.617-4.617,4.617Zm4.753-9.849c.012-.026,.038-.079,.047-.121,.029-.065,.051-.13,.059-.17,.021-.056,.04-.113,.047-.145,.051-.138,.093-.274,.164-.503v-.003c.032-.107,.06-.217,.098-.37l.063-.267c.04-.162,.073-.321,.117-.534,.022-.11,.042-.22,.055-.316l.077-.494c.015-.1,.028-.201,.035-.285l.057-.584c.015-.197,.026-.391,.036-.628,.006-.194,.011-.39,.011-.584,0-.156-.003-.308-.007-.453,2.626-2.178,5.587-2.938,6.802-1.727,1.211,1.214,.45,4.176-1.725,6.8-.523-.014-1.11,.001-1.664,.042-.122,.009-.243,.02-.364,.033-.449,.044-.889,.112-1.319,.192-.184,.036-.361,.072-.536,.117-.057,.011-.114,.024-.164,.037l-.105,.026c-.128,.032-.255,.065-.379,.101-.167,.049-.331,.103-.456,.149-.111,.03-.221,.068-.38,.131-.061,.019-.122,.04-.191,.066-.132-.143-.27-.28-.412-.412,.014-.038,.025-.071,.033-.099Zm7.662,17.643c-1.216,1.212-4.177,.453-6.802-1.724,.004-.146,.007-.297,.007-.453,0-.407-.017-.81-.047-1.209l-.032-.364c-.044-.448-.112-.888-.192-1.32-.037-.183-.073-.36-.117-.533-.012-.057-.025-.116-.057-.244-.034-.137-.068-.273-.107-.404-.047-.166-.102-.33-.15-.46-.03-.11-.068-.22-.13-.379-.02-.061-.04-.121-.066-.189,.143-.132,.28-.269,.411-.412,.052,.02,.098,.035,.129,.042l.117,.049c.105,.039,.214,.077,.291,.096,.16,.057,.324,.112,.487,.159,.123,.037,.25,.069,.376,.1l.106,.026c.055,.015,.112,.027,.17,.038,.174,.045,.352,.081,.539,.118,.427,.08,.867,.147,1.315,.191,.122,.012,.243,.024,.364,.033,.555,.04,1.142,.053,1.664,.041,2.177,2.624,2.938,5.586,1.726,6.798Zm-1.355-8.788h-.007c-.403,.031-.758,.036-1.434,.014-.138-.005-.275-.013-.467-.031l-.216-.017c-.162-.017-.326-.033-.506-.062-.172-.019-.344-.046-.547-.079-.136-.024-.27-.053-.402-.082l-.118-.025c-.168-.036-.338-.077-.494-.12-.187-.054-.37-.107-.54-.161l-.057-.02c.297-.615,.507-1.279,.612-1.944,.059-.352,.089-.721,.089-1.098,0-.381-.03-.748-.088-1.085-.106-.682-.312-1.339-.612-1.958l.05-.017c.177-.057,.361-.11,.541-.162,.162-.044,.333-.085,.5-.121l.118-.025c.132-.029,.267-.057,.333-.075l.103-.009c.168-.03,.337-.06,.537-.08,.159-.027,.328-.043,.532-.063l.227-.019c.131-.011,.269-.019,.481-.025,.479-.022,.944-.018,1.383,.014,3.571,.216,6.477,1.842,6.477,3.625s-2.914,3.411-6.494,3.624Z"/><path class="b" d="M17.368,65.905h-5.791v22.782h5.791c2.176,0,3.488-.832,4.416-1.888,1.536-1.696,1.664-4.288,1.664-9.535s-.128-7.775-1.664-9.472c-.928-1.056-2.24-1.888-4.416-1.888Zm1.729,18.622c-.353,.544-.96,.929-1.824,.929h-2.112v-16.319h2.112c.864,0,1.472,.384,1.824,.928,.703,1.057,.768,3.232,.768,7.2s-.064,6.207-.768,7.263Z"/><polygon class="b" points="31.288 74.929 29.048 65.905 25.08 65.905 29.496 79.76 29.496 88.688 33.079 88.688 33.079 79.76 37.496 65.905 33.56 65.905 31.288 74.929"/><polygon class="b" points="48.631 79.44 43.288 65.905 40.087 65.905 40.087 88.688 43.671 88.688 43.671 75.152 49.047 88.688 52.214 88.688 52.214 65.905 48.631 65.905 48.631 79.44"/><path class="b" d="M60.536,65.905l-5.6,22.782h3.775l.896-4.512h5.28l.928,4.512h3.743l-5.535-22.782h-3.487Zm-.225,15.039l1.952-9.535,1.952,9.535h-3.904Z"/><polygon class="b" points="79.958 77.872 75.543 65.905 72.311 65.905 72.311 88.688 75.895 88.688 75.895 74.641 78.934 83.824 80.918 83.824 84.022 74.48 84.022 88.688 87.606 88.688 87.606 65.905 84.342 65.905 79.958 77.872"/><path class="b" d="M107.702,75.984l-2.688-1.088c-1.6-.64-1.888-1.216-1.888-3.071,0-.992,.192-1.761,.608-2.24,.352-.384,.8-.64,1.535-.64,.769,0,1.28,.256,1.601,.672,.479,.607,.544,1.407,.544,2.432h3.583c0-2.176-.415-3.808-1.6-4.96-.928-.896-2.271-1.376-4.096-1.376-1.632,0-2.911,.513-3.903,1.376-1.248,1.12-1.856,2.784-1.856,4.832,0,3.52,.864,4.768,3.168,5.728l2.72,1.12c1.76,.704,2.145,1.312,2.145,3.743,0,1.216-.129,1.984-.608,2.528-.352,.416-.896,.64-1.728,.64-.8,0-1.344-.256-1.664-.608-.512-.575-.64-1.344-.64-2.56h-3.584c0,2.4,.384,3.808,1.472,4.896,.96,.96,2.432,1.504,4.416,1.504,2.016,0,3.52-.607,4.447-1.504,1.152-1.119,1.472-2.688,1.472-5.023,0-3.84-.735-5.279-3.455-6.399Z"/><path class="b" d="M120.407,68.881c.864,0,1.376,.32,1.695,.832,.385,.544,.513,1.376,.544,2.208h3.584c-.063-2.016-.672-3.744-1.823-4.8-1.024-.96-2.272-1.472-4-1.472-2.112,0-3.488,.832-4.416,1.951-1.504,1.792-1.664,4.288-1.664,9.695s.16,7.904,1.664,9.695c.928,1.12,2.304,1.952,4.416,1.952,1.728,0,2.912-.479,3.936-1.439,1.152-1.057,1.824-2.816,1.888-4.864h-3.584c-.031,.832-.159,1.664-.544,2.24-.319,.512-.831,.832-1.695,.832s-1.376-.353-1.696-.864c-.704-1.088-.8-3.392-.8-7.552s.096-6.463,.8-7.551c.32-.513,.832-.864,1.696-.864Z"/><polygon class="b" points="137.909 65.905 137.909 75.505 133.461 75.505 133.461 65.905 129.877 65.905 129.877 88.688 133.461 88.688 133.461 78.736 137.909 78.736 137.909 88.688 141.493 88.688 141.493 65.905 137.909 65.905"/></g><g><path class="b" d="M27.489,56.589c-1.633,1.633-3.973,2.45-7.621,2.45H10.233V20.281h9.689c3.593,0,5.933,.762,7.513,2.395,1.796,1.796,2.45,3.755,2.45,7.947,0,2.776-.435,4.899-2.231,6.751-.545,.544-1.198,1.034-2.014,1.361,.816,.381,1.578,.87,2.123,1.415,1.796,1.85,2.231,4.191,2.231,7.784,0,4.573-.653,6.751-2.504,8.656Zm-8.111-30.81h-3.049v10.506h3.049c3.157,0,4.41-1.579,4.41-5.28,0-3.811-1.252-5.226-4.41-5.226Zm-.109,15.677h-2.94v12.084h2.94c3.266,0,4.627-1.524,4.627-6.042,0-4.3-1.361-6.042-4.627-6.042Z"/><path class="b" d="M37.012,59.039V20.281h6.096V59.039h-6.096Z"/><path class="b" d="M67.548,56.154c-1.579,1.905-3.919,3.32-7.513,3.32s-5.933-1.415-7.511-3.32c-2.559-3.103-2.83-7.295-2.83-16.495s.271-13.391,2.83-16.493c1.578-1.905,3.919-3.32,7.511-3.32s5.933,1.415,7.513,3.32c2.612,3.049,2.83,7.294,2.83,16.493s-.218,13.447-2.83,16.495Zm-4.572-29.341c-.545-.872-1.47-1.471-2.94-1.471s-2.34,.599-2.885,1.471c-1.143,1.85-1.361,5.77-1.361,12.846s.218,10.997,1.361,12.847c.545,.872,1.415,1.47,2.885,1.47s2.395-.598,2.94-1.47c1.143-1.85,1.307-5.77,1.307-12.847s-.164-10.995-1.307-12.846Z"/></g></svg>