<?xml version="1.0" encoding="UTF-8"?><svg id="a" xmlns="http://www.w3.org/2000/svg" viewBox="0 0 153.071 102.047"><defs><style>.b{fill:#fff;}.c{fill:#5a372c;}</style></defs><rect class="c" y="0" width="153.07" height="102.047"/><g><path class="b" d="M20.462,88.379l-3.549-11.241h-2.404v11.241h-4.275v-27.411h6.87c4.962,0,6.947,2.425,6.947,8.084,0,3.388-.687,5.813-3.168,7.161l4.046,12.166h-4.466Zm-3.32-23.522h-2.633v8.393h2.633c2.29,0,2.633-1.925,2.633-4.196s-.344-4.196-2.633-4.196Z"/><path class="b" d="M29.241,88.379v-27.411h11.412v3.888h-7.136v7.777h6.144v3.888h-6.144v7.969h7.136v3.888h-11.412Z"/><path class="b" d="M51.646,88.688c-2.518,0-4.16-1.001-5.267-2.349-1.794-2.156-1.985-5.159-1.985-11.665s.191-9.509,1.985-11.665c1.107-1.348,2.749-2.348,5.267-2.348,2.1,0,3.702,.693,4.848,1.848,1.336,1.386,2.022,3.388,2.099,5.736h-4.274c-.038-1.501-.344-3.696-2.672-3.696-1.03,0-1.641,.423-2.022,1.04-.839,1.309-.954,4.081-.954,9.085s.114,7.776,.954,9.085c.381,.616,.992,1.04,2.022,1.04,1.87,0,2.672-1.617,2.672-3.503v-4.273h-2.672v-3.542h6.947v7.584c0,5.004-2.862,7.623-6.947,7.623Z"/><path class="b" d="M63.249,88.379v-27.411h4.275v27.411h-4.275Z"/><path class="b" d="M84.662,86.339c-1.108,1.348-2.749,2.349-5.268,2.349s-4.16-1.001-5.267-2.349c-1.794-2.194-1.985-5.159-1.985-11.665s.191-9.471,1.985-11.665c1.107-1.348,2.749-2.348,5.267-2.348s4.16,1,5.268,2.348c1.832,2.156,1.985,5.159,1.985,11.665s-.153,9.509-1.985,11.665Zm-3.207-20.75c-.381-.616-1.03-1.04-2.061-1.04s-1.641,.423-2.022,1.04c-.802,1.309-.954,4.081-.954,9.085s.152,7.776,.954,9.085c.381,.616,.992,1.04,2.022,1.04s1.68-.424,2.061-1.04c.802-1.309,.916-4.081,.916-9.085s-.114-7.777-.916-9.085Z"/><path class="b" d="M101.95,88.379l-6.411-16.285v16.285h-4.275v-27.411h3.817l6.373,16.285v-16.285h4.274v27.411h-3.779Z"/><path class="b" d="M121.951,88.379l-1.108-5.428h-6.297l-1.069,5.428h-4.504l6.679-27.411h4.16l6.603,27.411h-4.465Zm-4.237-20.789l-2.328,11.473h4.656l-2.327-11.473Z"/><path class="b" d="M129.698,88.379v-27.411h4.275v23.522h7.136v3.888h-11.412Z"/></g><path class="b" d="M65.217,55.411l-.818-1.293c-.543-.857-13.279-21.069-13.279-28.514,0-7.773,6.324-14.097,14.097-14.097s14.096,6.324,14.096,14.097c0,7.445-12.735,27.658-13.278,28.514l-.818,1.293Zm0-41.967c-6.705,0-12.16,5.455-12.16,12.16,0,5.863,9.31,21.506,12.16,26.158,2.85-4.652,12.159-20.295,12.159-26.158,0-6.705-5.455-12.16-12.159-12.16Z"/><circle class="b" cx="65.217" cy="25.73" r="5.98"/></svg>