<?xml version="1.0" encoding="UTF-8"?><svg id="Ebene_1" xmlns="http://www.w3.org/2000/svg" viewBox="0 0 153.071 102.047"><defs><style>.cls-1{fill:#fff;}.cls-2{fill:#5d0d30;}</style></defs><rect class="cls-2" x="0" y="0" width="153.071" height="102.047"/><path class="cls-1" d="m27.234,82.455c-1.582,1.849-3.818,3.306-7.528,3.306h-9.873v-39.894h9.873c3.71,0,5.946,1.457,7.528,3.306,2.618,2.97,2.836,7.396,2.836,16.585s-.218,13.728-2.836,16.697Zm-4.582-29.304c-.601-.953-1.637-1.625-3.109-1.625h-3.601v28.575h3.601c1.473,0,2.509-.672,3.109-1.625,1.199-1.849,1.309-5.771,1.309-12.719s-.109-10.758-1.309-12.606Z"/><path class="cls-1" d="m35.468,85.761v-39.894h6.109v39.894h-6.109Z"/><path class="cls-1" d="m63.287,85.761l-9.164-23.701v23.701h-6.109v-39.894h5.455l9.109,23.701v-23.701h6.109v39.894h-5.4Z"/><path class="cls-1" d="m90.395,85.761l-9.164-23.701v23.701h-6.109v-39.894h5.454l9.11,23.701v-23.701h6.109v39.894h-5.4Z"/><path class="cls-1" d="m102.23,85.761v-39.894h16.311v5.659h-10.201v11.318h8.782v5.659h-8.782v11.598h10.201v5.659h-16.311Z"/><path class="cls-1" d="m138.339,85.761l-5.073-16.36h-3.437v16.36h-6.109v-39.894h9.818c7.092,0,9.929,3.53,9.929,11.767,0,4.931-.982,8.46-4.528,10.421l5.782,17.706h-6.382Zm-4.746-34.234h-3.764v12.215h3.764c3.273,0,3.764-2.802,3.764-6.107s-.49-6.107-3.764-6.107Z"/><path class="cls-1" d="m18.271,35.025c-.799.946-1.928,1.692-3.801,1.692h-4.985v-20.425h4.985c1.873,0,3.002.746,3.801,1.692,1.322,1.521,1.433,3.787,1.433,8.491s-.11,7.028-1.433,8.549Zm-2.313-15.003c-.303-.488-.826-.832-1.57-.832h-1.817v14.63h1.817c.744,0,1.268-.344,1.57-.832.605-.946.661-2.955.661-6.512s-.056-5.508-.661-6.454Z"/><path class="cls-1" d="m30.169,36.718l-.799-4.045h-4.544l-.771,4.045h-3.25l4.82-20.425h3.002l4.765,20.425h-3.223Zm-3.057-15.491l-1.681,8.548h3.36l-1.68-8.548Z"/><path class="cls-1" d="m43.527,35.57c-.799.803-2.094,1.348-3.829,1.348-1.707,0-2.974-.488-3.801-1.348-.936-.976-1.267-2.237-1.267-4.389h3.085c0,1.09.11,1.779.551,2.295.275.316.743.545,1.432.545.717,0,1.185-.201,1.487-.574.414-.487.523-1.176.523-2.266,0-2.18-.33-2.725-1.845-3.356l-2.342-1.004c-1.982-.86-2.727-1.979-2.727-5.135,0-1.836.523-3.328,1.598-4.332.854-.774,1.956-1.233,3.36-1.233,1.569,0,2.727.43,3.525,1.233,1.019,1.033,1.377,2.496,1.377,4.446h-3.085c0-.918-.055-1.635-.468-2.18-.275-.373-.716-.603-1.377-.603-.634,0-1.02.229-1.322.574-.358.431-.523,1.119-.523,2.008,0,1.664.248,2.18,1.625,2.754l2.313.975c2.341,1.004,2.975,2.295,2.975,5.737,0,2.094-.275,3.5-1.267,4.504Z"/><path class="cls-1" d="m57.298,28.714h-1.846v8.003h-3.085v-20.425h4.931c3.553,0,5.04,1.951,5.04,6.225s-1.487,6.196-5.04,6.196Zm-.11-9.524h-1.735v6.626h1.735c1.652,0,2.065-1.233,2.065-3.299s-.413-3.328-2.065-3.328Z"/><path class="cls-1" d="m64.982,36.718v-20.425h8.235v2.897h-5.15v5.794h4.435v2.897h-4.435v5.938h5.15v2.897h-8.235Z"/><path class="cls-1" d="m83.244,36.718l-2.562-8.376h-1.735v8.376h-3.085v-20.425h4.958c3.58,0,5.013,1.807,5.013,6.024,0,2.524-.496,4.332-2.286,5.335l2.919,9.065h-3.222Zm-2.396-17.527h-1.9v6.253h1.9c1.652,0,1.9-1.434,1.9-3.126s-.248-3.127-1.9-3.127Z"/><path class="cls-1" d="m92.085,19.19v5.794h4.435v2.897h-4.435v8.835h-3.085v-20.425h8.235v2.897h-5.15Z"/><path class="cls-1" d="m99.713,36.718v-20.425h8.235v2.897h-5.15v5.794h4.435v2.897h-4.435v5.938h5.15v2.897h-8.235Z"/><path class="cls-1" d="m118.333,36.718l-3.167-8.405-1.487,3.156v5.25h-3.085v-20.425h3.085v9.61l4.269-9.61h3.112l-3.938,8.462,4.545,11.962h-3.333Z"/><path class="cls-1" d="m128.771,19.19v17.527h-3.085v-17.527h-3.277v-2.897h9.668v2.897h-3.306Z"/><path class="cls-1" d="m134.28,36.718v-20.425h8.235v2.897h-5.15v5.794h4.435v2.897h-4.435v5.938h5.15v2.897h-8.235Z"/></svg>