<?xml version="1.0" encoding="utf-8"?>
<!-- Generator: Adobe Illustrator 24.3.0, SVG Export Plug-In . SVG Version: 6.00 Build 0)  -->
<svg version="1.1" id="Ebene_1" xmlns="http://www.w3.org/2000/svg" xmlns:xlink="http://www.w3.org/1999/xlink" x="0px" y="0px"
	 viewBox="0 0 65.6 43.7" style="enable-background:new 0 0 65.6 43.7;" xml:space="preserve">
<style type="text/css">
	.st0{fill:#C6B47F;}
	.st1{fill:#FFFFFF;}
</style>
<rect class="st0" width="65.6" height="43.7"/>
<g>
	<path class="st1" d="M6.7,22.6V6H9v7.6h0L12.5,6h2.4l-3.2,6.7l3.8,10H13l-2.7-7.4L9,17.7v5H6.7z"/>
	<path class="st1" d="M15.5,22.6L19.2,6h2l3.7,16.7h-2.4l-0.7-3.6h-3.2l-0.7,3.6H15.5z M21.3,16.8l-1.2-6h0l-1.2,6H21.3z"/>
	<path class="st1" d="M26,22.6V6h7.1v2.2h-4.7v5.1h4.1v2.2h-4.1v7.1H26z"/>
	<path class="st1" d="M34.6,22.6V6h7.1v2.2H37v5.1h4.1v2.2H37v7.1H34.6z"/>
	<path class="st1" d="M43.2,22.6V6h7.1v2.2h-4.7v4.9h4.1v2.2h-4.1v4.9h4.7v2.4H43.2z"/>
	<path class="st1" d="M51.8,22.6V6h7.1v2.2h-4.7v4.9h4.1v2.2h-4.1v4.9h4.7v2.4H51.8z"/>
	<path class="st1" d="M6.2,37.4V27h2.1c0.8,0,1.4,0.2,1.8,0.7c0.4,0.5,0.6,1.1,0.6,2v4.9c0,1-0.2,1.7-0.7,2.2
		c-0.4,0.5-1.1,0.7-1.9,0.7H6.2z M7.6,28.4V36h0.6c0.4,0,0.7-0.1,0.8-0.3c0.2-0.2,0.2-0.5,0.2-1v-5c0-0.4-0.1-0.7-0.2-1
		c-0.2-0.2-0.4-0.3-0.8-0.3H7.6z"/>
	<path class="st1" d="M12,37.4V27h4.2v1.4h-2.8v3.1h2.4v1.4h-2.4v3.1h2.8v1.5H12z"/>
	<path class="st1" d="M21.6,30h-1.4v-0.3c0-0.3-0.1-0.6-0.2-0.9c-0.2-0.2-0.4-0.4-0.8-0.4c-0.2,0-0.3,0-0.5,0.1s-0.2,0.2-0.3,0.3
		c-0.1,0.1-0.1,0.3-0.2,0.4s0,0.3,0,0.5c0,0.2,0,0.4,0,0.5s0,0.3,0.1,0.4c0.1,0.1,0.1,0.2,0.2,0.3s0.2,0.2,0.4,0.2l1.1,0.5
		c0.3,0.1,0.6,0.3,0.8,0.4c0.2,0.2,0.3,0.4,0.5,0.6c0.1,0.2,0.2,0.5,0.2,0.8c0,0.3,0.1,0.6,0.1,1c0,0.4,0,0.8-0.1,1.2
		c-0.1,0.4-0.2,0.7-0.4,1c-0.2,0.3-0.4,0.5-0.8,0.6c-0.3,0.2-0.7,0.2-1.1,0.2c-0.3,0-0.7-0.1-0.9-0.2c-0.3-0.1-0.5-0.3-0.8-0.5
		S17.1,36.3,17,36c-0.1-0.3-0.2-0.6-0.2-1v-0.6h1.4V35c0,0.3,0.1,0.5,0.2,0.7c0.2,0.2,0.4,0.3,0.8,0.3c0.2,0,0.4,0,0.6-0.1
		s0.2-0.2,0.3-0.3c0.1-0.1,0.1-0.3,0.1-0.5s0-0.4,0-0.6c0-0.3,0-0.5,0-0.7c0-0.2-0.1-0.3-0.1-0.4c-0.1-0.1-0.1-0.2-0.3-0.3
		s-0.2-0.1-0.4-0.2l-1-0.4c-0.6-0.3-1-0.6-1.2-1s-0.3-1-0.3-1.6c0-0.4,0.1-0.8,0.2-1.1c0.1-0.4,0.3-0.7,0.5-0.9
		c0.2-0.3,0.4-0.5,0.7-0.6c0.3-0.2,0.6-0.2,1.1-0.2c0.3,0,0.7,0.1,1,0.2s0.5,0.3,0.7,0.5c0.4,0.5,0.6,1,0.6,1.6V30z"/>
	<path class="st1" d="M25.2,37.4V27h1.3l1.8,5.5h0l1.8-5.5h1.4v10.4h-1.4v-6.3h0l-1.4,4.5H28l-1.4-4.5h0v6.3H25.2z"/>
	<path class="st1" d="M32.7,29.5c0-0.4,0.1-0.8,0.2-1.1c0.1-0.3,0.3-0.6,0.5-0.8c0.2-0.2,0.5-0.4,0.7-0.5c0.3-0.1,0.6-0.2,0.8-0.2
		c0.3,0,0.6,0.1,0.8,0.2c0.3,0.1,0.5,0.3,0.8,0.5c0.2,0.2,0.4,0.5,0.5,0.8c0.1,0.3,0.2,0.7,0.2,1.1V35c0,0.4-0.1,0.8-0.2,1.1
		c-0.1,0.3-0.3,0.6-0.5,0.8c-0.2,0.2-0.5,0.4-0.8,0.5c-0.3,0.1-0.6,0.2-0.8,0.2c-0.3,0-0.6-0.1-0.8-0.2c-0.3-0.1-0.5-0.3-0.7-0.5
		c-0.2-0.2-0.4-0.5-0.5-0.8c-0.1-0.3-0.2-0.7-0.2-1.1V29.5z M34.1,35c0,0.4,0.1,0.6,0.3,0.8c0.2,0.2,0.4,0.3,0.7,0.3
		c0.3,0,0.5-0.1,0.7-0.3c0.2-0.2,0.3-0.4,0.3-0.8v-5.5c0-0.4-0.1-0.6-0.3-0.8c-0.2-0.2-0.4-0.3-0.7-0.3c-0.3,0-0.5,0.1-0.7,0.3
		c-0.2,0.2-0.3,0.4-0.3,0.8V35z"/>
	<path class="st1" d="M38.6,37.4V27h1.3l2.1,6.3h0V27h1.4v10.4h-1.3L40,31.2h0v6.3H38.6z"/>
	<path class="st1" d="M44.1,37.4L46.3,27h1.2l2.2,10.4h-1.4l-0.4-2.2h-1.9l-0.4,2.2H44.1z M47.5,33.8L46.9,30h0l-0.7,3.8H47.5z"/>
	<path class="st1" d="M50.5,37.4v-9h-1.6V27h4.6v1.4h-1.6v9H50.5z"/>
	<path class="st1" d="M58.6,30h-1.4v-0.3c0-0.3-0.1-0.6-0.2-0.9c-0.2-0.2-0.4-0.4-0.8-0.4c-0.2,0-0.3,0-0.5,0.1s-0.2,0.2-0.3,0.3
		c-0.1,0.1-0.1,0.3-0.2,0.4c0,0.2,0,0.3,0,0.5c0,0.2,0,0.4,0,0.5c0,0.1,0,0.3,0.1,0.4c0.1,0.1,0.1,0.2,0.2,0.3
		c0.1,0.1,0.2,0.2,0.4,0.2l1.1,0.5c0.3,0.1,0.6,0.3,0.8,0.4s0.3,0.4,0.5,0.6c0.1,0.2,0.2,0.5,0.2,0.8c0,0.3,0.1,0.6,0.1,1
		c0,0.4,0,0.8-0.1,1.2c-0.1,0.4-0.2,0.7-0.4,1c-0.2,0.3-0.4,0.5-0.8,0.6c-0.3,0.2-0.7,0.2-1.1,0.2c-0.3,0-0.7-0.1-0.9-0.2
		c-0.3-0.1-0.5-0.3-0.8-0.5S54.1,36.3,54,36c-0.1-0.3-0.2-0.6-0.2-1v-0.6h1.4V35c0,0.3,0.1,0.5,0.2,0.7c0.2,0.2,0.4,0.3,0.8,0.3
		c0.2,0,0.4,0,0.6-0.1c0.1-0.1,0.2-0.2,0.3-0.3s0.1-0.3,0.1-0.5s0-0.4,0-0.6c0-0.3,0-0.5,0-0.7c0-0.2-0.1-0.3-0.1-0.4
		c-0.1-0.1-0.1-0.2-0.3-0.3c-0.1-0.1-0.2-0.1-0.4-0.2l-1-0.4c-0.6-0.3-1-0.6-1.2-1s-0.3-1-0.3-1.6c0-0.4,0-0.8,0.2-1.1
		c0.1-0.4,0.3-0.7,0.5-0.9c0.2-0.3,0.4-0.5,0.7-0.6c0.3-0.2,0.7-0.2,1.1-0.2c0.3,0,0.7,0.1,1,0.2s0.5,0.3,0.7,0.5
		c0.4,0.5,0.6,1,0.6,1.6V30z"/>
</g>
</svg>
