<?xml version="1.0" encoding="UTF-8"?><svg id="Ebene_1" xmlns="http://www.w3.org/2000/svg" viewBox="0 0 153.071 102.047"><defs><style>.cls-1{fill:#fff;}.cls-2{fill:#5d0d30;}</style></defs><rect class="cls-2" y="0" width="153.071" height="102.047"/><path class="cls-1" d="m21.784,36.16c-.861.832-2.259,1.397-4.128,1.397-1.843,0-3.209-.505-4.099-1.397-1.011-1.01-1.366-2.316-1.366-4.544h3.325c0,1.129.119,1.842.595,2.376.297.328.803.565,1.545.565.771,0,1.277-.208,1.603-.594.445-.505.563-1.218.563-2.347,0-2.256-.356-2.821-1.99-3.474l-2.525-1.04c-2.138-.891-2.938-2.05-2.938-5.317,0-1.901.563-3.445,1.722-4.485.921-.802,2.109-1.277,3.623-1.277,1.693,0,2.941.446,3.802,1.277,1.1,1.07,1.485,2.584,1.485,4.603h-3.325c0-.95-.06-1.693-.505-2.256-.297-.387-.771-.624-1.485-.624-.684,0-1.1.237-1.427.594-.385.446-.563,1.158-.563,2.08,0,1.722.268,2.256,1.753,2.851l2.493,1.01c2.525,1.039,3.209,2.376,3.209,5.94,0,2.168-.297,3.624-1.366,4.663Z"/><path class="cls-1" d="m35.244,35.774c-.861,1.04-2.138,1.813-4.099,1.813s-3.238-.773-4.099-1.813c-1.395-1.693-1.543-3.979-1.543-8.999s.148-7.307,1.543-9c.861-1.039,2.138-1.811,4.099-1.811s3.238.773,4.099,1.811c1.424,1.664,1.543,3.981,1.543,9s-.119,7.336-1.543,8.999Zm-2.496-16.008c-.297-.475-.8-.802-1.603-.802s-1.277.326-1.574.802c-.624,1.01-.742,3.149-.742,7.01s.119,5.999.742,7.01c.297.474.771.802,1.574.802s1.306-.328,1.603-.802c.624-1.011.713-3.149.713-7.01s-.089-6-.713-7.01Z"/><path class="cls-1" d="m50.666,37.349v-13.187l-2.88,8.673h-1.843l-2.822-8.525v13.039h-3.325v-21.147h2.999l4.099,11.109,4.07-11.109h3.028v21.147h-3.325Z"/><path class="cls-1" d="m68.436,37.349v-13.187l-2.88,8.673h-1.843l-2.822-8.525v13.039h-3.325v-21.147h2.999l4.099,11.109,4.07-11.109h3.028v21.147h-3.325Z"/><path class="cls-1" d="m75.336,37.349v-21.147h8.88v3h-5.555v6h4.784v3h-4.784v6.148h5.555v3h-8.88Z"/><path class="cls-1" d="m87.104,37.349v-21.147h3.325v18.147h5.555v3h-8.88Z"/><path class="cls-1" d="m98.485,37.349v-21.147h3.325v21.147h-3.325Z"/><path class="cls-1" d="m105.379,37.349v-21.147h8.88v3h-5.555v6h4.784v3h-4.784v6.148h5.555v3h-8.88Z"/><path class="cls-1" d="m125.106,37.349l-2.762-8.672h-1.872v8.672h-3.325v-21.147h5.345c3.862,0,5.407,1.872,5.407,6.238,0,2.613-.534,4.485-2.467,5.524l3.149,9.386h-3.475Zm-2.583-18.147h-2.051v6.475h2.051c1.782,0,2.048-1.485,2.048-3.237s-.266-3.238-2.048-3.238Z"/><path class="cls-1" d="m140.204,36.16c-.861.832-2.259,1.397-4.128,1.397-1.843,0-3.209-.505-4.099-1.397-1.011-1.01-1.366-2.316-1.366-4.544h3.325c0,1.129.119,1.842.595,2.376.297.328.803.565,1.545.565.771,0,1.277-.208,1.603-.594.445-.505.563-1.218.563-2.347,0-2.256-.356-2.821-1.99-3.474l-2.525-1.04c-2.138-.891-2.938-2.05-2.938-5.317,0-1.901.563-3.445,1.722-4.485.921-.802,2.109-1.277,3.623-1.277,1.693,0,2.941.446,3.802,1.277,1.1,1.07,1.485,2.584,1.485,4.603h-3.325c0-.95-.06-1.693-.505-2.256-.297-.387-.771-.624-1.485-.624-.684,0-1.1.237-1.427.594-.385.446-.563,1.158-.563,2.08,0,1.722.268,2.256,1.753,2.851l2.493,1.01c2.525,1.039,3.209,2.376,3.209,5.94,0,2.168-.297,3.624-1.366,4.663Z"/><path class="cls-1" d="m27.505,83.726c-1.759,1.649-3.793,2.473-6.759,2.473-3.627,0-5.99-1.429-7.585-3.351-2.583-3.078-2.856-7.366-2.856-16.651s.273-13.574,2.856-16.651c1.595-1.923,3.959-3.352,7.585-3.352,2.966,0,5.11.879,6.868,2.528,1.978,1.813,3.022,4.78,3.132,8.241h-6.154c-.056-1.427-.276-2.856-.934-3.79-.549-.879-1.429-1.429-2.912-1.429s-2.363.605-2.912,1.484c-1.21,1.868-1.376,5.826-1.376,12.969s.166,11.1,1.376,12.968c.549.878,1.427,1.483,2.912,1.483s2.363-.549,2.912-1.427c.659-.99.878-2.42.934-3.849h6.154c-.11,3.517-1.263,6.541-3.241,8.354Z"/><path class="cls-1" d="m49.702,85.761v-17.09h-7.639v17.09h-6.154v-39.128h6.154v16.487h7.639v-16.487h6.156v39.128h-6.156Z"/><path class="cls-1" d="m79.429,82.848c-1.593,1.922-3.956,3.351-7.583,3.351s-5.99-1.429-7.585-3.351c-2.583-3.134-2.856-7.366-2.856-16.651s.273-13.519,2.856-16.651c1.595-1.923,3.959-3.352,7.585-3.352s5.99,1.429,7.583,3.352c2.639,3.077,2.859,7.363,2.859,16.651s-.22,13.573-2.859,16.651Zm-4.617-29.621c-.549-.879-1.483-1.484-2.966-1.484s-2.363.605-2.912,1.484c-1.156,1.868-1.376,5.826-1.376,12.969s.22,11.1,1.376,12.968c.549.878,1.427,1.483,2.912,1.483s2.417-.605,2.966-1.483c1.156-1.868,1.32-5.824,1.32-12.968s-.163-11.101-1.32-12.969Z"/><path class="cls-1" d="m87.832,85.761v-39.128h6.154v39.128h-6.154Z"/><path class="cls-1" d="m116.736,83.726c-1.759,1.649-3.793,2.473-6.759,2.473-3.627,0-5.99-1.429-7.585-3.351-2.583-3.078-2.856-7.366-2.856-16.651s.273-13.574,2.856-16.651c1.595-1.923,3.959-3.352,7.585-3.352,2.966,0,5.11.879,6.868,2.528,1.978,1.813,3.022,4.78,3.132,8.241h-6.154c-.056-1.427-.276-2.856-.934-3.79-.549-.879-1.429-1.429-2.912-1.429s-2.363.605-2.912,1.484c-1.21,1.868-1.376,5.826-1.376,12.969s.166,11.1,1.376,12.968c.549.878,1.427,1.483,2.912,1.483s2.363-.549,2.912-1.427c.659-.99.878-2.42.934-3.849h6.154c-.11,3.517-1.263,6.541-3.241,8.354Z"/><path class="cls-1" d="m125.139,85.761v-39.128h16.432v5.551h-10.278v11.099h8.849v5.551h-8.849v11.376h10.278v5.551h-16.432Z"/></svg>