<svg id="Ebene_1" data-name="Ebene 1" xmlns="http://www.w3.org/2000/svg" viewBox="0 0 200 200"><defs><style>.cls-1{fill:#fff;}</style></defs><path class="cls-1" d="M143.237,38.15H27.209l29.6,37,0,.014,6.263,31.286V131.7L49.417,200h98.534l-13.66-68.3V106.451l12.575-62.877,19.795-9.9v72.45h6.474V23.2Zm-15.42,90.636H69.551V109.364h58.266Zm-32.37,6.474v58.266H79.612l6-58.266Zm6.474,0h9.838l6,58.266H101.921ZM85.609,102.89l-6-58.266H95.447V102.89Zm16.312,0V44.624h15.835l-6,58.266ZM40.679,44.624H50.712l3.35,16.719,0,.014Zm16.636,0h15.79l6,58.266H68.969ZM68.969,135.26H79.1l-6,58.266H57.315Zm71.084,58.266H124.264l-6-58.266H128.4ZM128.4,102.89H118.266l6-58.266h15.789Z"/><rect class="cls-1" x="53.366" y="25.202" width="90.636" height="6.474"/><path class="cls-1" d="M98.684,19.537a9.711,9.711,0,1,0-9.711-9.711A9.718,9.718,0,0,0,98.684,19.537Zm0-12.948a3.237,3.237,0,1,1-3.237,3.237A3.247,3.247,0,0,1,98.684,6.589Z"/></svg>