<svg id="Ebene_1" data-name="Ebene 1" xmlns="http://www.w3.org/2000/svg" viewBox="0 0 200 200"><defs><style>.cls-1{fill:#fff;}</style></defs><path class="cls-1" d="M139.907,128.754c-9.951-16.825-9.951-42.185,0-58.994L174.226-.408H23.434L57.622,69.629l.13.228c9.935,16.793,9.935,42.1-.016,58.93l-31.859,55c-2.313,3.909-2.606,7.965-.782,11.157,1.792,3.16,5.424,4.985,9.936,4.985h127.6c4.528,0,8.16-1.808,9.952-4.952,1.808-3.16,1.514-7.2-.782-11.059ZM125.949,95.69H71.694A67.378,67.378,0,0,0,68.4,77.773h60.8A67.987,67.987,0,0,0,125.949,95.69Zm-54.222,6.515h54.189a67.729,67.729,0,0,0,3.632,19.545H68.1A67.194,67.194,0,0,0,71.727,102.205ZM33.858,6.107H163.8L134.239,66.551c-.9,1.515-1.71,3.095-2.459,4.707H65.831a51.368,51.368,0,0,0-2.411-4.609ZM166.929,191.739c-.6,1.075-2.167,1.677-4.3,1.677H35.031c-2.1,0-3.665-.619-4.284-1.694-.619-1.091-.359-2.768.749-4.642l31.859-55c.733-1.238,1.417-2.509,2.036-3.812h66.861c.635,1.287,1.3,2.558,2.036,3.779l31.892,55.167C167.255,189.035,167.531,190.68,166.929,191.739Z"/></svg>