<svg id="Ebene_1" data-name="Ebene 1" xmlns="http://www.w3.org/2000/svg" viewBox="0 0 200 200"><defs><style>.cls-1{fill:#fff;}</style></defs><path class="cls-1" d="M136.632,67.206V38.057H37.457L52.421,67.968V200h84.211V73.684h19.433v61.539h6.478V67.206Zm-6.478,8.347H116.08V44.534h14.074Zm-50.181,7H109.08v58.829H79.973Zm0-7V44.534H109.08V75.553ZM47.952,44.534H72.973V75.553H58.9V66.445ZM58.9,193.522V82.553H72.973v65.829H116.08V82.553h14.074V193.522Z"/><rect class="cls-1" x="55.66" y="25.101" width="77.733" height="6.478"/><path class="cls-1" d="M94.526,19.433A9.717,9.717,0,1,0,84.81,9.717,9.724,9.724,0,0,0,94.526,19.433Zm0-12.955a3.239,3.239,0,1,1-3.239,3.239A3.248,3.248,0,0,1,94.526,6.478Z"/></svg>