<svg id="icons" xmlns="http://www.w3.org/2000/svg" viewBox="0 0 128 128" fill="#fff"><title>Drip-Coffee-Maker</title><g id="drip_coffee_maker" data-name="drip coffee maker"><polygon points="87.38 33.45 84.62 30.55 102 14 92 14 92 10 112 10 87.38 33.45"/><path d="M83.49,48h-35L35.31,4H96.69Zm-32-4h29L91.31,8H40.69Z"/><rect x="38" y="44" width="56" height="4"/><path d="M96.25,124H35.75l8.47-72H87.78Zm-56-4h51.5L84.22,56H47.78Z"/><path d="M66,100.33c-5.51,0-10-4.21-10-9.38,0-7.71,8.12-17.49,8.47-17.9L66,71.22l1.53,1.83C67.88,73.46,76,83.24,76,91,76,96.12,71.51,100.33,66,100.33ZM66,77.6C63.53,81,60,86.76,60,91c0,3,2.69,5.38,6,5.38s6-2.41,6-5.38C72,86.76,68.47,81,66,77.6Z"/><polygon points="93.92 106.58 90.08 105.42 101.31 68 88 68 88 64 106.69 64 93.92 106.58"/><path d="M41.87,105.21,17.91,52H28.83L45.76,68.93ZM24.09,56,39.46,90.12,41.58,70.4,27.17,56Z"/></g></svg>