<?xml version="1.0" encoding="UTF-8"?><svg id="a" xmlns="http://www.w3.org/2000/svg" viewBox="0 0 179.832 198.723"><defs><style>.b{fill:#fff;}</style></defs><path class="b" d="M158.218,159.223v-53.415l9.646-15.387H71.422v55.475h6.21v-49.265h8.701v62.592h-21.549V51.33h25.57l5.603,15.166h18.07v5.763h16.496v-5.763h18.07l5.603-15.166h11.161V0H9.511V159.223H0v39.5H179.832v-39.5h-21.614Zm-1.577-62.592l-4.633,7.391v20.8h-59.464v-28.191h64.098Zm-64.098,34.401h59.464v28.191h-59.464v-28.191Zm51.723-70.746h-43.982l-3.309-8.956h50.6l-3.309,8.956Zm14.881-54.076V45.12H15.721V6.21H159.147ZM15.721,51.33H58.574v107.893H15.721V51.33ZM173.622,192.513H6.21v-27.08H173.622v27.08Z"/><path class="b" d="M26.58,169.658c-5.139,0-9.315,4.176-9.315,9.315s4.176,9.315,9.315,9.315,9.315-4.176,9.315-9.315-4.176-9.315-9.315-9.315Zm0,12.42c-1.708,0-3.105-1.397-3.105-3.105s1.397-3.105,3.105-3.105,3.105,1.397,3.105,3.105-1.397,3.105-3.105,3.105Z"/><path class="b" d="M51.67,169.658c-5.139,0-9.315,4.176-9.315,9.315s4.176,9.315,9.315,9.315,9.315-4.176,9.315-9.315-4.176-9.315-9.315-9.315Zm0,12.42c-1.708,0-3.105-1.397-3.105-3.105s1.397-3.105,3.105-3.105,3.105,1.397,3.105,3.105-1.397,3.105-3.105,3.105Z"/></svg>