<svg id="icons" xmlns="http://www.w3.org/2000/svg" viewBox="0 0 128 128" fill="#fff"><title>Chemex-Coffeemaker</title><g id="Chemex"><path d="M103.17,125.5H24.83c-2.77,0-5-1.12-6.1-3.06s-.94-4.45.48-6.85L38.77,81.82c6.11-10.33,6.11-25.87,0-36.18l-.08-.14-21-43h92.58L89.22,45.58c-6.11,10.32-6.11,25.89,0,36.22l19.58,33.87c1.41,2.37,1.59,4.85.48,6.79S106,125.5,103.17,125.5ZM42.26,43.67c6.87,11.66,6.85,28.53,0,40.17L22.66,117.61a3,3,0,0,0-.46,2.85,2.93,2.93,0,0,0,2.63,1h78.34c1.31,0,2.27-.37,2.64-1a2.92,2.92,0,0,0-.46-2.78L85.77,83.82c-6.89-11.63-6.9-28.54,0-40.21L103.89,6.5H24.11Z"/><rect x="42" y="46.5" width="44" height="4"/><rect x="42" y="77.5" width="44" height="4"/><rect x="44" y="61.5" width="39" height="4"/></g></svg>