<?xml version="1.0" encoding="utf-8"?>
<!-- Generator: Adobe Illustrator 26.1.0, SVG Export Plug-In . SVG Version: 6.00 Build 0)  -->
<svg version="1.1" id="Ebene_1" xmlns="http://www.w3.org/2000/svg" xmlns:xlink="http://www.w3.org/1999/xlink" x="0px" y="0px"
	 viewBox="0 0 200 200" style="enable-background:new 0 0 200 200;" xml:space="preserve">
<style type="text/css">
	.st0{fill:#fff;}
</style>
<path class="st0" d="M36.3,0l22.4,74.8H40.4v7.5H145v-7.5h-16.5l6.4-21.5v0l44.7-42h-32.1L151,0L36.3,0z M66.5,74.8L46.3,7.5h94.6
	l-12.5,41.7v0l-0.4,0.4l0.2,0.3l-7.5,24.9H66.5z M160.8,18.7L139.3,39l6.1-20.3H160.8z"/>
<path class="st0" d="M93.6,172.6c10.3,0,18.7-7.9,18.7-17.5c0-14.4-15.2-32.7-15.8-33.5l-2.9-3.4l-2.9,3.4
	c-0.7,0.8-15.8,19-15.8,33.5C74.9,164.7,83.3,172.6,93.6,172.6z M93.6,130.1c4.6,6.3,11.2,17.1,11.2,25c0,5.6-5,10.1-11.2,10.1
	c-6.2,0-11.2-4.5-11.2-10.1C82.4,147.2,89,136.4,93.6,130.1L93.6,130.1z"/>
<path class="st0" d="M148.8,87.9H20.5l16.2,34.5V200h112.1v-71h22.4v41.1h7.5v-48.6h-29.9V87.9z M141.3,192.5H44.1v-71.9L32.2,95.3
	h109.1V192.5z"/>
</svg>
