<?xml version="1.0" encoding="UTF-8"?><svg id="a" xmlns="http://www.w3.org/2000/svg" viewBox="0 0 152.752 200"><defs><style>.b{fill:#fff;}</style></defs><path class="b" d="M131.032,91.319l-.924,.939c-5.261,5.353-7.749,9.778-10.384,14.464-1.449,2.577-2.947,5.241-5.054,8.383-.302,.453-.631,.964-.988,1.521-2.334,3.643-6.029,9.39-12.437,12.63-.657-3.609-1.32-7.204-1.979-10.765-1.383-7.479-2.812-15.202-4.119-22.8,1.119-2.623,4.457-10.444,4.457-10.444l1.868-4.377h-8.366V44.145l7.107-15.131h-4.947c-2.673-3.518-11.776-13.866-27.3-15.333,2.331-1.209,3.942-3.617,3.942-6.421,0-4.005-3.255-7.26-7.26-7.26s-7.26,3.255-7.26,7.26c0,2.763,1.567,5.14,3.842,6.366-15.941,1.225-25.263,11.815-27.972,15.388h-3.958l5.744,12.226c-2.686-.276-5.916-.116-8.976,1.314-4.904,2.29-6.365,6.514-6.916,8.105-2.583,7.469,3.236,16.612,17.257,27.175v3.035h-9.568l1.868,4.377s3.34,7.821,4.458,10.444c-.292,1.698-.592,3.404-.895,5.111-4.832-1.539-13.086-2.993-20.497,1.469-7.577,4.567-9.746,12.651-10.671,16.104-5.914,22.058,13.537,44.577,19.699,51.016-.542,8.437,1.126,14.94,5.069,19.801,6.713,8.277,18.557,9.841,29.13,10.657l5.455,.064v.087l3.785-.043,3.612,.043v-.083l5.249-.059,.207-.009c10.573-.816,22.415-2.38,29.13-10.657,3.426-4.224,5.128-9.695,5.161-16.592,9.588-2.534,17.063-9.198,20.73-18.631,2.298-5.91,3.112-12.235,3.9-18.351,.93-7.232,1.809-14.061,4.953-20.007,3.826-7.243,12.086-19.243,12.169-19.363l3.398-4.928h-21.72ZM64.269,19.787c.087,0,.176,0,.264,.002,10.758,.085,18.194,5.237,22.347,9.225H41.731c4.245-4.018,11.808-9.227,22.537-9.227ZM25.095,52.712c.427-1.234,1.14-3.3,3.633-4.463,2.587-1.211,5.677-.866,7.681-.419v21.992c-8.45-7.054-12.636-13.289-11.314-17.109Zm14.104-17.412h51.114l-3.495,7.442v38.127H42.696V42.742l-3.496-7.442ZM7.177,120.002c.792-2.951,2.437-9.09,7.844-12.349,5.772-3.476,12.558-1.886,16.132-.612-.697,3.834-1.403,7.653-2.098,11.41-2.584,13.965-5.212,28.356-7.234,42.676-7.196-8.466-18.894-25.273-14.644-41.126Zm90.381,65.229c-4.61,5.685-13.181,7.451-24.628,8.341l-8.772,.099-8.772-.099c-11.449-.89-20.018-2.657-24.63-8.343-3.37-4.155-4.465-10.314-3.344-18.828,2.057-15.619,4.99-31.473,7.826-46.806,1.44-7.784,2.928-15.836,4.285-23.755l.045-.531c0-.553,0-.631-3.206-8.154h55.594c-3.206,7.523-3.206,7.602-3.206,8.154l.045,.529c1.358,7.933,2.85,15.997,4.291,23.795,2.835,15.32,5.765,31.162,7.82,46.767,1.119,8.515,.026,14.674-3.346,18.83Zm34.069-72.559c-3.673,6.951-4.667,14.674-5.63,22.142-.774,6.007-1.504,11.681-3.524,16.876-2.807,7.223-8.167,12.271-15.278,14.499-.025-.207-.033-.399-.061-.608-1.313-9.978-2.986-20.004-4.751-29.933,9.008-3.828,13.877-11.393,16.592-15.631,.333-.517,.637-.993,.918-1.414,2.242-3.346,3.872-6.243,5.31-8.8,2.457-4.369,4.434-7.883,8.486-12.198h7.172c-2.83,4.274-6.807,10.472-9.235,15.067Z"/></svg>