<?xml version="1.0" encoding="utf-8"?>
<!-- Svg Vector Icons : http://www.onlinewebfonts.com/icon -->
<!DOCTYPE svg PUBLIC "-//W3C//DTD SVG 1.1//EN" "http://www.w3.org/Graphics/SVG/1.1/DTD/svg11.dtd">
<svg version="1.1" xmlns="http://www.w3.org/2000/svg" xmlns:xlink="http://www.w3.org/1999/xlink" x="0px" y="0px" viewBox="0 0 1000 1000" enable-background="new 0 0 1000 1000" xml:space="preserve">
<metadata> Svg Vector Icons : http://www.onlinewebfonts.com/icon </metadata>
<g><g><path d="M481.8,462.5l-20.5,50.9l1.3,33.4l-7.4,0.3l-1.4-33.4l-24.5-49.1l7.9-0.3l20,40.9l16.7-42.3L481.8,462.5z M422.5,507c0.7,6.8,1,12.8,0.7,18c-0.2,5.3-1.3,9.8-3.1,13.5c-1.9,3.8-4.7,6.8-8.4,9c-3.7,2.2-8.5,3.7-14.5,4.4l-20,2.3l-9.6-82.9l20-2.3c6-0.7,11.1-0.4,15.2,0.9c4.1,1.3,7.5,3.6,10.2,6.8c2.6,3.2,4.8,7.4,6.2,12.5C420.6,494.4,421.7,500.3,422.5,507z M415.1,508c-0.8-6.8-1.9-12.4-3.3-16.8c-1.4-4.4-3.2-7.8-5.4-10.4c-2.3-2.5-4.8-4.1-7.9-4.9c-3.1-0.8-6.7-1-10.7-0.5l-12.1,1.4l8.2,70.4l12-1.4c4-0.5,7.5-1.4,10.3-2.9c2.8-1.5,5-3.6,6.5-6.6c1.6-2.9,2.5-6.7,2.9-11.3C416.1,520.4,415.8,514.7,415.1,508z M533.9,536.7l-0.3-0.1l-29.3-73.7l-10.1-0.4l-2.9,83.5l7.5,0.2l2.5-72.7h0.2l29.4,73.8l10,0.4l2.9-83.4l-7.5-0.3L533.9,536.7z M357.5,515.1c3,14.6,3,25.8-0.2,33.4c-3.1,7.7-8.9,12.4-17.2,14.1c-8.4,1.7-15.6-0.3-21.5-6.1c-5.9-5.8-10.4-16.1-13.4-30.7c-3-14.7-3-25.8,0.1-33.5c3.1-7.7,8.9-12.4,17.3-14.1c8.3-1.7,15.4,0.3,21.4,6.2C349.9,490.2,354.5,500.5,357.5,515.1z M352.3,533.7c-0.1-4.7-0.7-10.5-2.2-17.1c-1.4-6.6-3-12.1-4.8-16.5c-1.8-4.4-3.8-7.9-6-10.4c-2.1-2.5-4.6-4.2-7.2-4.9c-2.6-0.8-5.3-0.9-8.2-0.3c-2.9,0.6-5.4,1.8-7.5,3.5c-2,1.8-3.6,4.2-4.6,7.4c-1,3.2-1.5,7.2-1.4,11.9c0.1,4.8,0.8,10.4,2.1,17c1.4,6.7,3,12.2,4.8,16.6c1.8,4.4,3.8,7.9,6,10.3c2.2,2.6,4.7,4.2,7.2,5c2.6,0.8,5.3,0.8,8.3,0.3c2.9-0.6,5.4-1.8,7.5-3.5c2-1.8,3.6-4.3,4.6-7.4C352,542.4,352.4,538.5,352.3,533.7z M271.7,492.2l22.5,80.4l7.2-2l-22.5-80.4L271.7,492.2z M590.4,469l14.8,85.8l-7.9-0.9l-3.9-25l-29-3.4l-9.6,23.3l-7.9-0.9l34.3-80L590.4,469z M592.5,522.5l-7.3-48.2l-0.3-0.1l-18.3,45.2L592.5,522.5z M681.9,485.8L646,553.7l-0.2-0.1l-3.4-76.7l-12.7-2.8l-18.2,81.5l7.3,1.7l16.7-74.6l0.2,0l4.4,79.4l6.8,1.6l37.8-69.9l0.2,0.1l-16.6,74.6l7.3,1.6l18.2-81.5L681.9,485.8z M688.4,574.6l7.1,2.3l25.2-79.6l-7.2-2.3L688.4,574.6z M275.9,553.1c2.4,6.9,2.3,13-0.5,18.4c-2.8,5.4-8,9.4-15.5,12.1l-21.6,7.6l-27.9-78.7l21.7-7.7c3.8-1.3,7.3-2,10.3-2c3,0,5.7,0.6,8,1.7c2.3,1.1,4.3,2.8,5.9,4.9c1.7,2.2,3,4.7,4,7.7c1.4,3.9,1.6,7.8,0.7,11.8c-0.8,4-3.1,7.1-6.7,9.6l0.1,0.2c5.2-0.7,9.6,0.2,13.3,2.8C271.3,544,274,547.9,275.9,553.1z M229.7,544.6l11.1-4c6.2-2.2,10.3-5,12.2-8.4c1.9-3.4,2.1-7.5,0.4-12.1c-1.9-5.4-4.5-8.5-8-9.7c-3.5-1.2-8-0.7-13.5,1.2l-12.4,4.3L229.7,544.6z M268.8,555.5c-3.7-10.7-11.7-13.9-23.8-9.6l-13.2,4.6l11.5,32.2l13.1-4.6C268.4,573.8,272.6,566.3,268.8,555.5z M922.1,661.6l13.8,89.9l-119.7-78l9.2-16.5c-23.9-10-48-18.9-73.1-27c-1,2.6-1.3,4.8-1.3,6.1l1.6,20.1c1.2,15-3.7,29.4-13.7,40.5c-9.9,11.1-23.7,17.3-38.8,17.8l-20.2,0.6c-5.5,0.1-13.4,5.9-15.2,11.1l-6.7,18.9c-9.7,27.6-44.3,43.2-71.6,31.9l-18.7-7.8c-0.3-0.1-1.7-0.7-4.3-0.7c-5.7,0-11.9,2.4-14,4.6L535.5,788c-10.4,10.9-24.3,16.9-39.2,16.9c-14.9,0-28.9-6-39.2-16.9l-13.9-14.7c-2.1-2.2-8.2-4.5-14-4.5c-2.6,0-4,0.5-4.5,0.6l-18.5,7.8c-28.4,11.6-61.6-3.6-71.7-31.9l-6.7-19c-1.8-5-9.9-10.9-15.2-11l-20.3-0.6c-15.1-0.4-28.8-6.7-38.8-17.8c-10-11.2-14.8-25.5-13.6-40.6l1.5-20.1c0.1-1.3-0.4-4.3-2.5-8.3c-34.3,12.2-54.9,22.9-61,26.1l9,12.7L76.4,757.3l4-90.9L10,647.7l100.6-79.4l-26.2-46.1l12.6-7.2c3-1.7,29.4-16.5,74.4-33.3l0.6-3.6c2.3-13.8,9.5-25.9,20.3-34.2l16.1-12.3c4.1-3.2,7.2-12.8,5.8-17.9l-5.7-19.4c-4.3-14.4-2.6-29.5,4.8-42.3c7.5-12.9,19.7-22,34.3-25.6l19.7-4.7c5.1-1.2,11.9-8.7,12.5-14l2.7-20.1c4.1-30.8,32-52.1,63.6-46.1l19.7,3.7c8.6,0.5,15.1-4.1,17.3-7.8l10.4-17.1c15.2-24.8,52.7-32.9,76.7-16.4l16.6,11.4c3,1.9,16,1.9,18.8-0.1l16.6-11.5c24.3-16.5,61.6-8.5,76.8,16.3l10.5,17.2c2.3,3.7,9.2,7.8,15.3,7.8l21.8-3.8c30.7-6.1,59.4,15.3,63.4,46.1l2.6,20.1c0.7,5.3,7.4,12.7,12.6,14l19.6,4.7c14.8,3.5,27,12.6,34.4,25.5c7.5,12.9,9.1,28,4.9,42.4l-5.7,19.3c-1.6,5.2,1.5,14.7,5.8,18l16,12.3c12.1,9.2,19.6,22.7,21,37.9l0.2,1.8h0.1v0c23.9,8.3,47.8,17.4,71,27.2l13.5,5.7l-22.2,52.5L990,635.3L922.1,661.6z M208.2,469c38.4-12.3,97.5-27.6,171.7-36.3c-37.4-39.4-57.8-79.6-45.6-91.8c12.9-12.8,56.9,10.2,98.3,51.7c11.5,11.5,20.9,22.9,29,34.1c3-0.1,6.3-0.1,9.4-0.1c-2.5-14.7-4.3-31-4.3-49.1c0-58.5,14.8-106,32.9-106c18.2,0,33,47.5,33,106c0,18.3-1.8,34.7-4.4,49.5c2.9,0.1,5.6,0.2,8.5,0.3c8.3-11.6,17.8-23.6,30-35.8c41.4-41.4,85.5-64.5,98.2-51.6c12.5,12.5-8.9,54-48,94.3c54.1,7,111.3,19.2,170.3,38.1c-1.4-1.9-2.8-3.9-4.7-5.4l-16-12.3c-13.9-10.6-21-32.8-16-49.4l5.6-19.3c2-6.7,1.3-13.7-2.2-19.6c-3.4-6-9-10-15.9-11.7l-19.6-4.7c-16.9-4-32.4-21.4-34.7-38.5l-2.7-20.1c-1.9-14.3-14.8-24.2-29.1-21.2l-20,3.7c-16.7,3.2-38.3-6.2-47.4-21.1l-10.4-17.2c-6.8-11.2-24.2-15-35.3-7.5l-16.6,11.4c-13.4,9.2-38.4,9.3-51.9,0L453.7,228c-10.9-7.5-28.5-3.6-35.3,7.5l-10.5,17.2c-8.9,14.5-30.3,24.4-47.3,21.2l-20-3.7c-15.1-2.8-27.3,7-29.1,21.2l-2.7,20.1c-2.2,17.2-17.8,34.5-34.7,38.5l-19.7,4.7c-6.8,1.6-12.4,5.8-15.8,11.7c-3.4,5.9-4.1,12.8-2.1,19.5l5.7,19.4c4.9,16.6-2.2,38.7-16,49.3l-16.1,12.3C209.4,467.4,208.9,468.3,208.2,469z M606.3,394.8l-34.5,34.6c2,0.2,4.1,0.4,6.2,0.6l31.6-31.7L606.3,394.8z M497.2,351.6v74.5c1.6,0,3.1-0.1,4.8-0.1v-74.4H497.2z M392.8,395.9l-3.4,3.4l29.7,29.7c2.1-0.2,4.3-0.2,6.4-0.4L392.8,395.9z M147.4,661.4l-38.7-54.4l-34.8,27.4l36.7,9.8l-2.1,49.1L147.4,661.4z M722,638.4c-0.5-6.1,1.1-12.5,3.6-18.8c-29.5-7.1-58.1-12.4-86.2-16.4c23.9,30.8,35.1,58.4,25.4,68.2C652,684.3,608,661,566.6,619.7c-8.5-8.6-16.2-17.2-22.9-25.7c0.7,0,1.4-0.1,2,0c-5.2-0.3-10.3-0.5-15.5-0.6c1.4,11.3,2.4,23.2,2.4,36.1c0,58.5-14.8,106-33,106c-18.1,0-32.9-47.5-32.9-106c0-12.9,1-25,2.3-36.4c-4.9,0.2-9.6,0.4-14.4,0.6c-6.6,8.2-13.8,16.6-22.1,24.9c-41.4,41.3-85.4,64.4-98.3,51.6c-9.7-9.8,1.2-37,24.8-67.5c-34.7,5-65.7,11.1-92,17.6c2.4,6.2,3.9,12.3,3.5,18.1l-1.6,20.1c-0.5,7,1.7,13.6,6.3,18.7c4.6,5.1,10.9,8,17.9,8.1l20.2,0.6c17.3,0.4,36.2,14,42,30.4l6.7,19c4.7,13.1,19.7,20.2,33,14.7l18.6-7.7c4.7-1.9,9.9-2.9,15.6-2.9c13.5,0,27.3,5.4,35.2,13.6l13.9,14.7c9.6,10.2,26.4,10.1,36.1,0l13.9-14.7c11.3-11.8,35.4-17.2,50.7-10.8l18.6,7.8c12.4,5.2,28.6-2.1,33-14.7l6.7-19c5.8-16.4,24.7-30.1,42.1-30.5l20-0.6c7-0.2,13.4-3.1,17.9-8.1c4.6-5.1,6.8-11.7,6.3-18.7L722,638.4z M392.8,615.3l18.6-18.6c-2.6,0.2-5,0.5-7.6,0.7l-14.4,14.5L392.8,615.3z M502,655.3v-62.5c-1.7,0-3.2,0-4.8,0.1v62.4H502z M606.3,616.2l3.5-3.4l-15.2-15.2c-2.5-0.2-5-0.5-7.5-0.7L606.3,616.2z M830.9,619l36.7-87c-20.9-8.5-42.3-16.4-63.6-23.6c-293.3-103.3-541.9-28.9-611.5-3.4c-0.3,0.1-0.4,0.1-0.7,0.2l-2.4,0.8c-30.1,10.9-52.1,21-65,27.4l49.6,87.4l-1.2-3.9c16.5-6,42.2-14.5,74.7-22.9l3.6-1.2l0.2,0.3c102.8-26.2,275.1-51.4,475.9-4.5c-5.1-3.3-8.8-7.7-10.1-14c-1.7-8.1,0.3-19.1,6-33c5.6-13.9,11.9-23.2,18.7-27.8c6.9-4.6,14.2-5.4,22.3-2.1c3.8,1.6,7,3.6,9.3,6c2.3,2.5,3.9,5.1,4.8,8c0.9,3,1.2,6.1,0.9,9.2c-0.3,3.3-1.1,6.5-2.4,9.6l-7-2.8c2.2-5.3,2.6-10.1,1.4-14.5c-1.2-4.4-4.4-7.7-9.3-9.7c-2.7-1.1-5.5-1.5-8.1-1.2c-2.7,0.3-5.4,1.5-8,3.6c-2.6,2.1-5.2,5.1-7.8,9.1c-2.6,4-5.2,9.2-7.7,15.4c-2.6,6.2-4.3,11.8-5.3,16.4c-0.9,4.7-1.2,8.6-0.8,12c0.4,3.3,1.5,6,3.2,8.1c1.7,2.1,3.9,3.7,6.7,4.8c5,1.9,9.5,1.7,13.8-1.1c4.3-2.7,7.9-7.4,11-14.1l7,2.9c-4.2,8.8-9.2,14.7-15,17.8c-2,1.1-4.4,1.5-6.7,1.8C772.5,600.2,801.4,608.7,830.9,619z M897.1,691.4l-7.5-48.6l35.4-13.7l-37.6-23.6L855,663.9L897.1,691.4z"/></g><g></g><g></g><g></g><g></g><g></g><g></g><g></g><g></g><g></g><g></g><g></g><g></g><g></g><g></g><g></g></g>
</svg>