<?xml version="1.0" encoding="utf-8"?>
<!-- Generator: Adobe Illustrator 24.2.3, SVG Export Plug-In . SVG Version: 6.00 Build 0)  -->
<svg version="1.1" id="Ebene_1" xmlns="http://www.w3.org/2000/svg" xmlns:xlink="http://www.w3.org/1999/xlink" x="0px" y="0px"
	 viewBox="0 0 65.62 43.67" style="enable-background:new 0 0 65.62 43.67;" xml:space="preserve">
<style type="text/css">
	.st0{fill:#95C11F;}
	.st1{fill:#FFFFFF;}
</style>
<rect y="-0.06" class="st0" width="65.62" height="43.64"/>
<g>
	<path class="st1" d="M25.48,10.02c0.7,0.06,1.05,0.09,1.73,0.17c0.22,0.03,0.44-0.07,0.47-0.22c0.12-0.46,0.18-0.69,0.3-1.16
		c0.04-0.15,0.15-0.14,0.24,0.03c0.31,0.52,0.45,0.78,0.74,1.31c0.09,0.17,0.35,0.34,0.57,0.38c0.64,0.13,0.88,0.19,1.66,0.4
		c0.21,0.06,0.25,0.15,0.09,0.21c-0.48,0.16-0.72,0.21-1.22,0.41c-0.16,0.06-0.22,0.26-0.13,0.43c0.27,0.53,0.39,0.81,0.64,1.38
		c0.08,0.19,0.01,0.21-0.17,0.05c-0.54-0.47-0.82-0.65-1.39-1.05c-0.19-0.13-0.47-0.18-0.63-0.11c-0.48,0.21-0.73,0.36-1.22,0.58
		c-0.16,0.07-0.26,0.01-0.22-0.13c0.13-0.45,0.19-0.71,0.31-1.16c0.04-0.15-0.09-0.36-0.28-0.48c-0.61-0.36-0.92-0.53-1.54-0.87
		C25.23,10.07,25.25,10,25.48,10.02"/>
	<path class="st1" d="M18.64,15c0.84-0.17,1.09-0.21,1.89-0.33c0.24-0.04,0.48-0.17,0.53-0.33c0.17-0.48,0.25-0.72,0.42-1.19
		c0.06-0.15,0.17-0.16,0.26-0.02c0.28,0.45,0.41,0.67,0.67,1.13c0.09,0.15,0.34,0.28,0.57,0.26c0.74-0.04,0.92-0.09,1.67-0.12
		c0.22-0.01,0.24,0.07,0.09,0.17c-0.58,0.37-0.76,0.53-1.27,0.83c-0.16,0.1-0.24,0.28-0.16,0.44c0.25,0.46,0.37,0.7,0.61,1.18
		c0.08,0.16-0.01,0.2-0.19,0.1c-0.56-0.32-0.85-0.46-1.44-0.73c-0.19-0.09-0.5-0.07-0.68,0.03c-0.54,0.32-0.72,0.44-1.45,0.9
		c-0.2,0.12-0.3,0.1-0.22-0.09c0.24-0.6,0.32-0.75,0.51-1.23c0.07-0.16-0.06-0.34-0.26-0.41c-0.63-0.19-0.95-0.27-1.61-0.41
		C18.36,15.14,18.39,15.06,18.64,15"/>
	<path class="st1" d="M15.02,21.32c0.76-0.06,1.13-0.08,1.84-0.08c0.23,0,0.51-0.13,0.63-0.28c0.36-0.48,0.54-0.72,0.89-1.19
		c0.11-0.15,0.22-0.15,0.24,0.01c0.06,0.5,0.1,0.75,0.15,1.25c0.02,0.16,0.21,0.31,0.42,0.34c0.72,0.1,0.83,0.12,1.56,0.25
		c0.19,0.04,0.2,0.12,0.01,0.19c-0.58,0.19-0.88,0.3-1.49,0.53c-0.2,0.07-0.37,0.28-0.37,0.44c0,0.51,0,0.77,0,1.29
		c0,0.17-0.11,0.21-0.23,0.09c-0.38-0.37-0.58-0.55-1-0.89c-0.13-0.11-0.43-0.13-0.65-0.03c-0.67,0.29-1,0.44-1.69,0.76
		c-0.23,0.1-0.3,0.06-0.17-0.11c0.4-0.51,0.61-0.75,1.01-1.25c0.13-0.16,0.11-0.38-0.04-0.47c-0.48-0.29-0.73-0.43-1.25-0.67
		C14.71,21.42,14.78,21.34,15.02,21.32"/>
	<path class="st1" d="M27.3,29.74c-0.5,0.28-0.78,0.47-1.31,0.85c-0.17,0.12-0.28,0.38-0.24,0.58c0.13,0.6,0.2,0.91,0.32,1.55
		c0.04,0.21-0.05,0.28-0.2,0.15c-0.46-0.39-0.69-0.58-1.15-0.94c-0.15-0.12-0.42-0.1-0.6,0.03c-0.54,0.42-0.81,0.63-1.37,1.07
		c-0.18,0.15-0.26,0.09-0.17-0.13c0.26-0.66,0.39-0.97,0.64-1.59c0.08-0.21,0.02-0.46-0.13-0.56c-0.48-0.32-0.72-0.47-1.21-0.76
		c-0.16-0.09-0.12-0.19,0.09-0.22c0.64-0.08,0.96-0.11,1.6-0.16c0.21-0.02,0.44-0.19,0.51-0.37c0.24-0.59,0.36-0.88,0.59-1.43
		c0.07-0.18,0.18-0.18,0.22-0.01c0.15,0.54,0.22,0.81,0.37,1.38c0.05,0.18,0.25,0.33,0.45,0.33c0.62-0.01,0.93-0.03,1.53,0.04
		C27.44,29.55,27.46,29.65,27.3,29.74"/>
	<path class="st1" d="M35.55,30.67c-0.44,0.15-0.66,0.22-1.11,0.38c-0.14,0.05-0.21,0.24-0.15,0.42c0.19,0.54,0.29,0.81,0.5,1.36
		c0.07,0.18-0.01,0.21-0.17,0.07c-0.48-0.43-0.72-0.64-1.19-1.08c-0.16-0.15-0.4-0.22-0.55-0.15c-0.45,0.19-0.68,0.29-1.15,0.51
		c-0.15,0.07-0.23,0-0.17-0.17c0.18-0.49,0.27-0.73,0.44-1.2c0.06-0.15-0.02-0.4-0.17-0.54c-0.46-0.45-0.68-0.68-1.14-1.14
		c-0.14-0.15-0.12-0.22,0.06-0.17c0.56,0.17,0.84,0.27,1.4,0.44c0.18,0.06,0.37-0.01,0.42-0.15c0.17-0.44,0.25-0.66,0.4-1.08
		c0.05-0.13,0.14-0.1,0.19,0.07c0.18,0.54,0.27,0.81,0.46,1.35c0.06,0.17,0.26,0.37,0.44,0.42c0.56,0.19,0.84,0.28,1.41,0.46
		C35.65,30.54,35.69,30.62,35.55,30.67"/>
	<path class="st1" d="M42.95,28.49c-0.49,0.19-0.73,0.29-1.2,0.47c-0.15,0.06-0.21,0.25-0.13,0.42c0.25,0.52,0.38,0.78,0.65,1.3
		c0.09,0.17,0.01,0.2-0.17,0.07c-0.56-0.39-0.83-0.59-1.37-1.07c-0.18-0.15-0.44-0.25-0.59-0.2c-0.45,0.15-0.68,0.22-1.13,0.37
		c-0.15,0.05-0.24-0.03-0.19-0.18c0.14-0.44,0.21-0.66,0.34-1.1c0.05-0.15-0.06-0.39-0.22-0.55c-0.51-0.49-0.76-0.75-1.26-1.25
		c-0.16-0.16-0.14-0.23,0.06-0.16c0.59,0.24,0.88,0.36,1.48,0.59c0.19,0.08,0.39,0.02,0.43-0.12c0.14-0.44,0.22-0.65,0.37-1.08
		c0.05-0.14,0.14-0.11,0.21,0.08c0.22,0.56,0.33,0.84,0.56,1.41c0.07,0.18,0.3,0.39,0.5,0.46c0.62,0.21,0.94,0.24,1.58,0.37
		C43.07,28.35,43.1,28.43,42.95,28.49"/>
	<path class="st1" d="M47.78,23.6c-0.47,0.33-0.7,0.48-1.16,0.75c-0.14,0.09-0.21,0.28-0.14,0.41c0.2,0.41,0.31,0.62,0.52,1.02
		c0.07,0.13,0,0.17-0.16,0.09c-0.48-0.26-0.72-0.4-1.19-0.7c-0.15-0.1-0.39-0.13-0.53-0.07c-0.42,0.19-0.63,0.28-1.04,0.46
		c-0.14,0.06-0.21,0-0.17-0.12c0.13-0.38,0.2-0.57,0.34-0.96c0.04-0.13-0.04-0.32-0.19-0.44c-0.45-0.35-0.67-0.56-1.1-0.94
		c-0.14-0.12-0.12-0.19,0.05-0.15c0.53,0.13,0.79,0.19,1.33,0.28c0.18,0.03,0.36-0.07,0.41-0.21c0.15-0.45,0.23-0.68,0.39-1.14
		c0.05-0.15,0.14-0.14,0.2,0.02c0.18,0.49,0.28,0.74,0.46,1.23c0.06,0.16,0.26,0.3,0.45,0.31c0.57,0.03,0.86,0.03,1.46-0.01
		C47.9,23.41,47.93,23.49,47.78,23.6"/>
	<path class="st1" d="M51.7,16.18c-0.45,0.47-0.68,0.7-1.13,1.15c-0.15,0.14-0.22,0.37-0.18,0.5c0.16,0.39,0.23,0.59,0.39,0.97
		c0.05,0.12-0.02,0.2-0.17,0.16c-0.44-0.1-0.65-0.17-1.07-0.32c-0.14-0.05-0.36,0.02-0.51,0.15c-0.43,0.4-0.66,0.59-1.06,0.94
		c-0.13,0.11-0.2,0.08-0.15-0.07c0.14-0.47,0.26-0.72,0.43-1.21c0.06-0.17,0-0.35-0.13-0.41c-0.4-0.2-0.6-0.31-0.99-0.53
		c-0.12-0.07-0.1-0.15,0.07-0.18c0.5-0.08,0.75-0.13,1.26-0.25c0.17-0.04,0.35-0.22,0.41-0.38c0.18-0.53,0.28-0.79,0.47-1.33
		c0.06-0.18,0.14-0.2,0.19-0.06c0.13,0.45,0.2,0.67,0.33,1.09c0.04,0.14,0.22,0.2,0.4,0.15c0.54-0.19,0.81-0.29,1.36-0.52
		C51.82,15.96,51.85,16.03,51.7,16.18"/>
	<path class="st1" d="M43.17,11.29c0.47,0.04,0.64,0.03,1.19,0.01c0.16-0.01,0.32-0.14,0.37-0.31c0.13-0.51,0.2-0.78,0.34-1.32
		c0.05-0.18,0.12-0.19,0.17-0.02c0.16,0.51,0.24,0.75,0.41,1.23c0.05,0.15,0.22,0.25,0.38,0.25c0.43,0,0.71-0.01,1.25-0.04
		c0.16-0.01,0.2,0.06,0.06,0.17c-0.4,0.31-0.6,0.42-0.99,0.73c-0.13,0.11-0.19,0.33-0.13,0.47c0.16,0.44,0.24,0.65,0.41,1.07
		c0.06,0.14-0.01,0.19-0.14,0.12c-0.4-0.22-0.6-0.33-0.99-0.56c-0.13-0.08-0.34-0.05-0.46,0.05c-0.37,0.31-0.55,0.46-0.91,0.74
		c-0.12,0.09-0.18,0.04-0.14-0.1c0.11-0.42,0.17-0.64,0.3-1.1c0.04-0.15-0.04-0.34-0.16-0.43c-0.4-0.29-0.6-0.45-0.99-0.78
		C43,11.35,43.02,11.28,43.17,11.29"/>
	<path class="st1" d="M34.58,9.64c0.55,0.16,0.82,0.23,1.36,0.39c0.18,0.05,0.36-0.02,0.4-0.16c0.15-0.43,0.22-0.65,0.37-1.1
		c0.05-0.14,0.14-0.12,0.2,0.05c0.18,0.54,0.27,0.81,0.45,1.34c0.06,0.17,0.25,0.35,0.42,0.4c0.54,0.16,0.81,0.23,1.35,0.38
		c0.17,0.05,0.2,0.14,0.06,0.2c-0.44,0.18-0.66,0.27-1.09,0.42c-0.14,0.05-0.21,0.23-0.15,0.4c0.16,0.52,0.24,0.77,0.4,1.27
		c0.05,0.17-0.02,0.19-0.15,0.05c-0.41-0.42-0.62-0.63-1.04-1.05c-0.14-0.14-0.36-0.22-0.49-0.17c-0.41,0.14-0.61,0.2-1.01,0.32
		c-0.13,0.04-0.2-0.03-0.16-0.15c0.13-0.38,0.2-0.57,0.34-0.96c0.05-0.13-0.03-0.35-0.18-0.48c-0.45-0.42-0.68-0.62-1.13-1.02
		C34.38,9.65,34.4,9.59,34.58,9.64"/>
	<path class="st1" d="M55.95,9.32c-0.4,0.36-0.61,0.55-1.03,0.94c-0.14,0.12-0.22,0.32-0.17,0.42c0.15,0.32,0.22,0.48,0.38,0.78
		c0.06,0.1-0.02,0.17-0.16,0.15c-0.43-0.05-0.64-0.08-1.05-0.16c-0.14-0.03-0.37,0.06-0.51,0.19c-0.44,0.41-0.67,0.61-1.12,1.02
		c-0.15,0.13-0.22,0.12-0.15-0.04c0.2-0.47,0.3-0.7,0.49-1.17c0.07-0.15,0.01-0.31-0.12-0.35c-0.4-0.12-0.6-0.19-0.99-0.35
		c-0.12-0.05-0.09-0.13,0.08-0.18c0.52-0.15,0.78-0.22,1.29-0.38c0.17-0.05,0.36-0.22,0.42-0.38c0.2-0.48,0.3-0.72,0.49-1.2
		c0.07-0.15,0.14-0.18,0.18-0.05c0.11,0.39,0.17,0.58,0.29,0.95c0.04,0.12,0.21,0.17,0.37,0.11c0.51-0.17,0.76-0.25,1.24-0.4
		C56.05,9.15,56.08,9.2,55.95,9.32"/>
	<path class="st1" d="M38.41,17.88c0.29-0.08,0.33-0.22-0.01-0.2c-0.59,0.03-7.43,1.6-13.37,5.04c-6.46,3.75-8.41,5.62-9.79,6.68
		c-0.36,0.28-0.64,0.29-0.7,0.11c-0.22-0.58-0.36-0.92-0.54-1.47c-0.06-0.17-0.21-0.15-0.28,0.08c-0.24,0.79-0.36,1.28-0.59,2
		c-0.07,0.23-0.15,0.48-0.58,0.78c-0.85,0.59-1.02,0.7-1.55,1.06c-0.19,0.13-0.29,0.27,0.09,0.34c0.37,0.07,0.44,0.08,0.94,0.17
		c0.4,0.07,0.27,0.34,0.21,0.57c-0.16,0.66-0.23,0.93-0.44,1.62c-0.07,0.23,0.02,0.25,0.2,0.06c0.56-0.59,0.75-0.78,1.34-1.4
		c0.23-0.23,0.43-0.5,0.67-0.46c0.59,0.1,0.66,0.12,1.47,0.27c0.36,0.07,0.36-0.1,0.26-0.33c-0.28-0.69-0.23-0.6-0.44-1.18
		c-0.07-0.19-0.08-0.53,0.13-0.74c3.4-3.3,4.81-4.37,9.48-7.41C28.58,21.1,33.45,19.21,38.41,17.88"/>
</g>
</svg>
