<svg id="Ebene_1" data-name="Ebene 1" xmlns="http://www.w3.org/2000/svg" viewBox="0 0 16 16"><defs><style>.cls-1{fill:#ceb67e;}.cls-2{fill:none;}</style></defs><path class="cls-1" d="M4.24,3.79A.76.76,0,0,1,3.49,3V.78A.75.75,0,0,1,5,.78V3A.76.76,0,0,1,4.24,3.79Z"/><rect class="cls-2" x="1.7" y="5.67" width="12.6" height="8.63"/><path class="cls-1" d="M14.54,1.91H13V3.14a1.1,1.1,0,0,1-2.2,0V1.91H5.34V3.14a1.1,1.1,0,1,1-2.2,0V1.91H1.46A1.46,1.46,0,0,0,0,3.37V14.54A1.46,1.46,0,0,0,1.46,16H14.54A1.46,1.46,0,0,0,16,14.54V3.37A1.46,1.46,0,0,0,14.54,1.91ZM14.3,14.3H1.7V5.67H14.3Z"/><path class="cls-1" d="M11.87,3.79A.76.76,0,0,1,11.12,3V.78a.75.75,0,1,1,1.5,0V3A.75.75,0,0,1,11.87,3.79Z"/></svg>