<svg id="Ebene_1" data-name="Ebene 1" xmlns="http://www.w3.org/2000/svg" viewBox="0 0 65.6 43.7"><defs><style>.cls-1{fill:#ceb580;}.cls-2{fill:#fff;}</style></defs><rect class="cls-1" y="0.02" width="65.6" height="43.66"/><path class="cls-2" d="M13.77,28.69a3.65,3.65,0,0,1-3,1.39,3.66,3.66,0,0,1-3-1.39c-1-1.31-1.14-3.07-1.14-6.93s.11-5.63,1.14-6.94a3.66,3.66,0,0,1,3-1.39,3.65,3.65,0,0,1,3,1.39c1.06,1.29,1.15,3.07,1.15,6.94S14.83,27.41,13.77,28.69ZM11.92,16.36a1.27,1.27,0,0,0-1.18-.62,1.24,1.24,0,0,0-1.17.62c-.46.77-.55,2.42-.55,5.4s.09,4.62.55,5.39a1.24,1.24,0,0,0,1.17.62,1.27,1.27,0,0,0,1.18-.62c.47-.77.53-2.42.53-5.39S12.39,17.13,11.92,16.36Z"/><path class="cls-2" d="M23.3,29.9l-3.7-9.68V29.9H17.14V13.61h2.2L23,23.29V13.61h2.47V29.9Z"/><path class="cls-2" d="M28.12,29.9V13.61h2.46v14h4.11V29.9Z"/><path class="cls-2" d="M36.54,29.9V13.61H39V29.9Z"/><path class="cls-2" d="M47.81,29.9l-3.7-9.68V29.9H41.64V13.61h2.2l3.68,9.68V13.61H50V29.9Z"/><path class="cls-2" d="M52.62,29.9V13.61H59.2v2.31H55.09v4.62h3.54v2.31H55.09v4.74H59.2V29.9Z"/></svg>