<svg id="Ebene_1" data-name="Ebene 1" xmlns="http://www.w3.org/2000/svg" viewBox="0 0 16 16"><defs><style>.cls-1{fill:#ceb67e;}.cls-2{fill:none;stroke:#ceb67e;stroke-linecap:round;stroke-miterlimit:10;stroke-width:1.52px;}</style></defs><path class="cls-1" d="M14.3,3.88,12.88,9H4.71L3.78,3.88H14.3M15,2.37H3.16a1,1,0,0,0-1,1.06l1.1,6c.17.72.34,1.06,1,1.06h9.06c.7,0,.86-.58,1-1.06l1.68-6a1,1,0,0,0-1-1.06Z"/><polyline class="cls-2" points="0.77 0.75 2.28 0.77 4.53 12.38 12.83 12.48"/><path class="cls-1" d="M5.65,13.69a1.14,1.14,0,1,0,1.14,1.14,1.14,1.14,0,0,0-1.14-1.14Z"/><path class="cls-1" d="M11.13,13.72a1.14,1.14,0,1,0,1.14,1.14,1.14,1.14,0,0,0-1.14-1.14Z"/></svg>