<svg id="Ebene_1" data-name="Ebene 1" xmlns="http://www.w3.org/2000/svg" viewBox="0 0 65.6 43.7"><defs><style>.cls-1{fill:#ceb580;}.cls-2{fill:#fff;}</style></defs><rect class="cls-1" y="0.04" width="65.6" height="43.66"/><path class="cls-2" d="M15.85,18.21H14L12.45,9l-1.57,9.19H9.06L7,6.11H8.88L10,15.29l1.52-9.18h1.92L15,15.29,16,6.11h1.91Z"/><path class="cls-2" d="M19,18.21V6.11h4.65V7.83H20.73v3.43h2.5V13h-2.5v3.51h2.91v1.72Z"/><path class="cls-2" d="M25.2,18.21V6.11h1.74v12.1Z"/><path class="cls-2" d="M33.22,18.21,30.61,11v7.19H28.87V6.11h1.55L33,13.3V6.11h1.74v12.1Z"/><path class="cls-2" d="M44.48,17.21a2.55,2.55,0,0,1-2.14,1H39.53V6.11h2.81a2.55,2.55,0,0,1,2.14,1c.75.9.81,2.25.81,5S45.23,16.31,44.48,17.21Zm-1.3-8.89a1,1,0,0,0-.89-.49h-1v8.66h1a1,1,0,0,0,.89-.49c.34-.56.37-1.75.37-3.86S43.52,8.88,43.18,8.32Z"/><path class="cls-2" d="M46.92,18.21V6.11h4.65V7.83H48.66v3.43h2.5V13h-2.5v3.51h2.91v1.72Z"/><path class="cls-2" d="M57.76,17.53a2.87,2.87,0,0,1-2.15.8,2.79,2.79,0,0,1-2.15-.8,3.54,3.54,0,0,1-.71-2.6h1.74a2,2,0,0,0,.31,1.36,1,1,0,0,0,.81.32,1,1,0,0,0,.83-.34,2,2,0,0,0,.3-1.34c0-1.29-.19-1.61-1-2l-1.32-.59c-1.12-.51-1.54-1.18-1.54-3a3.49,3.49,0,0,1,.9-2.56A2.63,2.63,0,0,1,55.64,6a2.57,2.57,0,0,1,2,.73,3.64,3.64,0,0,1,.78,2.63H56.66a2.18,2.18,0,0,0-.26-1.29.9.9,0,0,0-.78-.36.89.89,0,0,0-.74.34,1.9,1.9,0,0,0-.3,1.19c0,1,.14,1.3.92,1.64l1.3.57c1.32.6,1.68,1.36,1.68,3.4A3.67,3.67,0,0,1,57.76,17.53Z"/><path class="cls-2" d="M13.29,37.51V27.87l-1.76,6.34H10.41L8.69,28v9.53h-2V22.05H8.49L11,30.17l2.48-8.12h1.85V37.51Z"/><path class="cls-2" d="M23.61,36.36a3,3,0,0,1-5,0c-.85-1.24-.94-2.91-.94-6.58s.09-5.34.94-6.57a3,3,0,0,1,5,0c.87,1.21.94,2.9.94,6.57S24.48,35.15,23.61,36.36Zm-1.52-11.7a1,1,0,0,0-1-.59,1,1,0,0,0-1,.59c-.38.74-.45,2.3-.45,5.12s.07,4.39.45,5.13a1,1,0,0,0,1,.58,1,1,0,0,0,1-.58c.38-.74.43-2.3.43-5.13S22.47,25.4,22.09,24.66Z"/><path class="cls-2" d="M32,37.51l-3-9.18v9.18h-2V22.05h1.81l3,9.19V22.05h2V37.51Z"/><path class="cls-2" d="M41.62,37.51l-.53-3.06h-3l-.51,3.06H35.46l3.17-15.46h2l3.13,15.46Zm-2-11.72L38.5,32.26h2.21Z"/><path class="cls-2" d="M48.21,24.25V37.51h-2V24.25H44v-2.2h6.35v2.2Z"/><path class="cls-2" d="M57.76,36.65a3.22,3.22,0,0,1-2.51,1,3.08,3.08,0,0,1-2.5-1,4.85,4.85,0,0,1-.83-3.33h2a2.82,2.82,0,0,0,.37,1.74,1.11,1.11,0,0,0,.94.41,1.08,1.08,0,0,0,1-.43,2.8,2.8,0,0,0,.35-1.72c0-1.65-.22-2.06-1.21-2.54L53.82,30c-1.31-.65-1.79-1.5-1.79-3.88a4.69,4.69,0,0,1,1-3.28,3.19,3.19,0,0,1,4.52,0,5,5,0,0,1,.9,3.36h-2a3,3,0,0,0-.31-1.65,1,1,0,0,0-.9-.45,1,1,0,0,0-.87.43,2.63,2.63,0,0,0-.35,1.52c0,1.26.17,1.65,1.07,2.09l1.52.73c1.54.76,2,1.74,2,4.35A5.05,5.05,0,0,1,57.76,36.65Z"/></svg>