<?xml version="1.0" encoding="utf-8"?>
<!-- Generator: Adobe Illustrator 24.1.2, SVG Export Plug-In . SVG Version: 6.00 Build 0)  -->
<svg version="1.1" xmlns="http://www.w3.org/2000/svg" xmlns:xlink="http://www.w3.org/1999/xlink" x="0px" y="0px"
	 viewBox="0 0 25 25" style="enable-background:new 0 0 25 25;" xml:space="preserve">
<style type="text/css">
	.st0{fill:#CEB67F;}
	.st1{fill:#CDB57C;}
	.st2{clip-path:url(#SVGID_2_);fill:#CEB67E;}
	.st3{clip-path:url(#SVGID_4_);fill:#CEB67E;}
	.st4{clip-path:url(#SVGID_6_);fill:#CEB67E;}
	.st5{clip-path:url(#SVGID_8_);fill:#CEB67E;}
	.st6{clip-path:url(#SVGID_10_);fill:#CEB67E;}
	.st7{clip-path:url(#SVGID_12_);fill:#CEB67E;}
	.st8{clip-path:url(#SVGID_14_);fill:#CEB67E;}
	.st9{display:none;}
	.st10{display:inline;fill:#EDEDED;}
	.st11{display:inline;fill:#BDBCBC;}
	.st12{display:inline;}
	.st13{display:inline;fill:#CDB57C;}
</style>
<g id="Footer">
</g>
<g id="Überschrift">
</g>
<g id="Inhalte">
	<g>
		<g>
			<defs>
				<rect id="SVGID_13_" width="25" height="25"/>
			</defs>
			<clipPath id="SVGID_2_">
				<use xlink:href="#SVGID_13_"  style="overflow:visible;"/>
			</clipPath>
			<path class="st2" d="M9.87,19.75c-0.01-0.17-0.02-0.35-0.02-0.56c0-0.12,0-0.24,0.01-0.37v-0.05c0-0.09,0.01-0.19,0.02-0.28
				c0-0.01,0-0.03,0-0.04c0-0.05,0.01-0.09,0.01-0.14c0.01-0.11,0.02-0.23,0.04-0.34c0.01-0.12,0.03-0.24,0.05-0.35
				c0-0.01,0-0.01,0-0.02c0.02-0.12,0.05-0.23,0.07-0.35c0.02-0.11,0.05-0.23,0.08-0.34c0.04-0.12,0.07-0.25,0.11-0.36
				c0.03-0.1,0.07-0.2,0.1-0.29c0.01-0.02,0.01-0.03,0.02-0.04c0.45,0.26,0.95,0.43,1.46,0.51c0.21,0.04,0.44,0.05,0.67,0.05
				c0.23,0,0.46-0.02,0.67-0.05c0.52-0.08,1.02-0.26,1.47-0.51c0,0.01,0.01,0.02,0.02,0.04c0.04,0.09,0.07,0.19,0.1,0.29
				c0.04,0.12,0.07,0.24,0.11,0.36c0.03,0.11,0.06,0.23,0.08,0.34c0.02,0.11,0.05,0.23,0.07,0.35c0,0.01,0,0.02,0,0.02
				c0.02,0.12,0.04,0.23,0.05,0.35c0.02,0.11,0.03,0.23,0.04,0.34c0,0.05,0.01,0.09,0.01,0.14c0,0.01,0,0.02,0,0.04
				c0.01,0.09,0.01,0.18,0.02,0.28v0.05c0.01,0.12,0.01,0.24,0.01,0.37c0,0.2,0,0.38-0.02,0.56v0.01c-0.15,2.52-1.31,4.48-2.63,4.48
				C11.17,24.24,10.02,22.27,9.87,19.75 M4.2,20.8c-0.92-0.92-0.39-3.05,1.19-4.9c0.13,0,0.27,0.01,0.42,0.01
				c0.26,0,0.52-0.01,0.77-0.03c0.08-0.01,0.15-0.01,0.23-0.02c0.29-0.03,0.57-0.07,0.84-0.12c0.11-0.02,0.23-0.05,0.33-0.07
				c0.04-0.01,0.07-0.02,0.11-0.02c0.1-0.03,0.21-0.05,0.31-0.08c0.1-0.03,0.2-0.06,0.3-0.1c0.06-0.02,0.13-0.04,0.19-0.06
				c0.02-0.01,0.04-0.01,0.05-0.02c0.07-0.02,0.14-0.05,0.21-0.08c0.02-0.01,0.04-0.02,0.06-0.02c0.16,0.18,0.32,0.35,0.51,0.51
				c-0.01,0.02-0.02,0.04-0.03,0.06c-0.03,0.07-0.06,0.14-0.08,0.21c-0.01,0.02-0.02,0.03-0.02,0.05c-0.02,0.06-0.05,0.12-0.06,0.19
				c-0.04,0.1-0.07,0.2-0.1,0.3c-0.03,0.1-0.05,0.2-0.08,0.31c-0.01,0.04-0.02,0.07-0.02,0.11c-0.03,0.11-0.05,0.22-0.07,0.33
				c-0.05,0.27-0.09,0.55-0.12,0.84c-0.01,0.08-0.02,0.15-0.02,0.23c-0.02,0.26-0.03,0.51-0.03,0.77c0,0.15,0,0.29,0.01,0.42
				C7.24,21.19,5.11,21.72,4.2,20.8 M5.25,15.13c-0.06,0-0.12-0.01-0.18-0.01c-2.43-0.19-4.31-1.33-4.31-2.62s1.88-2.43,4.31-2.62
				c0.06-0.01,0.12-0.01,0.18-0.01C5.42,9.85,5.6,9.85,5.81,9.85c0.25,0,0.49,0.01,0.74,0.03c0.04,0,0.08,0.01,0.12,0.01
				c0.01,0,0.02,0,0.03,0C6.77,9.9,6.85,9.91,6.92,9.92c0.03,0,0.07,0.01,0.1,0.01c0.01,0,0.02,0,0.03,0
				c0.11,0.01,0.22,0.03,0.32,0.05c0.13,0.02,0.25,0.05,0.37,0.07c0.11,0.02,0.23,0.05,0.34,0.08c0.24,0.07,0.47,0.14,0.69,0.23
				c-0.26,0.45-0.43,0.95-0.51,1.46c-0.07,0.43-0.07,0.92,0,1.34c0.08,0.52,0.26,1.02,0.51,1.47c-0.01,0-0.02,0.01-0.04,0.02
				c-0.09,0.03-0.19,0.07-0.29,0.1c-0.12,0.04-0.24,0.07-0.36,0.11c-0.11,0.03-0.23,0.06-0.34,0.08C7.62,14.97,7.49,15,7.37,15.02
				c-0.12,0.02-0.23,0.04-0.35,0.05c-0.12,0.02-0.23,0.03-0.35,0.04c-0.04,0-0.08,0.01-0.12,0.01c-0.02,0-0.03,0-0.05,0.01
				c-0.09,0.01-0.18,0.01-0.28,0.02H6.17c-0.12,0.01-0.24,0.01-0.37,0.01C5.6,15.15,5.42,15.15,5.25,15.13 M9.16,9.7
				C9.01,9.64,8.86,9.59,8.7,9.54c-0.1-0.03-0.19-0.07-0.29-0.09C8.1,9.36,7.78,9.28,7.44,9.23C7.37,9.21,7.31,9.21,7.24,9.19
				C7.02,9.16,6.8,9.14,6.58,9.12C6.46,9.11,6.34,9.1,6.22,9.1H6.18c-0.12,0-0.24-0.01-0.37-0.01c-0.15,0-0.29,0-0.42,0.01
				C3.81,7.24,3.28,5.11,4.2,4.2c0.92-0.92,3.05-0.39,4.9,1.2c0,0.13-0.01,0.27-0.01,0.42c0,0.26,0.01,0.52,0.03,0.77
				c0.01,0.08,0.01,0.15,0.02,0.23C9.17,7.1,9.21,7.38,9.26,7.65c0.02,0.11,0.05,0.22,0.07,0.33c0.01,0.04,0.02,0.07,0.02,0.11
				C9.39,8.2,9.41,8.3,9.44,8.4c0.03,0.1,0.06,0.2,0.1,0.3C9.56,8.77,9.58,8.83,9.6,8.89c0.01,0.02,0.01,0.04,0.02,0.05
				C9.65,9.02,9.67,9.08,9.7,9.16C9.71,9.18,9.72,9.2,9.73,9.22C9.54,9.38,9.38,9.54,9.22,9.73C9.2,9.72,9.18,9.71,9.16,9.7
				 M12.5,0.76c1.33,0,2.49,1.97,2.63,4.49c0.01,0.17,0.02,0.35,0.02,0.56c0,0.12,0,0.24-0.01,0.37v0.05c0,0.09-0.01,0.19-0.02,0.28
				c0,0.01,0,0.03,0,0.04c-0.01,0.05-0.01,0.09-0.01,0.14c-0.01,0.11-0.02,0.23-0.04,0.34c-0.01,0.12-0.03,0.24-0.05,0.35
				c0,0.01,0,0.01,0,0.02C15,7.51,14.97,7.63,14.94,7.74c-0.02,0.11-0.05,0.23-0.08,0.34c-0.04,0.12-0.07,0.24-0.11,0.36
				c-0.03,0.1-0.07,0.2-0.1,0.29c-0.01,0.02-0.01,0.03-0.02,0.04c-0.45-0.26-0.95-0.43-1.46-0.51c-0.21-0.04-0.44-0.05-0.67-0.05
				c-0.23,0-0.46,0.02-0.67,0.05c-0.51,0.08-1.01,0.26-1.46,0.51c0-0.01-0.01-0.02-0.02-0.04c-0.03-0.09-0.07-0.19-0.1-0.29
				c-0.04-0.12-0.07-0.24-0.11-0.36c-0.03-0.11-0.06-0.23-0.08-0.34C10.03,7.63,10,7.51,9.98,7.39c0-0.01,0-0.02,0-0.02
				C9.96,7.25,9.94,7.14,9.93,7.02C9.91,6.91,9.9,6.79,9.89,6.68c0-0.05-0.01-0.09-0.01-0.14c0-0.01,0-0.02,0-0.04
				C9.87,6.41,9.86,6.32,9.86,6.22V6.17C9.85,6.05,9.85,5.93,9.85,5.81c0-0.2,0-0.38,0.02-0.56V5.24
				C10.02,2.72,11.17,0.76,12.5,0.76 M20.8,4.2c0.92,0.92,0.39,3.05-1.2,4.9c-0.13,0-0.27-0.01-0.42-0.01
				c-0.26,0-0.52,0.01-0.77,0.03c-0.08,0.01-0.15,0.01-0.23,0.02c-0.29,0.03-0.57,0.07-0.84,0.12c-0.11,0.02-0.22,0.05-0.33,0.07
				c-0.04,0.01-0.07,0.02-0.11,0.02c-0.1,0.03-0.21,0.05-0.31,0.08c-0.1,0.03-0.2,0.06-0.3,0.1c-0.06,0.02-0.13,0.04-0.19,0.06
				c-0.02,0.01-0.04,0.01-0.05,0.02c-0.07,0.02-0.14,0.05-0.21,0.08c-0.02,0.01-0.04,0.02-0.06,0.03c-0.16-0.19-0.32-0.35-0.51-0.51
				c0.01-0.02,0.02-0.04,0.02-0.06c0.03-0.07,0.06-0.14,0.08-0.21c0.01-0.02,0.02-0.03,0.02-0.05c0.02-0.06,0.05-0.12,0.06-0.19
				c0.04-0.1,0.07-0.2,0.1-0.3c0.03-0.1,0.05-0.2,0.08-0.31c0.01-0.04,0.02-0.07,0.02-0.11c0.03-0.11,0.05-0.22,0.07-0.33
				c0.05-0.27,0.09-0.55,0.12-0.84c0.01-0.08,0.02-0.15,0.02-0.23c0.02-0.26,0.03-0.51,0.03-0.77c0-0.15,0-0.29-0.01-0.42
				C17.76,3.81,19.89,3.28,20.8,4.2 M19.75,9.87c0.06,0,0.12,0.01,0.18,0.01c2.43,0.19,4.31,1.33,4.31,2.62s-1.88,2.43-4.31,2.62
				c-0.06,0.01-0.12,0.01-0.18,0.01c-0.17,0.01-0.35,0.02-0.56,0.02c-0.12,0-0.24,0-0.37-0.01h-0.05c-0.09,0-0.19-0.01-0.28-0.02
				c-0.02,0-0.03,0-0.05-0.01c-0.04,0-0.08-0.01-0.12-0.01c-0.12-0.01-0.23-0.02-0.35-0.04c-0.12-0.01-0.23-0.03-0.35-0.05
				c-0.13-0.02-0.25-0.05-0.37-0.07c-0.11-0.02-0.23-0.05-0.34-0.08c-0.12-0.04-0.24-0.07-0.36-0.11c-0.02-0.01-0.03-0.01-0.04-0.02
				c-0.08-0.03-0.15-0.05-0.23-0.08c-0.01,0-0.01-0.01-0.02-0.01c-0.02-0.01-0.03-0.01-0.04-0.02c0.26-0.45,0.43-0.95,0.51-1.46
				c0.07-0.43,0.07-0.92,0-1.34c-0.08-0.52-0.26-1.02-0.51-1.47c0.01,0,0.02-0.01,0.04-0.02c0.09-0.03,0.19-0.07,0.29-0.1
				c0.12-0.04,0.24-0.07,0.36-0.11c0.11-0.03,0.23-0.06,0.34-0.08c0.12-0.03,0.25-0.05,0.37-0.07c0.12-0.02,0.23-0.04,0.35-0.05
				c0.12-0.02,0.23-0.03,0.35-0.04c0.04,0,0.08-0.01,0.12-0.01c0.02,0,0.03,0,0.05-0.01c0.09-0.01,0.18-0.01,0.28-0.02h0.05
				c0.12-0.01,0.24-0.01,0.37-0.01C19.4,9.85,19.58,9.85,19.75,9.87 M12.5,15.78c-1.81,0-3.28-1.47-3.28-3.28s1.47-3.28,3.28-3.28
				s3.28,1.47,3.28,3.28S14.31,15.78,12.5,15.78 M15.84,15.3c0.06,0.02,0.12,0.05,0.18,0.07c0.01,0.01,0.02,0.01,0.04,0.01
				c0.02,0.01,0.03,0.02,0.05,0.02c0.03,0.01,0.06,0.02,0.09,0.03c0.03,0.01,0.06,0.02,0.09,0.03c0.1,0.04,0.19,0.07,0.29,0.1
				c0,0,0.01,0,0.01,0c0.1,0.03,0.2,0.05,0.31,0.08c0,0,0,0,0.01,0c0.03,0.01,0.07,0.02,0.1,0.02c0.11,0.03,0.22,0.05,0.33,0.07
				c0.07,0.01,0.14,0.03,0.21,0.04c0.07,0.01,0.14,0.02,0.21,0.03c0.04,0,0.07,0.01,0.11,0.02c0.06,0.01,0.12,0.02,0.18,0.02
				c0.05,0.01,0.09,0.01,0.14,0.02c0.08,0.01,0.15,0.02,0.23,0.02c0.13,0.01,0.25,0.02,0.38,0.02h0.02c0.12,0,0.25,0.01,0.37,0.01
				c0.15,0,0.29,0,0.42-0.01c1.58,1.85,2.11,3.98,1.2,4.9c-0.92,0.92-3.05,0.39-4.9-1.2c0.01-0.13,0.01-0.27,0.01-0.42
				c0-0.26-0.01-0.52-0.03-0.77c-0.01-0.08-0.01-0.15-0.02-0.23c-0.03-0.29-0.07-0.57-0.12-0.84c-0.02-0.11-0.05-0.23-0.07-0.33
				c-0.01-0.04-0.02-0.07-0.02-0.11c-0.03-0.1-0.05-0.21-0.08-0.31c-0.03-0.1-0.06-0.2-0.1-0.3c-0.02-0.06-0.04-0.13-0.06-0.19
				c-0.01-0.02-0.01-0.04-0.02-0.05c-0.02-0.07-0.05-0.14-0.08-0.21c-0.01-0.02-0.02-0.04-0.02-0.06c0.18-0.16,0.35-0.32,0.51-0.51
				C15.8,15.28,15.82,15.29,15.84,15.3 M12.5,25c1.61,0,2.97-1.88,3.32-4.48c2.09,1.59,4.38,1.96,5.52,0.82
				c1.14-1.14,0.77-3.43-0.82-5.52c2.6-0.35,4.48-1.71,4.48-3.32s-1.88-2.97-4.48-3.32c1.59-2.09,1.96-4.38,0.82-5.52
				c-1.14-1.14-3.43-0.77-5.52,0.82C15.47,1.88,14.11,0,12.5,0S9.53,1.88,9.18,4.48C7.09,2.89,4.8,2.52,3.66,3.66
				C3.21,4.11,3,4.73,3,5.45c0,1.11,0.52,2.46,1.48,3.73C1.88,9.53,0,10.89,0,12.5s1.88,2.97,4.48,3.32C3.52,17.09,3,18.43,3,19.55
				c0,0.36,0.05,0.69,0.16,1c0.11,0.3,0.28,0.57,0.5,0.79c1.14,1.14,3.43,0.77,5.52-0.82C9.53,23.12,10.89,25,12.5,25"/>
		</g>
	</g>
</g>
<g id="Menüleiste">
</g>
<g id="Mobil">
</g>
</svg>
