<?xml version="1.0" encoding="utf-8"?>
<!-- Generator: Adobe Illustrator 24.1.2, SVG Export Plug-In . SVG Version: 6.00 Build 0)  -->
<svg version="1.1" xmlns="http://www.w3.org/2000/svg" xmlns:xlink="http://www.w3.org/1999/xlink" x="0px" y="0px"
	 viewBox="0 0 25 25" style="enable-background:new 0 0 25 25;" xml:space="preserve">
<style type="text/css">
	.st0{fill:#CEB67F;}
	.st1{fill:#CDB57C;}
	.st2{clip-path:url(#SVGID_2_);fill:#CEB67E;}
	.st3{clip-path:url(#SVGID_4_);fill:#CEB67E;}
	.st4{clip-path:url(#SVGID_6_);fill:#CEB67E;}
	.st5{clip-path:url(#SVGID_8_);fill:#CEB67E;}
	.st6{clip-path:url(#SVGID_10_);fill:#CEB67E;}
	.st7{clip-path:url(#SVGID_12_);fill:#CEB67E;}
	.st8{clip-path:url(#SVGID_14_);fill:#CEB67E;}
	.st9{display:none;}
	.st10{display:inline;fill:#EDEDED;}
	.st11{display:inline;fill:#BDBCBC;}
	.st12{display:inline;}
	.st13{display:inline;fill:#CDB57C;}
</style>
<g id="Footer">
</g>
<g id="Überschrift">
</g>
<g id="Inhalte">
	<g>
		<path class="st0" d="M20.07,8.88c-0.14,0-0.29-0.01-0.44-0.01c-0.28,0-0.55,0.01-0.82,0.03c-0.08,0.01-0.16,0.01-0.24,0.02
			c-0.3,0.03-0.6,0.07-0.89,0.13c-0.12,0.03-0.24,0.05-0.36,0.08c-0.04,0.01-0.08,0.02-0.12,0.03c-0.11,0.03-0.22,0.05-0.33,0.09
			c-0.11,0.03-0.22,0.07-0.33,0.11c-0.07,0.02-0.13,0.04-0.2,0.07c-0.02,0.01-0.04,0.01-0.05,0.02c-0.08,0.02-0.15,0.05-0.23,0.09
			c-0.03,0.01-0.05,0.02-0.07,0.03c-0.17-0.2-0.35-0.38-0.54-0.54c0.01-0.02,0.02-0.04,0.03-0.07c0.03-0.06,0.05-0.13,0.07-0.19
			c0-0.01,0.01-0.02,0.01-0.04c0.01-0.02,0.02-0.03,0.02-0.05c0.01-0.03,0.02-0.07,0.03-0.1c0.01-0.03,0.02-0.06,0.03-0.1
			c0.04-0.11,0.07-0.21,0.1-0.32c0,0,0-0.01,0-0.01c0.03-0.11,0.06-0.22,0.09-0.33c0,0,0,0,0,0c0.01-0.03,0.02-0.07,0.03-0.11
			c0.03-0.12,0.05-0.24,0.08-0.36c0.01-0.07,0.03-0.15,0.04-0.22c0.01-0.07,0.03-0.15,0.03-0.22c0.01-0.04,0.01-0.07,0.02-0.11
			c0.01-0.06,0.02-0.13,0.03-0.19c0-0.05,0.01-0.1,0.02-0.14c0.01-0.08,0.02-0.16,0.02-0.25c0.01-0.13,0.02-0.26,0.02-0.4V5.77
			c0.01-0.13,0.01-0.27,0.01-0.4c0-0.16,0-0.3-0.01-0.44c1.98-1.68,4.24-2.25,5.22-1.27C22.31,4.64,21.75,6.9,20.07,8.88"/>
		<path class="st0" d="M9.55,15.99c-0.01,0.02-0.02,0.04-0.03,0.07c-0.06,0.16-0.12,0.32-0.17,0.48c-0.03,0.1-0.07,0.2-0.1,0.31
			c-0.1,0.33-0.17,0.68-0.23,1.04C9,17.96,8.99,18.03,8.98,18.11c-0.03,0.23-0.06,0.46-0.08,0.69c-0.01,0.13-0.02,0.26-0.02,0.39
			v0.04c-0.01,0.13-0.01,0.26-0.01,0.39c0,0.16,0,0.3,0.01,0.44c-1.98,1.69-4.24,2.25-5.22,1.27c-0.98-0.98-0.42-3.24,1.27-5.22
			c0.14,0,0.29,0.01,0.44,0.01c0.28,0,0.55-0.01,0.82-0.03c0.08,0,0.16-0.01,0.24-0.02c0.3-0.03,0.6-0.08,0.89-0.13
			c0.12-0.02,0.23-0.05,0.35-0.08c0.04-0.01,0.08-0.02,0.12-0.03c0.11-0.03,0.22-0.05,0.33-0.09c0.11-0.03,0.22-0.07,0.33-0.1
			c0.07-0.02,0.13-0.04,0.2-0.07c0.02,0,0.04-0.01,0.05-0.02c0.08-0.03,0.15-0.05,0.23-0.09c0.03-0.01,0.05-0.02,0.07-0.03
			C9.17,15.65,9.36,15.82,9.55,15.99"/>
		<path class="st0" d="M21.34,21.34c-0.98,0.98-3.24,0.41-5.22-1.27c0-0.14,0.01-0.29,0.01-0.44c0-0.28-0.01-0.55-0.03-0.82
			c-0.01-0.08-0.01-0.16-0.02-0.25c-0.03-0.3-0.07-0.6-0.13-0.89c-0.03-0.12-0.05-0.24-0.08-0.36c-0.01-0.04-0.02-0.08-0.03-0.11
			c-0.03-0.11-0.06-0.22-0.09-0.33c-0.03-0.11-0.07-0.22-0.11-0.33c-0.02-0.07-0.04-0.13-0.07-0.2c0-0.02-0.01-0.04-0.02-0.05
			c-0.02-0.08-0.05-0.15-0.09-0.23c-0.01-0.02-0.02-0.04-0.03-0.07c0.2-0.17,0.38-0.35,0.54-0.54c0.02,0.01,0.04,0.02,0.07,0.03
			c0.08,0.03,0.15,0.06,0.23,0.09c0.02,0.01,0.03,0.02,0.05,0.02c0.07,0.02,0.13,0.05,0.2,0.07c0.11,0.04,0.22,0.07,0.33,0.11
			c0.11,0.03,0.22,0.06,0.33,0.09c0.04,0.01,0.08,0.02,0.11,0.03c0.12,0.03,0.23,0.05,0.36,0.08c0.29,0.05,0.59,0.1,0.89,0.13
			c0.08,0.01,0.16,0.02,0.25,0.02c0.27,0.02,0.55,0.03,0.82,0.03c0.16,0,0.3,0,0.44-0.01C21.75,18.1,22.31,20.36,21.34,21.34"/>
		<path class="st0" d="M9.55,9.01c-0.2,0.17-0.38,0.35-0.54,0.54C8.99,9.54,8.97,9.53,8.94,9.52C8.87,9.49,8.79,9.46,8.71,9.44
			C8.7,9.43,8.68,9.42,8.66,9.42c-0.07-0.03-0.13-0.05-0.2-0.07c-0.11-0.04-0.21-0.07-0.33-0.1C8.03,9.21,7.92,9.18,7.81,9.16
			C7.77,9.15,7.73,9.14,7.69,9.13C7.57,9.1,7.46,9.08,7.34,9.05C7.05,9,6.75,8.95,6.44,8.92C6.36,8.92,6.28,8.91,6.2,8.9
			C5.93,8.88,5.65,8.87,5.38,8.87c-0.16,0-0.3,0-0.44,0.01C3.25,6.9,2.69,4.64,3.66,3.66C4.64,2.68,6.9,3.25,8.88,4.93
			C8.87,5.07,8.87,5.22,8.87,5.38c0,0.28,0.01,0.55,0.03,0.82c0,0.08,0.01,0.16,0.02,0.24C8.95,6.75,9,7.04,9.05,7.34
			C9.08,7.45,9.1,7.57,9.13,7.69c0.01,0.04,0.01,0.08,0.03,0.12c0.03,0.11,0.05,0.22,0.09,0.33c0.03,0.11,0.07,0.22,0.1,0.33
			c0.02,0.07,0.04,0.13,0.07,0.2c0,0.02,0.01,0.04,0.02,0.05c0.03,0.08,0.06,0.15,0.09,0.23C9.53,8.97,9.54,8.99,9.55,9.01"/>
		<path class="st0" d="M15.99,12.5c0,1.93-1.56,3.49-3.49,3.49c-1.93,0-3.5-1.56-3.5-3.49c0-1.93,1.57-3.49,3.5-3.49
			C14.43,9.01,15.99,10.57,15.99,12.5"/>
		<path class="st0" d="M25,12.5c0,1.41-2.1,2.65-4.79,2.8c-0.18,0.01-0.38,0.02-0.59,0.02c-0.13,0-0.26,0-0.39-0.01h-0.05
			c-0.1-0.01-0.2-0.01-0.29-0.02c-0.01,0-0.03,0-0.04,0c-0.05,0-0.1-0.01-0.15-0.01c-0.12-0.01-0.25-0.03-0.36-0.04
			c-0.13-0.01-0.25-0.03-0.38-0.06c0,0-0.01,0-0.02,0c-0.13-0.02-0.25-0.05-0.37-0.08c-0.12-0.03-0.25-0.06-0.36-0.09
			c-0.13-0.04-0.26-0.07-0.39-0.12c-0.1-0.03-0.21-0.07-0.31-0.11c-0.01-0.01-0.03-0.01-0.04-0.02c0.27-0.48,0.46-1.01,0.55-1.55
			c0.04-0.23,0.06-0.47,0.06-0.72c0-0.25-0.02-0.49-0.06-0.71c-0.09-0.55-0.27-1.08-0.55-1.56c0.01,0,0.03-0.01,0.04-0.02
			c0.1-0.04,0.2-0.07,0.31-0.11c0.13-0.04,0.26-0.08,0.39-0.12c0.12-0.03,0.24-0.06,0.36-0.09c0.12-0.03,0.25-0.05,0.37-0.08
			c0.01,0,0.02,0,0.02,0c0.13-0.02,0.25-0.04,0.38-0.06c0.12-0.02,0.24-0.03,0.36-0.04c0.05,0,0.1-0.01,0.15-0.01
			c0.01,0,0.03,0,0.04,0c0.1-0.01,0.2-0.01,0.29-0.02h0.05c0.13,0,0.26-0.01,0.39-0.01c0.21,0,0.41,0,0.59,0.02h0.01
			C22.91,9.86,25,11.09,25,12.5"/>
		<path class="st0" d="M7.99,13.21c0.09,0.55,0.27,1.08,0.55,1.56c-0.01,0-0.03,0.01-0.04,0.02c-0.1,0.04-0.2,0.07-0.31,0.11
			c-0.13,0.04-0.26,0.08-0.39,0.12c-0.12,0.03-0.24,0.06-0.36,0.09c-0.12,0.03-0.25,0.05-0.37,0.08c-0.01,0-0.02,0-0.02,0
			c-0.13,0.02-0.25,0.04-0.38,0.06c-0.12,0.02-0.24,0.03-0.36,0.04c-0.05,0-0.1,0.01-0.15,0.01c-0.01,0-0.03,0-0.04,0
			c-0.1,0.01-0.2,0.01-0.3,0.02H5.77c-0.13,0-0.26,0.01-0.39,0.01c-0.21,0-0.41,0-0.59-0.02H4.77C2.1,15.14,0,13.91,0,12.5
			c0-1.41,2.1-2.64,4.79-2.8c0.18-0.01,0.38-0.02,0.59-0.02c0.13,0,0.26,0,0.39,0.01h0.05c0.1,0,0.2,0.01,0.3,0.02
			c0.01,0,0.03,0,0.04,0c0.05,0,0.1,0.01,0.15,0.01c0.12,0.01,0.25,0.02,0.36,0.04C6.79,9.78,6.92,9.8,7.04,9.82c0,0,0.01,0,0.02,0
			C7.19,9.84,7.31,9.87,7.43,9.9C7.56,9.93,7.68,9.95,7.8,9.99c0.13,0.04,0.26,0.08,0.39,0.12c0.1,0.03,0.21,0.07,0.31,0.11
			c0.01,0.01,0.03,0.01,0.04,0.02c-0.27,0.48-0.46,1.01-0.55,1.55c-0.04,0.23-0.06,0.47-0.06,0.72C7.93,12.75,7.95,12.99,7.99,13.21
			"/>
		<path class="st0" d="M15.32,5.38c0,0.13,0,0.26-0.01,0.39v0.05c-0.01,0.1-0.01,0.2-0.02,0.3c0,0.02,0,0.03,0,0.05
			c0,0.04,0,0.09-0.01,0.13c-0.01,0.13-0.03,0.25-0.04,0.37c-0.01,0.13-0.03,0.25-0.06,0.37c-0.02,0.13-0.05,0.27-0.08,0.39
			c-0.03,0.12-0.06,0.24-0.09,0.37c-0.04,0.13-0.07,0.26-0.12,0.39c0,0.02-0.01,0.03-0.02,0.05c-0.03,0.08-0.06,0.16-0.09,0.24
			c0,0.01,0,0.01-0.01,0.02c-0.01,0.02-0.01,0.03-0.02,0.04c-0.48-0.27-1.01-0.46-1.56-0.55c-0.46-0.08-0.98-0.08-1.43,0
			c-0.55,0.09-1.08,0.27-1.56,0.55c0-0.01-0.01-0.03-0.02-0.04c-0.04-0.1-0.07-0.2-0.11-0.31c-0.04-0.13-0.08-0.26-0.12-0.39
			C9.95,7.68,9.92,7.56,9.9,7.43C9.87,7.3,9.84,7.17,9.82,7.04C9.8,6.91,9.78,6.79,9.76,6.66C9.74,6.54,9.73,6.42,9.72,6.29
			C9.71,6.25,9.71,6.2,9.71,6.16c0-0.02,0-0.03,0-0.05c-0.01-0.1-0.01-0.2-0.02-0.3V5.77c0-0.13-0.01-0.26-0.01-0.39
			c0-0.22,0-0.41,0.02-0.59c0-0.07,0.01-0.13,0.01-0.19C9.91,2,11.12,0,12.5,0c1.38,0,2.58,2,2.79,4.59c0,0.07,0.01,0.13,0.01,0.2
			C15.32,4.96,15.32,5.16,15.32,5.38"/>
		<path class="st0" d="M15.32,19.62c0,0.22,0,0.41-0.02,0.59c0,0.07-0.01,0.13-0.01,0.19C15.09,23,13.88,25,12.5,25
			c-1.38,0-2.58-2-2.79-4.59c0-0.07-0.01-0.13-0.01-0.2c-0.01-0.18-0.02-0.37-0.02-0.59c0-0.26,0.01-0.53,0.03-0.79
			c0-0.04,0-0.09,0.01-0.13c0-0.01,0-0.02,0-0.03c0.01-0.08,0.02-0.16,0.03-0.24c0-0.03,0.01-0.07,0.01-0.1c0-0.01,0-0.03,0-0.03
			c0.01-0.12,0.03-0.23,0.05-0.34c0.02-0.13,0.05-0.27,0.08-0.39c0.03-0.12,0.06-0.24,0.09-0.37c0.07-0.25,0.15-0.5,0.24-0.74
			c0.48,0.27,1.01,0.46,1.56,0.55c0.46,0.08,0.98,0.08,1.43,0c0.55-0.09,1.08-0.27,1.56-0.55c0,0.01,0.01,0.03,0.02,0.04
			c0.04,0.1,0.07,0.2,0.11,0.31c0.04,0.13,0.08,0.26,0.12,0.39c0.03,0.12,0.06,0.24,0.09,0.37c0.03,0.13,0.06,0.26,0.08,0.39
			c0.02,0.12,0.04,0.25,0.06,0.37c0.02,0.12,0.03,0.25,0.04,0.37c0,0.04,0.01,0.09,0.01,0.13c0,0.02,0,0.03,0,0.05
			c0.01,0.1,0.01,0.2,0.02,0.3v0.05C15.32,19.36,15.32,19.49,15.32,19.62"/>
	</g>
</g>
<g id="Menüleiste">
</g>
<g id="Mobil">
</g>
</svg>
