<?xml version="1.0" encoding="utf-8"?>
<!-- Generator: Adobe Illustrator 24.1.2, SVG Export Plug-In . SVG Version: 6.00 Build 0)  -->
<svg version="1.1" xmlns="http://www.w3.org/2000/svg" xmlns:xlink="http://www.w3.org/1999/xlink" x="0px" y="0px"
	 viewBox="0 0 17 25" style="enable-background:new 0 0 17 25;" xml:space="preserve">
<style type="text/css">
	.st0{fill:#C6B47F;}
	.st1{fill:#CDB57C;}
	.st2{clip-path:url(#SVGID_2_);fill:#CEB67E;}
	.st3{clip-path:url(#SVGID_4_);fill:#CEB67E;}
	.st4{clip-path:url(#SVGID_6_);fill:#CEB67E;}
	.st5{clip-path:url(#SVGID_8_);fill:#CEB67E;}
	.st6{clip-path:url(#SVGID_10_);fill:#CEB67E;}
	.st7{clip-path:url(#SVGID_12_);fill:#CEB67E;}
	.st8{clip-path:url(#SVGID_14_);fill:#CEB67E;}
	.st9{display:none;}
	.st10{display:inline;fill:#EDEDED;}
	.st11{display:inline;fill:#BDBCBC;}
	.st12{display:inline;}
	.st13{display:inline;fill:#CDB57C;}
</style>
<g id="Footer">
</g>
<g id="Überschrift">
</g>
<g id="Inhalte">
	<path class="st1" d="M8.5,24c0.13-0.18,0.26-0.35,0.39-0.53c1.03-1.38,2.1-2.8,2.1-5.64c0-2.83-1.07-4.26-2.1-5.63
		C7.92,10.9,7,9.67,7,7.16c0-2.5,0.92-3.73,1.9-5.03c0.24-0.32,0.49-0.65,0.72-1C13.23,1.96,16,6.75,16,12.5
		C16,18.84,12.64,23.99,8.5,24 M1,12.5C1,6.16,4.36,1,8.49,1C8.37,1.18,8.23,1.35,8.1,1.53C7.07,2.91,6,4.33,6,7.16
		C6,10,7.07,11.42,8.1,12.8c0.98,1.3,1.9,2.53,1.9,5.03c0,2.5-0.92,3.73-1.9,5.03c-0.24,0.32-0.49,0.65-0.72,1
		C3.77,23.04,1,18.25,1,12.5 M8.5,0C3.81,0,0,5.61,0,12.5C0,19.39,3.81,25,8.5,25c4.69,0,8.5-5.61,8.5-12.5C17,5.61,13.19,0,8.5,0"
		/>
</g>
<g id="Menüleiste">
</g>
<g id="Mobil">
</g>
</svg>
