<svg id="Ebene_1" data-name="Ebene 1" xmlns="http://www.w3.org/2000/svg" viewBox="0 0 200 200"><defs><style>.cls-1{fill:#1d1d1b;}</style></defs><path class="cls-1" d="M111.059,157.262c-.032-.124-.063-.249-.094-.374-.124-.467-.249-.919-.389-1.386a47.735,47.735,0,0,0-2.914-7.058c-.015-.015-.031-.031-.031-.046-.249-.483-.5-.982-.763-1.465,0-.015-.016-.015-.016-.031-1.262-2.321-2.617-4.456-3.848-6.278-.016-.016-.016-.032-.031-.047-.312-.468-.623-.935-.9-1.34-.015-.016-.031-.016-.031-.031-1.885-2.664-3.318-4.378-3.49-4.6l-.966-1.169-.031-.031-1.044-1.246-.031-.031-.311-.374-1.808,2.15-.155.187-.016.015-.405.5c-.187.234-1.87,2.259-3.988,5.313-.032.046-.047.062-.078.108v.016c-2.914,4.222-6.575,10.376-8.242,16.436-.031.141-.078.265-.109.405-.187.748-.358,1.5-.483,2.244-.109.639-.187,1.262-.234,1.885-.046.5-.062,1-.062,1.48a13.586,13.586,0,0,0,1.153,5.5,11.44,11.44,0,0,0,.763,1.511,15.215,15.215,0,0,0,5.157,5.235,12.871,12.871,0,0,0,1.589.841,16.2,16.2,0,0,0,6.918,1.527,17.126,17.126,0,0,0,2.991-.265,16.3,16.3,0,0,0,4.253-1.418,15.455,15.455,0,0,0,5.64-4.736c.015-.016.031-.016.031-.031a14.092,14.092,0,0,0,1.963-3.817,13.88,13.88,0,0,0,.7-4.347c0-.483-.016-.981-.062-1.48A23.142,23.142,0,0,0,111.059,157.262ZM96.165,170.879a10.546,10.546,0,0,1-1.216-.078,9.872,9.872,0,0,1-2.056-.452,8.866,8.866,0,0,1-5.484-4.954,6.81,6.81,0,0,1-.5-1.745,7.082,7.082,0,0,1-.093-1.153,18.558,18.558,0,0,1,1.028-5.609,37.309,37.309,0,0,1,2.322-5.468.536.536,0,0,1,.062-.14c.67-1.34,1.417-2.664,2.165-3.91a.661.661,0,0,1,.078-.141c1.247-2.056,2.54-3.957,3.693-5.531.358.483.716,1,1.09,1.527,0,.016.016.016.031.031.281.421.577.873.888,1.34a.119.119,0,0,1,.032.063,58.859,58.859,0,0,1,3.754,6.356c0,.016.016.016.016.031.265.468.5.982.748,1.48,0,.016.015.031.015.047a36.68,36.68,0,0,1,1.745,4.315,21.93,21.93,0,0,1,.779,3.054v.016a15.066,15.066,0,0,1,.234,1.978c.015.187.015.374.015.561C105.512,167.124,101.321,170.879,96.165,170.879Z"/><path class="cls-1" d="M142.124,134.537V112.69h10.859v-6.232H130.72V24.276h-6.232V72.822h-8.865V6.266h12.76V.034H62.373V6.266H75.989V72.822H67.825V24.447H61.594v82.011H38.551v6.232H48.787l-.14,87.276h93.477v-59.2h18.688v34.275h6.232V134.537ZM82.221,6.266h27.171V72.822H82.221Zm-14.4,72.787h56.663v27.405H67.825Zm-12.79,33.668h80.857v80.2l-.965.811H54.879Z"/></svg>