<svg id="icons" xmlns="http://www.w3.org/2000/svg" viewBox="0 0 128 128"><title>Drip-Coffee-Brewer</title><g id="electrical_drip_brewer" data-name="electrical drip brewer"><polygon points="86.12 40.46 83.38 37.54 100.96 21 90.5 21 90.5 17 111.04 17 86.12 40.46"/><path d="M82.49,55h-35L34.31,11H95.69Zm-32-4h29l10.8-36H39.69Z"/><rect x="36.5" y="51" width="56" height="4"/><path d="M65,103.33c-5.51,0-10-4.21-10-9.38,0-7.71,8.12-17.49,8.47-17.9L65,74.22l1.53,1.83C66.88,76.46,75,86.24,75,94,75,99.12,70.51,103.33,65,103.33ZM65,80.6C62.53,84,59,89.76,59,94c0,3,2.69,5.38,6,5.38s6-2.41,6-5.38C71,89.76,67.47,84,65,80.6Z"/><polygon points="110.5 102 106.5 102 106.5 80 92.5 80 92.5 76 110.5 76 110.5 102"/><path d="M94.5,118h-60V76.45L25.85,58H94.5Zm-56-4h52V62H32.15L38.5,75.55Z"/><polygon points="108.5 128 17.5 128 17.5 0 92.5 0 92.5 4 21.5 4 21.5 124 108.5 124 108.5 128"/></g></svg>