<svg id="Ebene_1" data-name="Ebene 1" xmlns="http://www.w3.org/2000/svg" viewBox="0 0 200 200"><defs><style>.cls-1{fill:#1d1d1b;}</style></defs><path class="cls-1" d="M133.737,141.712c-8.174-13.818-8.174-34.646,0-48.451l28.185-57.628H38.078L66.156,93.154l.107.187c8.16,13.792,8.16,34.58-.013,48.4L40.084,186.913c-1.9,3.211-2.14,6.541-.642,9.163,1.472,2.6,4.455,4.094,8.161,4.094H152.4c3.719,0,6.7-1.485,8.174-4.067s1.244-5.912-.642-9.083Zm-11.464-27.155H77.714a55.33,55.33,0,0,0-2.7-14.715h49.936A55.866,55.866,0,0,0,122.273,114.557Zm-44.532,5.351h44.505a55.61,55.61,0,0,0,2.983,16.052H74.758A55.176,55.176,0,0,0,77.741,119.908Zm-31.1-78.924H153.361L129.082,90.626c-.736,1.244-1.4,2.541-2.02,3.866H72.9a42.06,42.06,0,0,0-1.98-3.786Zm109.29,152.457c-.5.883-1.779,1.378-3.532,1.378H47.6c-1.726,0-3.01-.508-3.519-1.391s-.294-2.274.615-3.813l26.166-45.174c.6-1.016,1.164-2.06,1.672-3.13H127.45c.521,1.057,1.07,2.1,1.672,3.1l26.192,45.307C156.2,191.221,156.424,192.572,155.929,193.441Z"/></svg>