<svg id="icons" xmlns="http://www.w3.org/2000/svg" viewBox="0 0 128 128"><title>Moka-Pot</title><g id="moka_pot_-_caffettiera" data-name="moka pot - caffettiera"><g id="moka_pot_-_caffettiera-2" data-name="moka pot - caffettiera"><polygon points="108 67.75 104 67.75 104 22.99 90.89 29.54 89.11 25.96 108 16.51 108 67.75"/><rect x="34" y="17.75" width="56" height="4"/><polygon points="36.44 49 17.84 25.75 34 25.75 34 29.75 26.16 29.75 39.56 46.5 36.44 49"/><path d="M62,14.25a6,6,0,1,1,6-6A6,6,0,0,1,62,14.25Zm0-8a2,2,0,1,0,2,2A2,2,0,0,0,62,6.25Z"/><path d="M92.44,125.75H31.56l8.8-44H83.64Zm-56-4H87.56l-7.2-36H43.64Z"/><path d="M83.64,69.75H40.36l-8.8-44H92.44Zm-40-4H80.36l7.2-36H36.44Z"/><path d="M84,85.75H40v-20H84Zm-40-4H80v-12H44Z"/><rect x="48.06" y="27.64" width="4" height="40.21" transform="translate(-4.63 5.38) rotate(-5.88)"/><rect x="60" y="27.75" width="4" height="40"/><rect x="53.84" y="45.75" width="40.21" height="4" transform="translate(18.88 116.42) rotate(-84.13)"/><rect x="29.95" y="101.75" width="40.21" height="4" transform="translate(-58.27 142.93) rotate(-84.13)"/><rect x="60" y="83.75" width="4" height="40"/><rect x="71.94" y="83.64" width="4" height="40.21" transform="translate(-10.23 8.12) rotate(-5.88)"/></g></g></svg>