<svg id="Ebene_1" data-name="Ebene 1" xmlns="http://www.w3.org/2000/svg" viewBox="0 0 200 200"><defs><style>.cls-1{fill:#1d1d1b;}</style></defs><path class="cls-1" d="M199.932,68.771V.068H.068v68.7H12.95l11.664,87.44H.068v43.721H199.932V156.211H175.386l11.664-87.44Zm-6.246,93.686v31.229H6.314V162.457H193.686Zm-24.593-6.246H30.907L19.243,68.771h25.42l5.371,16.114V89.07H28.174v6.246h21.86v17.175H81.263V84.885l5.371-16.114h26.732l5.371,16.114v27.606h31.229V95.316h21.86V89.07h-21.86V84.885l5.371-16.114h25.42ZM56.28,87.509H75.017v18.737H56.28Zm19.612-6.246H55.406L51.237,68.771H80.06Zm49.091,6.246H143.72v18.737H124.983Zm19.611-6.246H124.108L119.94,68.771h28.823Zm12.82-18.737H6.314V6.314H193.686V62.526H157.414Z"/><path class="cls-1" d="M31.3,28.174a9.369,9.369,0,1,0,9.369,9.369A9.376,9.376,0,0,0,31.3,28.174Zm0,12.492a3.123,3.123,0,1,1,3.123-3.123A3.133,3.133,0,0,1,31.3,40.666Z"/><path class="cls-1" d="M56.28,28.174a9.369,9.369,0,1,0,9.369,9.369A9.377,9.377,0,0,0,56.28,28.174Zm0,12.492A3.123,3.123,0,1,1,59.4,37.543,3.132,3.132,0,0,1,56.28,40.666Z"/><path class="cls-1" d="M158.741,15.683A15.614,15.614,0,1,0,174.355,31.3,15.64,15.64,0,0,0,158.741,15.683Zm0,24.983A9.369,9.369,0,1,1,168.11,31.3,9.387,9.387,0,0,1,158.741,40.666Z"/><path class="cls-1" d="M100,187.44a9.369,9.369,0,1,0-9.369-9.369A9.377,9.377,0,0,0,100,187.44Zm0-12.491a3.123,3.123,0,1,1-3.123,3.122A3.132,3.132,0,0,1,100,174.949Z"/></svg>