<svg id="icons" xmlns="http://www.w3.org/2000/svg" viewBox="0 0 128 128"><title>Espresso-Machine</title><g id="Espresso_machine" data-name="Espresso machine"><path d="M128,44H0V0H128ZM4,40H124V4H4Z"/><path d="M128,128H0V100H128ZM4,124H124V104H4Z"/><path d="M111.75,104H16.25L7.72,40H120.28Zm-92-4h88.5l7.47-56H12.28Z"/><path d="M20,30a6,6,0,1,1,6-6A6,6,0,0,1,20,30Zm0-8a2,2,0,1,0,2,2A2,2,0,0,0,20,22Z"/><path d="M36,30a6,6,0,1,1,6-6A6,6,0,0,1,36,30Zm0-8a2,2,0,1,0,2,2A2,2,0,0,0,36,22Z"/><path d="M101.62,30a10,10,0,1,1,10-10A10,10,0,0,1,101.62,30Zm0-16a6,6,0,1,0,6,6A6,6,0,0,0,101.62,14Z"/><path d="M64,120a6,6,0,1,1,6-6A6,6,0,0,1,64,120Zm0-8a2,2,0,1,0,2,2A2,2,0,0,0,64,112Z"/><path d="M51.44,56H32.56L27.23,40H56.77Zm-16-4H48.56l2.67-8H32.77Z"/><path d="M52,72H32V52H52ZM36,68H48V56H36Z"/><path d="M95.44,56H76.56L71.23,40h29.54Zm-16-4H92.56l2.67-8H76.77Z"/><path d="M96,72H76V52H96ZM80,68H92V56H80Z"/><rect x="18" y="57" width="16" height="4"/><rect x="94" y="57" width="16" height="4"/></g></svg>