<?xml version="1.0" encoding="utf-8"?>
<!-- Generator: Adobe Illustrator 27.1.0, SVG Export Plug-In . SVG Version: 6.00 Build 0)  -->
<svg version="1.1" id="Ebene_1" xmlns="http://www.w3.org/2000/svg" xmlns:xlink="http://www.w3.org/1999/xlink" x="0px" y="0px"
	 viewBox="0 0 17.4 18.4" style="enable-background:new 0 0 17.4 18.4;" xml:space="preserve">
<style type="text/css">
	.st0{fill:#fff;}
</style>
<path class="st0" d="M5.6,16.1c-0.6,0-1.1,0.5-1.1,1.1s0.5,1.1,1.1,1.1s1.1-0.5,1.1-1.1S6.3,16.1,5.6,16.1L5.6,16.1z"/>
<path class="st0" d="M11.1,16.1c-0.6,0-1.1,0.5-1.1,1.1s0.5,1.1,1.1,1.1s1.1-0.5,1.1-1.1S11.8,16.1,11.1,16.1L11.1,16.1z"/>
<path class="st0" d="M12.4,0c-2.7,0-4.8,2.1-5,4.7h-4L2.9,2.4l-2.1,0C0.3,2.4,0,2.7,0,3.1c0,0.4,0.3,0.8,0.8,0.8l0.9,0l2.2,11.6
	l8.9,0.1h0c0.4,0,0.8-0.3,0.8-0.8c0-0.4-0.3-0.8-0.8-0.8L5.1,14l-0.2-1.1h8.4c0.7,0,0.9-0.6,1-1.1L15,9.3c1.4-0.9,2.4-2.5,2.4-4.3
	C17.4,2.3,15.1,0,12.4,0L12.4,0z M12.9,11.4H4.7L3.8,6.2h3.7c0.5,2.2,2.5,3.8,4.9,3.8c0.3,0,0.6,0,0.9-0.1
	C13.3,10,12.9,11.4,12.9,11.4z M15.5,7.6c-0.5,0.6-1.2,1.1-1.9,1.3c-0.4,0.1-0.8,0.2-1.2,0.2c-1.8,0-3.3-1.2-3.8-2.8
	C8.4,5.9,8.3,5.5,8.3,5c0-0.1,0-0.2,0-0.3c0.2-2.1,1.9-3.7,4-3.7c2.2,0,4,1.8,4,4C16.4,6,16.1,6.9,15.5,7.6z"/>
<path class="st0" d="M14.7,4.5h-1.8V2.7c0-0.3-0.2-0.5-0.5-0.5s-0.5,0.2-0.5,0.5v1.8H10C9.8,4.5,9.5,4.8,9.5,5S9.8,5.5,10,5.5h1.8
	v1.8c0,0.3,0.2,0.5,0.5,0.5s0.5-0.2,0.5-0.5V5.5h1.8c0.3,0,0.5-0.2,0.5-0.5S15,4.5,14.7,4.5z"/>
</svg>
