<?xml version="1.0" encoding="UTF-8"?><svg id="Ebene_1" xmlns="http://www.w3.org/2000/svg" viewBox="0 0 17.405 18.364"><defs><style>.cls-1{fill:#fff;}</style></defs><path class="cls-1" d="m5.64,16.054c-.63,0-1.14.51-1.14,1.14s.51,1.14,1.14,1.14,1.14-.51,1.14-1.14-.51-1.14-1.14-1.14h0Z"/><path class="cls-1" d="m11.12,16.084c-.63,0-1.14.51-1.14,1.14s.51,1.14,1.14,1.14,1.14-.51,1.14-1.14-.51-1.14-1.14-1.14h0Z"/><path class="cls-1" d="m12.365,0c-2.675,0-4.848,2.1-5.009,4.734H3.354l-.456-2.352-2.128-.028C.342,2.368.006,2.685,0,3.104c-.006.42.33.765.75.77l.892.012,2.25,11.611,8.92.106h.009c.416,0,.755-.334.76-.751.005-.419-.331-.764-.751-.769l-7.681-.093-.22-1.137h8.382c.7,0,.86-.58,1-1.06l.694-2.48c1.435-.889,2.401-2.465,2.401-4.274,0-2.779-2.261-5.04-5.04-5.04Zm.505,11.364H4.7l-.93-5.12h3.717c.543,2.197,2.516,3.836,4.878,3.836.303,0,.597-.038.886-.09l-.381,1.374Zm2.625-3.802c-.497.615-1.164,1.075-1.936,1.316-.38.119-.776.201-1.194.201-1.805,0-3.32-1.199-3.836-2.836-.121-.383-.204-.782-.204-1.204,0-.105.023-.203.031-.306.159-2.083,1.886-3.734,4.009-3.734,2.228,0,4.04,1.812,4.04,4.04,0,.959-.35,1.829-.91,2.523Z"/><path class="cls-1" d="m11.607,7.827l-2.148-2.373c-.185-.205-.169-.521.035-.706s.521-.169.707.035l1.258,1.391,2.093-3.359c.148-.234.459-.303.689-.16.234.146.306.455.16.689l-2.794,4.483Z"/></svg>